  0
SECTION
  2
HEADER
  9
$ACADVER
  1
AC1014
  9
$HANDSEED
  5
FFFF
  9
$INSUNITS
 70
     4
  9
$MEASUREMENT
 70
     1
  0
ENDSEC
  0
SECTION
  2
TABLES
  0
TABLE
  2
VPORT
  5
8
330
0
100
AcDbSymbolTable
 70
     4
  0
VPORT
  5
2E
330
8
100
AcDbSymbolTableRecord
100
AcDbViewportTableRecord
  2
*ACTIVE
 70
     0
 10
0.0
 20
0.0
 11
1.0
 21
1.0
 12
210.0
 22
148.5
 13
0.0
 23
0.0
 14
10.0
 24
10.0
 15
10.0
 25
10.0
 16
0.0
 26
0.0
 36
1.0
 17
0.0
 27
0.0
 37
0.0
 40
341.0
 41
1.24
 42
50.0
 43
0.0
 44
0.0
 50
0.0
 51
0.0
 71
     0
 72
   100
 73
     1
 74
     3
 75
     0
 76
     0
 77
     0
 78
     0
  0
ENDTAB
  0
TABLE
  2
LTYPE
  5
5
330
0
100
AcDbSymbolTable
 70
     1
  0
LTYPE
  5
14
330
5
100
AcDbSymbolTableRecord
100
AcDbLinetypeTableRecord
  2
BYBLOCK
 70
     0
  3

 72
    65
 73
     0
 40
0.0
  0
LTYPE
  5
15
330
5
100
AcDbSymbolTableRecord
100
AcDbLinetypeTableRecord
  2
BYLAYER
 70
     0
  3

 72
    65
 73
     0
 40
0.0
  0
LTYPE
  5
16
330
5
100
AcDbSymbolTableRecord
100
AcDbLinetypeTableRecord
  2
CONTINUOUS
 70
     0
  3
Solid line
 72
    65
 73
     0
 40
0.0
  0
ENDTAB
  0
TABLE
  2
LAYER
  5
2
100
AcDbSymbolTable
 70
5
  0
LAYER
  5
50
100
AcDbSymbolTableRecord
100
AcDbLayerTableRecord
  2
0
 70
0
  6
CONTINUOUS
  0
LAYER
  5
51
100
AcDbSymbolTableRecord
100
AcDbLayerTableRecord
  2
Camada_1
 70
0
  6
CONTINUOUS
  0
LAYER
  5
52
100
AcDbSymbolTableRecord
100
AcDbLayerTableRecord
  2
Layer_1
 70
0
  6
CONTINUOUS
  0
LAYER
  5
53
100
AcDbSymbolTableRecord
100
AcDbLayerTableRecord
  2
Layer_2
 70
0
  6
CONTINUOUS
  0
LAYER
  5
54
100
AcDbSymbolTableRecord
100
AcDbLayerTableRecord
  2
Camada_2
 70
0
  6
CONTINUOUS
  0
ENDTAB
  0
TABLE
  2
STYLE
  5
3
330
0
100
AcDbSymbolTable
 70
     1
  0
STYLE
  5
11
330
3
100
AcDbSymbolTableRecord
100
AcDbTextStyleTableRecord
  2
STANDARD
 70
     0
 40
0.0
 41
1.0
 50
0.0
 71
     0
 42
2.5
  3
txt
  4

  0
ENDTAB
  0
TABLE
  2
VIEW
  5
6
330
0
100
AcDbSymbolTable
 70
     0
  0
ENDTAB
  0
TABLE
  2
UCS
  5
7
330
0
100
AcDbSymbolTable
 70
     0
  0
ENDTAB
  0
TABLE
  2
APPID
  5
9
330
0
100
AcDbSymbolTable
 70
     2
  0
APPID
  5
12
330
9
100
AcDbSymbolTableRecord
100
AcDbRegAppTableRecord
  2
ACAD
 70
     0
  0
ENDTAB
  0
TABLE
  2
DIMSTYLE
  5
A
330
0
100
AcDbSymbolTable
 70
     1
  0
DIMSTYLE
105
27
330
A
100
AcDbSymbolTableRecord
100
AcDbDimStyleTableRecord
  2
ISO-25
 70
     0
  3

  4

  5

  6

  7

 40
1.0
 41
2.5
 42
0.625
 43
3.75
 44
1.25
 45
0.0
 46
0.0
 47
0.0
 48
0.0
140
2.5
141
2.5
142
0.0
143
0.03937007874016
144
1.0
145
0.0
146
1.0
147
0.625
 71
     0
 72
     0
 73
     0
 74
     0
 75
     0
 76
     0
 77
     1
 78
     8
170
     0
171
     3
172
     1
173
     0
174
     0
175
     0
176
     0
177
     0
178
     0
270
     2
271
     2
272
     2
273
     2
274
     3
340
11
275
     0
280
     0
281
     0
282
     0
283
     0
284
     8
285
     0
286
     0
287
     3
288
     0
  0
ENDTAB
  0
TABLE
  2
BLOCK_RECORD
  5
1
330
0
100
AcDbSymbolTable
 70
     1
  0
BLOCK_RECORD
  5
1F
330
1
100
AcDbSymbolTableRecord
100
AcDbBlockTableRecord
  2
*MODEL_SPACE
  0
BLOCK_RECORD
  5
1B
330
1
100
AcDbSymbolTableRecord
100
AcDbBlockTableRecord
  2
*PAPER_SPACE
  0
ENDTAB
  0
ENDSEC
  0
SECTION
  2
BLOCKS
  0
BLOCK
  5
20
330
1F
100
AcDbEntity
  8
0
100
AcDbBlockBegin
  2
*MODEL_SPACE
 70
     0
 10
0.0
 20
0.0
 30
0.0
  3
*MODEL_SPACE
  1

  0
ENDBLK
  5
21
330
1F
100
AcDbEntity
  8
0
100
AcDbBlockEnd
  0
BLOCK
  5
1C
330
1B
100
AcDbEntity
 67
     1
  8
0
100
AcDbBlockBegin
  2
*PAPER_SPACE
  1

  0
ENDBLK
  5
1D
330
1B
100
AcDbEntity
 67
     1
  8
0
100
AcDbBlockEnd
  0
ENDSEC
  0
SECTION
  2
ENTITIES
  0
SPLINE
  5
100
100
AcDbEntity
  8
Camada_1
 62
7
100
AcDbSpline
 70
8
 71
3
 72
8
 73
4
 74
0
 40
0
 40
0
 40
0
 40
0
 40
1
 40
1
 40
1
 40
1
 10
41.278476
 20
305.003953
 30
0.0
 10
40.461601
 20
305.607711
 30
0.0
 10
39.659529
 20
306.312442
 30
0.0
 10
38.825015
 20
307.146956
 30
0.0
  0
SPLINE
  5
101
100
AcDbEntity
  8
Camada_1
 62
7
100
AcDbSpline
 70
8
 71
3
 72
8
 73
4
 74
0
 40
0
 40
0
 40
0
 40
0
 40
1
 40
1
 40
1
 40
1
 10
38.825015
 20
307.146956
 30
0.0
 10
36.249735
 20
309.722235
 30
0.0
 10
35.191401
 20
311.380256
 30
0.0
 10
34.062512
 20
314.696370
 30
0.0
  0
SPLINE
  5
102
100
AcDbEntity
  8
Camada_1
 62
7
100
AcDbSpline
 70
8
 71
3
 72
8
 73
4
 74
0
 40
0
 40
0
 40
0
 40
0
 40
1
 40
1
 40
1
 40
1
 10
34.062512
 20
314.696370
 30
0.0
 10
31.910566
 20
320.940540
 30
0.0
 10
33.569035
 20
328.278217
 30
0.0
 10
38.190427
 20
333.111275
 30
0.0
  0
SPLINE
  5
103
100
AcDbEntity
  8
Camada_1
 62
7
100
AcDbSpline
 70
8
 71
3
 72
8
 73
4
 74
0
 40
0
 40
0
 40
0
 40
0
 40
1
 40
1
 40
1
 40
1
 10
38.190427
 20
333.111275
 30
0.0
 10
41.965152
 20
337.062389
 30
0.0
 10
45.386718
 20
338.614302
 30
0.0
 10
51.383944
 20
339.143469
 30
0.0
  0
SPLINE
  5
104
100
AcDbEntity
  8
Camada_1
 62
7
100
AcDbSpline
 70
8
 71
3
 72
8
 73
4
 74
0
 40
0
 40
0
 40
0
 40
0
 40
1
 40
1
 40
1
 40
1
 10
51.383944
 20
339.143469
 30
0.0
 10
53.430056
 20
339.319858
 30
0.0
 10
55.970230
 20
339.708086
 30
0.0
 10
57.028564
 20
340.025587
 30
0.0
  0
SPLINE
  5
105
100
AcDbEntity
  8
Camada_1
 62
7
100
AcDbSpline
 70
8
 71
3
 72
8
 73
4
 74
0
 40
0
 40
0
 40
0
 40
0
 40
1
 40
1
 40
1
 40
1
 10
57.028564
 20
340.025587
 30
0.0
 10
65.530514
 20
342.459755
 30
0.0
 10
71.210135
 20
350.432502
 30
0.0
 10
70.680968
 20
359.216674
 30
0.0
  0
SPLINE
  5
106
100
AcDbEntity
  8
Camada_1
 62
7
100
AcDbSpline
 70
8
 71
3
 72
8
 73
4
 74
0
 40
0
 40
0
 40
0
 40
0
 40
1
 40
1
 40
1
 40
1
 10
70.680968
 20
359.216674
 30
0.0
 10
70.257635
 20
366.801401
 30
0.0
 10
65.530445
 20
373.116195
 30
0.0
 10
58.369051
 20
375.867863
 30
0.0
  0
SPLINE
  5
107
100
AcDbEntity
  8
Camada_1
 62
7
100
AcDbSpline
 70
8
 71
3
 72
8
 73
4
 74
0
 40
0
 40
0
 40
0
 40
0
 40
1
 40
1
 40
1
 40
1
 10
58.369051
 20
375.867863
 30
0.0
 10
57.044654
 20
376.374251
 30
0.0
 10
55.462075
 20
376.698070
 30
0.0
 10
53.633421
 20
376.838863
 30
0.0
  0
SPLINE
  5
108
100
AcDbEntity
  8
Camada_1
 62
7
100
AcDbSpline
 70
8
 71
3
 72
8
 73
4
 74
0
 40
0
 40
0
 40
0
 40
0
 40
1
 40
1
 40
1
 40
1
 10
53.633421
 20
376.838863
 30
0.0
 10
54.488334
 20
378.314636
 30
0.0
 10
54.938613
 20
379.989905
 30
0.0
 10
54.938768
 20
381.695420
 30
0.0
  0
SPLINE
  5
109
100
AcDbEntity
  8
Camada_1
 62
7
100
AcDbSpline
 70
8
 71
3
 72
8
 73
4
 74
0
 40
0
 40
0
 40
0
 40
0
 40
1
 40
1
 40
1
 40
1
 10
54.938768
 20
381.695420
 30
0.0
 10
54.938757
 20
387.047260
 30
0.0
 10
50.600236
 20
391.385777
 30
0.0
 10
45.248398
 20
391.385788
 30
0.0
  0
SPLINE
  5
10a
100
AcDbEntity
  8
Camada_1
 62
7
100
AcDbSpline
 70
8
 71
3
 72
8
 73
4
 74
0
 40
0
 40
0
 40
0
 40
0
 40
1
 40
1
 40
1
 40
1
 10
45.248398
 20
391.385788
 30
0.0
 10
39.896560
 20
391.385777
 30
0.0
 10
35.558040
 20
387.047257
 30
0.0
 10
35.558029
 20
381.695420
 30
0.0
  0
SPLINE
  5
10b
100
AcDbEntity
  8
Camada_1
 62
7
100
AcDbSpline
 70
8
 71
3
 72
8
 73
4
 74
0
 40
0
 40
0
 40
0
 40
0
 40
1
 40
1
 40
1
 40
1
 10
35.558029
 20
381.695420
 30
0.0
 10
35.558026
 20
379.000133
 30
0.0
 10
36.680565
 20
376.426614
 30
0.0
 10
38.656031
 20
374.593005
 30
0.0
  0
SPLINE
  5
10c
100
AcDbEntity
  8
Camada_1
 62
7
100
AcDbSpline
 70
8
 71
3
 72
8
 73
4
 74
0
 40
0
 40
0
 40
0
 40
0
 40
1
 40
1
 40
1
 40
1
 10
38.656031
 20
374.593005
 30
0.0
 10
25.445373
 20
369.573693
 30
0.0
 10
15.464602
 20
356.967821
 30
0.0
 10
14.413052
 20
342.530346
 30
0.0
  0
SPLINE
  5
10d
100
AcDbEntity
  8
Camada_1
 62
7
100
AcDbSpline
 70
8
 71
3
 72
8
 73
4
 74
0
 40
0
 40
0
 40
0
 40
0
 40
1
 40
1
 40
1
 40
1
 10
14.413052
 20
342.530346
 30
0.0
 10
13.742774
 20
333.534507
 30
0.0
 10
15.788682
 20
325.561932
 30
0.0
 10
20.551185
 20
318.400539
 30
0.0
  0
SPLINE
  5
10e
100
AcDbEntity
  8
Camada_1
 62
7
100
AcDbSpline
 70
8
 71
3
 72
8
 73
4
 74
0
 40
0
 40
0
 40
0
 40
0
 40
1
 40
1
 40
1
 40
1
 10
20.551185
 20
318.400539
 30
0.0
 10
25.211911
 20
311.423239
 30
0.0
 10
32.632209
 20
305.911820
 30
0.0
 10
40.435697
 20
303.349636
 30
0.0
  0
SPLINE
  5
10f
100
AcDbEntity
  8
Camada_1
 62
7
100
AcDbSpline
 70
8
 71
3
 72
8
 73
4
 74
0
 40
0
 40
0
 40
0
 40
0
 40
1
 40
1
 40
1
 40
1
 10
40.435697
 20
303.349636
 30
0.0
 10
41.370301
 20
303.549093
 30
0.0
 10
41.676837
 20
304.086744
 30
0.0
 10
41.278476
 20
305.003953
 30
0.0
  0
SPLINE
  5
110
100
AcDbEntity
  8
Camada_2
 62
7
100
AcDbSpline
 70
8
 71
3
 72
8
 73
4
 74
0
 40
0
 40
0
 40
0
 40
0
 40
1
 40
1
 40
1
 40
1
 10
83.177101
 20
374.238964
 30
0.0
 10
85.248838
 20
373.247726
 30
0.0
 10
86.918583
 20
371.942843
 30
0.0
 10
88.724817
 20
369.960490
 30
0.0
  0
SPLINE
  5
111
100
AcDbEntity
  8
Camada_2
 62
7
100
AcDbSpline
 70
8
 71
3
 72
8
 73
4
 74
0
 40
0
 40
0
 40
0
 40
0
 40
1
 40
1
 40
1
 40
1
 10
88.724817
 20
369.960490
 30
0.0
 10
91.177730
 20
367.268403
 30
0.0
 10
92.158103
 20
365.562613
 30
0.0
 10
93.131783
 20
362.197656
 30
0.0
  0
SPLINE
  5
112
100
AcDbEntity
  8
Camada_2
 62
7
100
AcDbSpline
 70
8
 71
3
 72
8
 73
4
 74
0
 40
0
 40
0
 40
0
 40
0
 40
1
 40
1
 40
1
 40
1
 10
93.131783
 20
362.197656
 30
0.0
 10
94.991441
 20
355.860292
 30
0.0
 10
92.994628
 20
348.607868
 30
0.0
 10
88.153792
 20
343.994633
 30
0.0
  0
SPLINE
  5
113
100
AcDbEntity
  8
Camada_2
 62
7
100
AcDbSpline
 70
8
 71
3
 72
8
 73
4
 74
0
 40
0
 40
0
 40
0
 40
0
 40
1
 40
1
 40
1
 40
1
 10
88.153792
 20
343.994633
 30
0.0
 10
84.199663
 20
340.223073
 30
0.0
 10
80.709474
 20
338.831111
 30
0.0
 10
74.694149
 20
338.581010
 30
0.0
  0
SPLINE
  5
114
100
AcDbEntity
  8
Camada_2
 62
7
100
AcDbSpline
 70
8
 71
3
 72
8
 73
4
 74
0
 40
0
 40
0
 40
0
 40
0
 40
1
 40
1
 40
1
 40
1
 10
74.694149
 20
338.581010
 30
0.0
 10
72.642049
 20
338.499840
 30
0.0
 10
70.086841
 20
338.230455
 30
0.0
 10
69.014909
 20
337.962443
 30
0.0
  0
SPLINE
  5
115
100
AcDbEntity
  8
Camada_2
 62
7
100
AcDbSpline
 70
8
 71
3
 72
8
 73
4
 74
0
 40
0
 40
0
 40
0
 40
0
 40
1
 40
1
 40
1
 40
1
 10
69.014909
 20
337.962443
 30
0.0
 10
60.409094
 20
335.925711
 30
0.0
 10
54.365404
 20
328.225374
 30
0.0
 10
54.486080
 20
319.426107
 30
0.0
  0
SPLINE
  5
116
100
AcDbEntity
  8
Camada_2
 62
7
100
AcDbSpline
 70
8
 71
3
 72
8
 73
4
 74
0
 40
0
 40
0
 40
0
 40
0
 40
1
 40
1
 40
1
 40
1
 10
54.486080
 20
319.426107
 30
0.0
 10
54.556750
 20
311.829907
 30
0.0
 10
58.985591
 20
305.302212
 30
0.0
 10
66.011475
 20
302.220955
 30
0.0
  0
SPLINE
  5
117
100
AcDbEntity
  8
Camada_2
 62
7
100
AcDbSpline
 70
8
 71
3
 72
8
 73
4
 74
0
 40
0
 40
0
 40
0
 40
0
 40
1
 40
1
 40
1
 40
1
 10
66.011475
 20
302.220955
 30
0.0
 10
67.776760
 20
301.450234
 30
0.0
 10
70.033288
 20
300.994237
 30
0.0
 10
72.751632
 20
300.854631
 30
0.0
  0
SPLINE
  5
118
100
AcDbEntity
  8
Camada_2
 62
7
100
AcDbSpline
 70
8
 71
3
 72
8
 73
4
 74
0
 40
0
 40
0
 40
0
 40
0
 40
1
 40
1
 40
1
 40
1
 10
72.751632
 20
300.854631
 30
0.0
 10
73.657752
 20
300.808101
 30
0.0
 10
74.615167
 20
300.796721
 30
0.0
 10
75.622774
 20
300.820521
 30
0.0
  0
SPLINE
  5
119
100
AcDbEntity
  8
Camada_2
 62
7
100
AcDbSpline
 70
8
 71
3
 72
8
 73
4
 74
0
 40
0
 40
0
 40
0
 40
0
 40
1
 40
1
 40
1
 40
1
 10
75.622774
 20
300.820521
 30
0.0
 10
93.583531
 20
301.256936
 30
0.0
 10
109.332040
 20
315.640406
 30
0.0
 10
111.468130
 20
333.481577
 30
0.0
  0
SPLINE
  5
11a
100
AcDbEntity
  8
Camada_2
 62
7
100
AcDbSpline
 70
8
 71
3
 72
8
 73
4
 74
0
 40
0
 40
0
 40
0
 40
0
 40
1
 40
1
 40
1
 40
1
 10
111.468130
 20
333.481577
 30
0.0
 10
112.555430
 20
342.436577
 30
0.0
 10
110.881900
 20
350.495446
 30
0.0
 10
106.457070
 20
357.870269
 30
0.0
  0
SPLINE
  5
11b
100
AcDbEntity
  8
Camada_2
 62
7
100
AcDbSpline
 70
8
 71
3
 72
8
 73
4
 74
0
 40
0
 40
0
 40
0
 40
0
 40
1
 40
1
 40
1
 40
1
 10
106.457070
 20
357.870269
 30
0.0
 10
106.272990
 20
358.175647
 30
0.0
 10
106.083760
 20
358.478310
 30
0.0
 10
105.889660
 20
358.778740
 30
0.0
  0
SPLINE
  5
11c
100
AcDbEntity
  8
Camada_2
 62
7
100
AcDbSpline
 70
8
 71
3
 72
8
 73
4
 74
0
 40
0
 40
0
 40
0
 40
0
 40
1
 40
1
 40
1
 40
1
 10
105.889660
 20
358.778740
 30
0.0
 10
110.064990
 20
359.971162
 30
0.0
 10
112.943720
 20
363.787327
 30
0.0
 10
112.943490
 20
368.129591
 30
0.0
  0
SPLINE
  5
11d
100
AcDbEntity
  8
Camada_2
 62
7
100
AcDbSpline
 70
8
 71
3
 72
8
 73
4
 74
0
 40
0
 40
0
 40
0
 40
0
 40
1
 40
1
 40
1
 40
1
 10
112.943490
 20
368.129591
 30
0.0
 10
112.943370
 20
373.499932
 30
0.0
 10
108.589880
 20
377.853424
 30
0.0
 10
103.219540
 20
377.853545
 30
0.0
  0
SPLINE
  5
11e
100
AcDbEntity
  8
Camada_2
 62
7
100
AcDbSpline
 70
8
 71
3
 72
8
 73
4
 74
0
 40
0
 40
0
 40
0
 40
0
 40
1
 40
1
 40
1
 40
1
 10
103.219540
 20
377.853548
 30
0.0
 10
98.789753
 20
377.853507
 30
0.0
 10
94.919834
 20
374.859601
 30
0.0
 10
93.807194
 20
370.571822
 30
0.0
  0
SPLINE
  5
11f
100
AcDbEntity
  8
Camada_2
 62
7
100
AcDbSpline
 70
8
 71
3
 72
8
 73
4
 74
0
 40
0
 40
0
 40
0
 40
0
 40
1
 40
1
 40
1
 40
1
 10
93.807194
 20
370.571822
 30
0.0
 10
90.547114
 20
372.611750
 30
0.0
 10
87.041171
 20
374.143193
 30
0.0
 10
83.505721
 20
375.017138
 30
0.0
  0
SPLINE
  5
120
100
AcDbEntity
  8
Camada_2
 62
7
100
AcDbSpline
 70
8
 71
3
 72
8
 73
4
 74
0
 40
0
 40
0
 40
0
 40
0
 40
1
 40
1
 40
1
 40
1
 10
83.505721
 20
375.017138
 30
0.0
 10
83.280543
 20
375.104658
 30
0.0
 10
83.260619
 20
374.576422
 30
0.0
 10
83.177101
 20
374.238964
 30
0.0
  0
SPLINE
  5
121
100
AcDbEntity
  8
Camada_2
 62
7
100
AcDbSpline
 70
8
 71
3
 72
8
 73
4
 74
0
 40
0
 40
0
 40
0
 40
0
 40
1
 40
1
 40
1
 40
1
 10
83.177101
 20
374.238964
 30
0.0
 10
82.452316
 20
374.998950
 30
0.0
 10
83.319792
 20
374.803580
 30
0.0
 10
83.505721
 20
375.017138
 30
0.0
  0
LWPOLYLINE
  5
122
100
AcDbEntity
  8
Camada_2
 62
7
100
AcDbPolyline
 90
1
 70
1
 10
103.219540
 20
377.853545
 30
0.0
  0
SPLINE
  5
123
100
AcDbEntity
  8
Camada_2
 62
7
100
AcDbSpline
 70
8
 71
3
 72
8
 73
4
 74
0
 40
0
 40
0
 40
0
 40
0
 40
1
 40
1
 40
1
 40
1
 10
44.947826
 20
386.431496
 30
0.0
 10
43.649713
 20
386.431496
 30
0.0
 10
42.479420
 20
385.649532
 30
0.0
 10
41.982654
 20
384.450231
 30
0.0
  0
SPLINE
  5
124
100
AcDbEntity
  8
Camada_2
 62
7
100
AcDbSpline
 70
8
 71
3
 72
8
 73
4
 74
0
 40
0
 40
0
 40
0
 40
0
 40
1
 40
1
 40
1
 40
1
 10
41.982654
 20
384.450231
 30
0.0
 10
41.485887
 20
383.250931
 30
0.0
 10
41.760477
 20
381.870477
 30
0.0
 10
42.678381
 20
380.952573
 30
0.0
  0
SPLINE
  5
125
100
AcDbEntity
  8
Camada_2
 62
7
100
AcDbSpline
 70
8
 71
3
 72
8
 73
4
 74
0
 40
0
 40
0
 40
0
 40
0
 40
1
 40
1
 40
1
 40
1
 10
42.678381
 20
380.952573
 30
0.0
 10
43.596286
 20
380.034668
 30
0.0
 10
44.976740
 20
379.760079
 30
0.0
 10
46.176041
 20
380.256845
 30
0.0
  0
SPLINE
  5
126
100
AcDbEntity
  8
Camada_2
 62
7
100
AcDbSpline
 70
8
 71
3
 72
8
 73
4
 74
0
 40
0
 40
0
 40
0
 40
0
 40
1
 40
1
 40
1
 40
1
 10
46.176041
 20
380.256845
 30
0.0
 10
47.375341
 20
380.753611
 30
0.0
 10
48.157305
 20
381.923904
 30
0.0
 10
48.157305
 20
383.222017
 30
0.0
  0
SPLINE
  5
127
100
AcDbEntity
  8
Camada_2
 62
7
100
AcDbSpline
 70
8
 71
3
 72
8
 73
4
 74
0
 40
0
 40
0
 40
0
 40
0
 40
1
 40
1
 40
1
 40
1
 10
48.157305
 20
383.222017
 30
0.0
 10
48.157305
 20
384.073224
 30
0.0
 10
47.819165
 20
384.889567
 30
0.0
 10
47.217271
 20
385.491461
 30
0.0
  0
SPLINE
  5
128
100
AcDbEntity
  8
Camada_2
 62
7
100
AcDbSpline
 70
8
 71
3
 72
8
 73
4
 74
0
 40
0
 40
0
 40
0
 40
0
 40
1
 40
1
 40
1
 40
1
 10
47.217271
 20
385.491461
 30
0.0
 10
46.615376
 20
386.093356
 30
0.0
 10
45.799033
 20
386.431496
 30
0.0
 10
44.947826
 20
386.431496
 30
0.0
  0
LWPOLYLINE
  5
129
100
AcDbEntity
  8
Camada_2
 62
7
100
AcDbPolyline
 90
1
 70
1
 10
83.505721
 20
375.017138
 30
0.0
  0
SPLINE
  5
12a
100
AcDbEntity
  8
Camada_2
 62
7
100
AcDbSpline
 70
8
 71
3
 72
8
 73
4
 74
0
 40
0
 40
0
 40
0
 40
0
 40
1
 40
1
 40
1
 40
1
 10
104.012920
 20
372.280484
 30
0.0
 10
102.714807
 20
372.280484
 30
0.0
 10
101.544514
 20
371.498520
 30
0.0
 10
101.047748
 20
370.299219
 30
0.0
  0
SPLINE
  5
12b
100
AcDbEntity
  8
Camada_2
 62
7
100
AcDbSpline
 70
8
 71
3
 72
8
 73
4
 74
0
 40
0
 40
0
 40
0
 40
0
 40
1
 40
1
 40
1
 40
1
 10
101.047748
 20
370.299219
 30
0.0
 10
100.550981
 20
369.099919
 30
0.0
 10
100.825571
 20
367.719465
 30
0.0
 10
101.743475
 20
366.801561
 30
0.0
  0
SPLINE
  5
12c
100
AcDbEntity
  8
Camada_2
 62
7
100
AcDbSpline
 70
8
 71
3
 72
8
 73
4
 74
0
 40
0
 40
0
 40
0
 40
0
 40
1
 40
1
 40
1
 40
1
 10
101.743475
 20
366.801561
 30
0.0
 10
102.661380
 20
365.883656
 30
0.0
 10
104.041834
 20
365.609067
 30
0.0
 10
105.241135
 20
366.105833
 30
0.0
  0
SPLINE
  5
12d
100
AcDbEntity
  8
Camada_2
 62
7
100
AcDbSpline
 70
8
 71
3
 72
8
 73
4
 74
0
 40
0
 40
0
 40
0
 40
0
 40
1
 40
1
 40
1
 40
1
 10
105.241135
 20
366.105833
 30
0.0
 10
106.440435
 20
366.602599
 30
0.0
 10
107.222399
 20
367.772892
 30
0.0
 10
107.222399
 20
369.071005
 30
0.0
  0
SPLINE
  5
12e
100
AcDbEntity
  8
Camada_2
 62
7
100
AcDbSpline
 70
8
 71
3
 72
8
 73
4
 74
0
 40
0
 40
0
 40
0
 40
0
 40
1
 40
1
 40
1
 40
1
 10
107.222399
 20
369.071005
 30
0.0
 10
107.222399
 20
370.843551
 30
0.0
 10
105.785466
 20
372.280484
 30
0.0
 10
104.012920
 20
372.280484
 30
0.0
  0
LWPOLYLINE
  5
12f
100
AcDbEntity
  8
Camada_2
 62
7
100
AcDbPolyline
 90
1
 70
1
 10
44.947826
 20
386.431496
 30
0.0
  0
SPLINE
  5
130
100
AcDbEntity
  8
Camada_2
 62
7
100
AcDbSpline
 70
8
 71
3
 72
8
 73
4
 74
0
 40
0
 40
0
 40
0
 40
0
 40
1
 40
1
 40
1
 40
1
 10
104.012920
 20
372.280484
 30
0.0
 10
102.714807
 20
372.280484
 30
0.0
 10
101.544514
 20
371.498520
 30
0.0
 10
101.047748
 20
370.299219
 30
0.0
  0
SPLINE
  5
131
100
AcDbEntity
  8
Camada_2
 62
7
100
AcDbSpline
 70
8
 71
3
 72
8
 73
4
 74
0
 40
0
 40
0
 40
0
 40
0
 40
1
 40
1
 40
1
 40
1
 10
101.047748
 20
370.299219
 30
0.0
 10
100.550981
 20
369.099919
 30
0.0
 10
100.825571
 20
367.719465
 30
0.0
 10
101.743475
 20
366.801561
 30
0.0
  0
SPLINE
  5
132
100
AcDbEntity
  8
Camada_2
 62
7
100
AcDbSpline
 70
8
 71
3
 72
8
 73
4
 74
0
 40
0
 40
0
 40
0
 40
0
 40
1
 40
1
 40
1
 40
1
 10
101.743475
 20
366.801561
 30
0.0
 10
102.661380
 20
365.883656
 30
0.0
 10
104.041834
 20
365.609067
 30
0.0
 10
105.241135
 20
366.105833
 30
0.0
  0
SPLINE
  5
133
100
AcDbEntity
  8
Camada_2
 62
7
100
AcDbSpline
 70
8
 71
3
 72
8
 73
4
 74
0
 40
0
 40
0
 40
0
 40
0
 40
1
 40
1
 40
1
 40
1
 10
105.241135
 20
366.105833
 30
0.0
 10
106.440435
 20
366.602599
 30
0.0
 10
107.222399
 20
367.772892
 30
0.0
 10
107.222399
 20
369.071005
 30
0.0
  0
SPLINE
  5
134
100
AcDbEntity
  8
Camada_2
 62
7
100
AcDbSpline
 70
8
 71
3
 72
8
 73
4
 74
0
 40
0
 40
0
 40
0
 40
0
 40
1
 40
1
 40
1
 40
1
 10
107.222399
 20
369.071005
 30
0.0
 10
107.222399
 20
370.843551
 30
0.0
 10
105.785466
 20
372.280484
 30
0.0
 10
104.012920
 20
372.280484
 30
0.0
  0
SPLINE
  5
135
100
AcDbEntity
  8
Camada_2
 62
7
100
AcDbSpline
 70
8
 71
3
 72
8
 73
4
 74
0
 40
0
 40
0
 40
0
 40
0
 40
1
 40
1
 40
1
 40
1
 10
73.885323
 20
327.625811
 30
0.0
 10
70.368544
 20
327.625811
 30
0.0
 10
67.198050
 20
325.507355
 30
0.0
 10
65.852237
 20
322.258275
 30
0.0
  0
SPLINE
  5
136
100
AcDbEntity
  8
Camada_2
 62
7
100
AcDbSpline
 70
8
 71
3
 72
8
 73
4
 74
0
 40
0
 40
0
 40
0
 40
0
 40
1
 40
1
 40
1
 40
1
 10
65.852237
 20
322.258275
 30
0.0
 10
64.506424
 20
319.009195
 30
0.0
 10
65.250327
 20
315.269343
 30
0.0
 10
67.737065
 20
312.782604
 30
0.0
  0
SPLINE
  5
137
100
AcDbEntity
  8
Camada_2
 62
7
100
AcDbSpline
 70
8
 71
3
 72
8
 73
4
 74
0
 40
0
 40
0
 40
0
 40
0
 40
1
 40
1
 40
1
 40
1
 10
67.737065
 20
312.782604
 30
0.0
 10
70.223804
 20
310.295866
 30
0.0
 10
73.963656
 20
309.551963
 30
0.0
 10
77.212736
 20
310.897776
 30
0.0
  0
SPLINE
  5
138
100
AcDbEntity
  8
Camada_2
 62
7
100
AcDbSpline
 70
8
 71
3
 72
8
 73
4
 74
0
 40
0
 40
0
 40
0
 40
0
 40
1
 40
1
 40
1
 40
1
 10
77.212736
 20
310.897776
 30
0.0
 10
80.461816
 20
312.243589
 30
0.0
 10
82.580272
 20
315.414083
 30
0.0
 10
82.580272
 20
318.930862
 30
0.0
  0
SPLINE
  5
139
100
AcDbEntity
  8
Camada_2
 62
7
100
AcDbSpline
 70
8
 71
3
 72
8
 73
4
 74
0
 40
0
 40
0
 40
0
 40
0
 40
1
 40
1
 40
1
 40
1
 10
82.580272
 20
318.930862
 30
0.0
 10
82.580272
 20
321.236906
 30
0.0
 10
81.664200
 20
323.448500
 30
0.0
 10
80.033581
 20
325.079120
 30
0.0
  0
SPLINE
  5
13a
100
AcDbEntity
  8
Camada_2
 62
7
100
AcDbSpline
 70
8
 71
3
 72
8
 73
4
 74
0
 40
0
 40
0
 40
0
 40
0
 40
1
 40
1
 40
1
 40
1
 10
80.033581
 20
325.079120
 30
0.0
 10
78.402961
 20
326.709739
 30
0.0
 10
76.191367
 20
327.625811
 30
0.0
 10
73.885323
 20
327.625811
 30
0.0
  0
LWPOLYLINE
  5
13b
100
AcDbEntity
  8
Camada_2
 62
7
100
AcDbPolyline
 90
2
 70
1
 10
104.012920
 20
372.280484
 30
0.0
 10
104.012920
 20
372.280484
 30
0.0
  0
SPLINE
  5
13c
100
AcDbEntity
  8
Camada_2
 62
7
100
AcDbSpline
 70
8
 71
3
 72
8
 73
4
 74
0
 40
0
 40
0
 40
0
 40
0
 40
1
 40
1
 40
1
 40
1
 10
50.609852
 20
367.650916
 30
0.0
 10
45.807764
 20
367.650916
 30
0.0
 10
41.914903
 20
363.758055
 30
0.0
 10
41.914903
 20
358.955967
 30
0.0
  0
SPLINE
  5
13d
100
AcDbEntity
  8
Camada_2
 62
7
100
AcDbSpline
 70
8
 71
3
 72
8
 73
4
 74
0
 40
0
 40
0
 40
0
 40
0
 40
1
 40
1
 40
1
 40
1
 10
41.914903
 20
358.955967
 30
0.0
 10
41.914903
 20
354.153879
 30
0.0
 10
45.807764
 20
350.261018
 30
0.0
 10
50.609852
 20
350.261018
 30
0.0
  0
SPLINE
  5
13e
100
AcDbEntity
  8
Camada_2
 62
7
100
AcDbSpline
 70
8
 71
3
 72
8
 73
4
 74
0
 40
0
 40
0
 40
0
 40
0
 40
1
 40
1
 40
1
 40
1
 10
50.609852
 20
350.261018
 30
0.0
 10
55.411940
 20
350.261018
 30
0.0
 10
59.304801
 20
354.153879
 30
0.0
 10
59.304801
 20
358.955967
 30
0.0
  0
SPLINE
  5
13f
100
AcDbEntity
  8
Camada_2
 62
7
100
AcDbSpline
 70
8
 71
3
 72
8
 73
4
 74
0
 40
0
 40
0
 40
0
 40
0
 40
1
 40
1
 40
1
 40
1
 10
59.304801
 20
358.955967
 30
0.0
 10
59.304801
 20
361.262011
 30
0.0
 10
58.388729
 20
363.473605
 30
0.0
 10
56.758110
 20
365.104225
 30
0.0
  0
SPLINE
  5
140
100
AcDbEntity
  8
Camada_2
 62
7
100
AcDbSpline
 70
8
 71
3
 72
8
 73
4
 74
0
 40
0
 40
0
 40
0
 40
0
 40
1
 40
1
 40
1
 40
1
 10
56.758110
 20
365.104225
 30
0.0
 10
55.127490
 20
366.734844
 30
0.0
 10
52.915896
 20
367.650916
 30
0.0
 10
50.609852
 20
367.650916
 30
0.0
  0
LWPOLYLINE
  5
141
100
AcDbEntity
  8
Camada_2
 62
7
100
AcDbPolyline
 90
1
 70
1
 10
73.885323
 20
327.625811
 30
0.0
  0
SPLINE
  5
142
100
AcDbEntity
  8
Camada_2
 62
7
100
AcDbSpline
 70
8
 71
3
 72
8
 73
4
 74
0
 40
0
 40
0
 40
0
 40
0
 40
1
 40
1
 40
1
 40
1
 10
153.540176
 20
294.840953
 30
0.0
 10
152.723301
 20
295.444711
 30
0.0
 10
151.921229
 20
296.149442
 30
0.0
 10
151.086715
 20
296.983956
 30
0.0
  0
SPLINE
  5
143
100
AcDbEntity
  8
Camada_2
 62
7
100
AcDbSpline
 70
8
 71
3
 72
8
 73
4
 74
0
 40
0
 40
0
 40
0
 40
0
 40
1
 40
1
 40
1
 40
1
 10
151.086715
 20
296.983956
 30
0.0
 10
148.511435
 20
299.559235
 30
0.0
 10
147.453101
 20
301.217256
 30
0.0
 10
146.324212
 20
304.533370
 30
0.0
  0
SPLINE
  5
144
100
AcDbEntity
  8
Camada_2
 62
7
100
AcDbSpline
 70
8
 71
3
 72
8
 73
4
 74
0
 40
0
 40
0
 40
0
 40
0
 40
1
 40
1
 40
1
 40
1
 10
146.324212
 20
304.533370
 30
0.0
 10
144.172266
 20
310.777540
 30
0.0
 10
145.830735
 20
318.115217
 30
0.0
 10
150.452127
 20
322.948275
 30
0.0
  0
SPLINE
  5
145
100
AcDbEntity
  8
Camada_2
 62
7
100
AcDbSpline
 70
8
 71
3
 72
8
 73
4
 74
0
 40
0
 40
0
 40
0
 40
0
 40
1
 40
1
 40
1
 40
1
 10
150.452127
 20
322.948275
 30
0.0
 10
154.226852
 20
326.899389
 30
0.0
 10
157.648418
 20
328.451302
 30
0.0
 10
163.645644
 20
328.980469
 30
0.0
  0
SPLINE
  5
146
100
AcDbEntity
  8
Camada_2
 62
7
100
AcDbSpline
 70
8
 71
3
 72
8
 73
4
 74
0
 40
0
 40
0
 40
0
 40
0
 40
1
 40
1
 40
1
 40
1
 10
163.645644
 20
328.980469
 30
0.0
 10
165.691756
 20
329.156858
 30
0.0
 10
168.231930
 20
329.545086
 30
0.0
 10
169.290264
 20
329.862587
 30
0.0
  0
SPLINE
  5
147
100
AcDbEntity
  8
Camada_2
 62
7
100
AcDbSpline
 70
8
 71
3
 72
8
 73
4
 74
0
 40
0
 40
0
 40
0
 40
0
 40
1
 40
1
 40
1
 40
1
 10
169.290264
 20
329.862587
 30
0.0
 10
177.792214
 20
332.296755
 30
0.0
 10
183.471835
 20
340.269502
 30
0.0
 10
182.942668
 20
349.053674
 30
0.0
  0
SPLINE
  5
148
100
AcDbEntity
  8
Camada_2
 62
7
100
AcDbSpline
 70
8
 71
3
 72
8
 73
4
 74
0
 40
0
 40
0
 40
0
 40
0
 40
1
 40
1
 40
1
 40
1
 10
182.942668
 20
349.053674
 30
0.0
 10
182.519335
 20
356.638401
 30
0.0
 10
177.792145
 20
362.953195
 30
0.0
 10
170.630751
 20
365.704863
 30
0.0
  0
SPLINE
  5
149
100
AcDbEntity
  8
Camada_2
 62
7
100
AcDbSpline
 70
8
 71
3
 72
8
 73
4
 74
0
 40
0
 40
0
 40
0
 40
0
 40
1
 40
1
 40
1
 40
1
 10
170.630751
 20
365.704863
 30
0.0
 10
169.306354
 20
366.211251
 30
0.0
 10
167.723775
 20
366.535070
 30
0.0
 10
165.895121
 20
366.675863
 30
0.0
  0
SPLINE
  5
14a
100
AcDbEntity
  8
Camada_2
 62
7
100
AcDbSpline
 70
8
 71
3
 72
8
 73
4
 74
0
 40
0
 40
0
 40
0
 40
0
 40
1
 40
1
 40
1
 40
1
 10
165.895121
 20
366.675863
 30
0.0
 10
166.750034
 20
368.151636
 30
0.0
 10
167.200313
 20
369.826905
 30
0.0
 10
167.200468
 20
371.532420
 30
0.0
  0
SPLINE
  5
14b
100
AcDbEntity
  8
Camada_2
 62
7
100
AcDbSpline
 70
8
 71
3
 72
8
 73
4
 74
0
 40
0
 40
0
 40
0
 40
0
 40
1
 40
1
 40
1
 40
1
 10
167.200468
 20
371.532420
 30
0.0
 10
167.200457
 20
376.884260
 30
0.0
 10
162.861936
 20
381.222777
 30
0.0
 10
157.510098
 20
381.222788
 30
0.0
  0
SPLINE
  5
14c
100
AcDbEntity
  8
Camada_2
 62
7
100
AcDbSpline
 70
8
 71
3
 72
8
 73
4
 74
0
 40
0
 40
0
 40
0
 40
0
 40
1
 40
1
 40
1
 40
1
 10
157.510098
 20
381.222788
 30
0.0
 10
152.158260
 20
381.222777
 30
0.0
 10
147.819740
 20
376.884257
 30
0.0
 10
147.819729
 20
371.532420
 30
0.0
  0
SPLINE
  5
14d
100
AcDbEntity
  8
Camada_2
 62
7
100
AcDbSpline
 70
8
 71
3
 72
8
 73
4
 74
0
 40
0
 40
0
 40
0
 40
0
 40
1
 40
1
 40
1
 40
1
 10
147.819729
 20
371.532420
 30
0.0
 10
147.819726
 20
368.837133
 30
0.0
 10
148.942265
 20
366.263614
 30
0.0
 10
150.917731
 20
364.430005
 30
0.0
  0
SPLINE
  5
14e
100
AcDbEntity
  8
Camada_2
 62
7
100
AcDbSpline
 70
8
 71
3
 72
8
 73
4
 74
0
 40
0
 40
0
 40
0
 40
0
 40
1
 40
1
 40
1
 40
1
 10
150.917731
 20
364.430005
 30
0.0
 10
137.707073
 20
359.410693
 30
0.0
 10
127.726302
 20
346.804821
 30
0.0
 10
126.674752
 20
332.367346
 30
0.0
  0
SPLINE
  5
14f
100
AcDbEntity
  8
Camada_2
 62
7
100
AcDbSpline
 70
8
 71
3
 72
8
 73
4
 74
0
 40
0
 40
0
 40
0
 40
0
 40
1
 40
1
 40
1
 40
1
 10
126.674752
 20
332.367346
 30
0.0
 10
126.004474
 20
323.371507
 30
0.0
 10
128.050382
 20
315.398932
 30
0.0
 10
132.812885
 20
308.237539
 30
0.0
  0
SPLINE
  5
150
100
AcDbEntity
  8
Camada_2
 62
7
100
AcDbSpline
 70
8
 71
3
 72
8
 73
4
 74
0
 40
0
 40
0
 40
0
 40
0
 40
1
 40
1
 40
1
 40
1
 10
132.812885
 20
308.237539
 30
0.0
 10
137.473611
 20
301.260239
 30
0.0
 10
144.893909
 20
295.748820
 30
0.0
 10
152.697397
 20
293.186636
 30
0.0
  0
SPLINE
  5
151
100
AcDbEntity
  8
Camada_2
 62
7
100
AcDbSpline
 70
8
 71
3
 72
8
 73
4
 74
0
 40
0
 40
0
 40
0
 40
0
 40
1
 40
1
 40
1
 40
1
 10
152.697397
 20
293.186636
 30
0.0
 10
153.632001
 20
293.386093
 30
0.0
 10
153.938537
 20
293.923744
 30
0.0
 10
153.540176
 20
294.840953
 30
0.0
  0
SPLINE
  5
152
100
AcDbEntity
  8
Camada_2
 62
7
100
AcDbSpline
 70
8
 71
3
 72
8
 73
4
 74
0
 40
0
 40
0
 40
0
 40
0
 40
1
 40
1
 40
1
 40
1
 10
195.438830
 20
364.075474
 30
0.0
 10
197.510570
 20
363.084236
 30
0.0
 10
199.180310
 20
361.779353
 30
0.0
 10
200.986550
 20
359.797000
 30
0.0
  0
SPLINE
  5
153
100
AcDbEntity
  8
Camada_2
 62
7
100
AcDbSpline
 70
8
 71
3
 72
8
 73
4
 74
0
 40
0
 40
0
 40
0
 40
0
 40
1
 40
1
 40
1
 40
1
 10
200.986550
 20
359.797000
 30
0.0
 10
203.439460
 20
357.104913
 30
0.0
 10
204.419830
 20
355.399123
 30
0.0
 10
205.393510
 20
352.034166
 30
0.0
  0
SPLINE
  5
154
100
AcDbEntity
  8
Camada_2
 62
7
100
AcDbSpline
 70
8
 71
3
 72
8
 73
4
 74
0
 40
0
 40
0
 40
0
 40
0
 40
1
 40
1
 40
1
 40
1
 10
205.393510
 20
352.034166
 30
0.0
 10
207.253170
 20
345.696802
 30
0.0
 10
205.256360
 20
338.444378
 30
0.0
 10
200.415520
 20
333.831143
 30
0.0
  0
SPLINE
  5
155
100
AcDbEntity
  8
Camada_2
 62
7
100
AcDbSpline
 70
8
 71
3
 72
8
 73
4
 74
0
 40
0
 40
0
 40
0
 40
0
 40
1
 40
1
 40
1
 40
1
 10
200.415520
 20
333.831143
 30
0.0
 10
196.461390
 20
330.059583
 30
0.0
 10
192.971200
 20
328.667621
 30
0.0
 10
186.955880
 20
328.417520
 30
0.0
  0
SPLINE
  5
156
100
AcDbEntity
  8
Camada_2
 62
7
100
AcDbSpline
 70
8
 71
3
 72
8
 73
4
 74
0
 40
0
 40
0
 40
0
 40
0
 40
1
 40
1
 40
1
 40
1
 10
186.955880
 20
328.417520
 30
0.0
 10
184.903780
 20
328.336350
 30
0.0
 10
182.348570
 20
328.066965
 30
0.0
 10
181.276640
 20
327.798953
 30
0.0
  0
SPLINE
  5
157
100
AcDbEntity
  8
Camada_2
 62
7
100
AcDbSpline
 70
8
 71
3
 72
8
 73
4
 74
0
 40
0
 40
0
 40
0
 40
0
 40
1
 40
1
 40
1
 40
1
 10
181.276640
 20
327.798953
 30
0.0
 10
172.670820
 20
325.762221
 30
0.0
 10
166.627130
 20
318.061884
 30
0.0
 10
166.747810
 20
309.262617
 30
0.0
  0
SPLINE
  5
158
100
AcDbEntity
  8
Camada_2
 62
7
100
AcDbSpline
 70
8
 71
3
 72
8
 73
4
 74
0
 40
0
 40
0
 40
0
 40
0
 40
1
 40
1
 40
1
 40
1
 10
166.747810
 20
309.262617
 30
0.0
 10
166.818510
 20
301.666418
 30
0.0
 10
171.247320
 20
295.138720
 30
0.0
 10
178.273200
 20
292.057470
 30
0.0
  0
SPLINE
  5
159
100
AcDbEntity
  8
Camada_2
 62
7
100
AcDbSpline
 70
8
 71
3
 72
8
 73
4
 74
0
 40
0
 40
0
 40
0
 40
0
 40
1
 40
1
 40
1
 40
1
 10
178.273200
 20
292.057470
 30
0.0
 10
180.038490
 20
291.286750
 30
0.0
 10
182.295020
 20
290.830750
 30
0.0
 10
185.013360
 20
290.691140
 30
0.0
  0
SPLINE
  5
15a
100
AcDbEntity
  8
Camada_2
 62
7
100
AcDbSpline
 70
8
 71
3
 72
8
 73
4
 74
0
 40
0
 40
0
 40
0
 40
0
 40
1
 40
1
 40
1
 40
1
 10
185.013360
 20
290.691140
 30
0.0
 10
185.919480
 20
290.644640
 30
0.0
 10
186.876900
 20
290.633240
 30
0.0
 10
187.884500
 20
290.657040
 30
0.0
  0
SPLINE
  5
15b
100
AcDbEntity
  8
Camada_2
 62
7
100
AcDbSpline
 70
8
 71
3
 72
8
 73
4
 74
0
 40
0
 40
0
 40
0
 40
0
 40
1
 40
1
 40
1
 40
1
 10
187.884500
 20
290.657040
 30
0.0
 10
205.845260
 20
291.093460
 30
0.0
 10
221.593770
 20
305.476928
 30
0.0
 10
223.729860
 20
323.318097
 30
0.0
  0
SPLINE
  5
15c
100
AcDbEntity
  8
Camada_2
 62
7
100
AcDbSpline
 70
8
 71
3
 72
8
 73
4
 74
0
 40
0
 40
0
 40
0
 40
0
 40
1
 40
1
 40
1
 40
1
 10
223.729860
 20
323.318097
 30
0.0
 10
224.817160
 20
332.273097
 30
0.0
 10
223.143630
 20
340.331966
 30
0.0
 10
218.718800
 20
347.706789
 30
0.0
  0
SPLINE
  5
15d
100
AcDbEntity
  8
Camada_2
 62
7
100
AcDbSpline
 70
8
 71
3
 72
8
 73
4
 74
0
 40
0
 40
0
 40
0
 40
0
 40
1
 40
1
 40
1
 40
1
 10
218.718800
 20
347.706789
 30
0.0
 10
218.534720
 20
348.012167
 30
0.0
 10
218.345490
 20
348.314830
 30
0.0
 10
218.151390
 20
348.615260
 30
0.0
  0
SPLINE
  5
15e
100
AcDbEntity
  8
Camada_2
 62
7
100
AcDbSpline
 70
8
 71
3
 72
8
 73
4
 74
0
 40
0
 40
0
 40
0
 40
0
 40
1
 40
1
 40
1
 40
1
 10
218.151390
 20
348.615260
 30
0.0
 10
222.326720
 20
349.807682
 30
0.0
 10
225.205450
 20
353.623847
 30
0.0
 10
225.205220
 20
357.966111
 30
0.0
  0
SPLINE
  5
15f
100
AcDbEntity
  8
Camada_2
 62
7
100
AcDbSpline
 70
8
 71
3
 72
8
 73
4
 74
0
 40
0
 40
0
 40
0
 40
0
 40
1
 40
1
 40
1
 40
1
 10
225.205220
 20
357.966111
 30
0.0
 10
225.205100
 20
363.336452
 30
0.0
 10
220.851610
 20
367.689944
 30
0.0
 10
215.481270
 20
367.690065
 30
0.0
  0
LWPOLYLINE
  5
160
100
AcDbEntity
  8
Camada_2
 62
7
100
AcDbPolyline
 90
1
 70
1
 10
50.609852
 20
367.650916
 30
0.0
  0
SPLINE
  5
161
100
AcDbEntity
  8
Camada_2
 62
7
100
AcDbSpline
 70
8
 71
3
 72
8
 73
4
 74
0
 40
0
 40
0
 40
0
 40
0
 40
1
 40
1
 40
1
 40
1
 10
215.481270
 20
367.690068
 30
0.0
 10
211.051480
 20
367.690027
 30
0.0
 10
207.181560
 20
364.696121
 30
0.0
 10
206.068920
 20
360.408342
 30
0.0
  0
SPLINE
  5
162
100
AcDbEntity
  8
Camada_2
 62
7
100
AcDbSpline
 70
8
 71
3
 72
8
 73
4
 74
0
 40
0
 40
0
 40
0
 40
0
 40
1
 40
1
 40
1
 40
1
 10
206.068920
 20
360.408342
 30
0.0
 10
202.808840
 20
362.448270
 30
0.0
 10
199.302900
 20
363.979713
 30
0.0
 10
195.767450
 20
364.853658
 30
0.0
  0
SPLINE
  5
163
100
AcDbEntity
  8
Camada_2
 62
7
100
AcDbSpline
 70
8
 71
3
 72
8
 73
4
 74
0
 40
0
 40
0
 40
0
 40
0
 40
1
 40
1
 40
1
 40
1
 10
195.767450
 20
364.853658
 30
0.0
 10
195.542270
 20
364.941178
 30
0.0
 10
195.522350
 20
364.412942
 30
0.0
 10
195.438830
 20
364.075484
 30
0.0
  0
SPLINE
  5
164
100
AcDbEntity
  8
Camada_2
 62
7
100
AcDbSpline
 70
8
 71
3
 72
8
 73
4
 74
0
 40
0
 40
0
 40
0
 40
0
 40
1
 40
1
 40
1
 40
1
 10
195.438830
 20
364.075484
 30
0.0
 10
194.714050
 20
364.835470
 30
0.0
 10
195.581520
 20
364.640100
 30
0.0
 10
195.767450
 20
364.853658
 30
0.0
  0
LWPOLYLINE
  5
165
100
AcDbEntity
  8
Camada_2
 62
7
100
AcDbPolyline
 90
1
 70
1
 10
215.481270
 20
367.690065
 30
0.0
  0
SPLINE
  5
166
100
AcDbEntity
  8
Camada_2
 62
7
100
AcDbSpline
 70
8
 71
3
 72
8
 73
4
 74
0
 40
0
 40
0
 40
0
 40
0
 40
1
 40
1
 40
1
 40
1
 10
157.209560
 20
376.268008
 30
0.0
 10
155.911447
 20
376.268008
 30
0.0
 10
154.741154
 20
375.486044
 30
0.0
 10
154.244388
 20
374.286743
 30
0.0
  0
SPLINE
  5
167
100
AcDbEntity
  8
Camada_2
 62
7
100
AcDbSpline
 70
8
 71
3
 72
8
 73
4
 74
0
 40
0
 40
0
 40
0
 40
0
 40
1
 40
1
 40
1
 40
1
 10
154.244388
 20
374.286743
 30
0.0
 10
153.747621
 20
373.087443
 30
0.0
 10
154.022211
 20
371.706989
 30
0.0
 10
154.940115
 20
370.789085
 30
0.0
  0
SPLINE
  5
168
100
AcDbEntity
  8
Camada_2
 62
7
100
AcDbSpline
 70
8
 71
3
 72
8
 73
4
 74
0
 40
0
 40
0
 40
0
 40
0
 40
1
 40
1
 40
1
 40
1
 10
154.940115
 20
370.789085
 30
0.0
 10
155.858020
 20
369.871180
 30
0.0
 10
157.238474
 20
369.596591
 30
0.0
 10
158.437775
 20
370.093357
 30
0.0
  0
SPLINE
  5
169
100
AcDbEntity
  8
Camada_2
 62
7
100
AcDbSpline
 70
8
 71
3
 72
8
 73
4
 74
0
 40
0
 40
0
 40
0
 40
0
 40
1
 40
1
 40
1
 40
1
 10
158.437775
 20
370.093357
 30
0.0
 10
159.637075
 20
370.590123
 30
0.0
 10
160.419039
 20
371.760416
 30
0.0
 10
160.419039
 20
373.058529
 30
0.0
  0
SPLINE
  5
16a
100
AcDbEntity
  8
Camada_2
 62
7
100
AcDbSpline
 70
8
 71
3
 72
8
 73
4
 74
0
 40
0
 40
0
 40
0
 40
0
 40
1
 40
1
 40
1
 40
1
 10
160.419039
 20
373.058529
 30
0.0
 10
160.419039
 20
373.909736
 30
0.0
 10
160.080899
 20
374.726079
 30
0.0
 10
159.479005
 20
375.327973
 30
0.0
  0
SPLINE
  5
16b
100
AcDbEntity
  8
Camada_2
 62
7
100
AcDbSpline
 70
8
 71
3
 72
8
 73
4
 74
0
 40
0
 40
0
 40
0
 40
0
 40
1
 40
1
 40
1
 40
1
 10
159.479005
 20
375.327973
 30
0.0
 10
158.877110
 20
375.929868
 30
0.0
 10
158.060767
 20
376.268008
 30
0.0
 10
157.209560
 20
376.268008
 30
0.0
  0
LWPOLYLINE
  5
16c
100
AcDbEntity
  8
Camada_2
 62
7
100
AcDbPolyline
 90
1
 70
1
 10
195.767450
 20
364.853658
 30
0.0
  0
SPLINE
  5
16d
100
AcDbEntity
  8
Camada_2
 62
7
100
AcDbSpline
 70
8
 71
3
 72
8
 73
4
 74
0
 40
0
 40
0
 40
0
 40
0
 40
1
 40
1
 40
1
 40
1
 10
216.274660
 20
362.116995
 30
0.0
 10
214.976547
 20
362.116995
 30
0.0
 10
213.806254
 20
361.335031
 30
0.0
 10
213.309488
 20
360.135730
 30
0.0
  0
SPLINE
  5
16e
100
AcDbEntity
  8
Camada_2
 62
7
100
AcDbSpline
 70
8
 71
3
 72
8
 73
4
 74
0
 40
0
 40
0
 40
0
 40
0
 40
1
 40
1
 40
1
 40
1
 10
213.309488
 20
360.135730
 30
0.0
 10
212.812721
 20
358.936430
 30
0.0
 10
213.087311
 20
357.555976
 30
0.0
 10
214.005215
 20
356.638072
 30
0.0
  0
SPLINE
  5
16f
100
AcDbEntity
  8
Camada_2
 62
7
100
AcDbSpline
 70
8
 71
3
 72
8
 73
4
 74
0
 40
0
 40
0
 40
0
 40
0
 40
1
 40
1
 40
1
 40
1
 10
214.005215
 20
356.638072
 30
0.0
 10
214.923120
 20
355.720167
 30
0.0
 10
216.303574
 20
355.445578
 30
0.0
 10
217.502875
 20
355.942344
 30
0.0
  0
SPLINE
  5
170
100
AcDbEntity
  8
Camada_2
 62
7
100
AcDbSpline
 70
8
 71
3
 72
8
 73
4
 74
0
 40
0
 40
0
 40
0
 40
0
 40
1
 40
1
 40
1
 40
1
 10
217.502875
 20
355.942344
 30
0.0
 10
218.702175
 20
356.439110
 30
0.0
 10
219.484139
 20
357.609403
 30
0.0
 10
219.484139
 20
358.907516
 30
0.0
  0
SPLINE
  5
171
100
AcDbEntity
  8
Camada_2
 62
7
100
AcDbSpline
 70
8
 71
3
 72
8
 73
4
 74
0
 40
0
 40
0
 40
0
 40
0
 40
1
 40
1
 40
1
 40
1
 10
219.484139
 20
358.907516
 30
0.0
 10
219.484139
 20
359.758723
 30
0.0
 10
219.145999
 20
360.575066
 30
0.0
 10
218.544105
 20
361.176960
 30
0.0
  0
SPLINE
  5
172
100
AcDbEntity
  8
Camada_2
 62
7
100
AcDbSpline
 70
8
 71
3
 72
8
 73
4
 74
0
 40
0
 40
0
 40
0
 40
0
 40
1
 40
1
 40
1
 40
1
 10
218.544105
 20
361.176960
 30
0.0
 10
217.942210
 20
361.778855
 30
0.0
 10
217.125867
 20
362.116995
 30
0.0
 10
216.274660
 20
362.116995
 30
0.0
  0
LWPOLYLINE
  5
173
100
AcDbEntity
  8
Camada_2
 62
7
100
AcDbPolyline
 90
1
 70
1
 10
157.209560
 20
376.268008
 30
0.0
  0
SPLINE
  5
174
100
AcDbEntity
  8
Camada_2
 62
7
100
AcDbSpline
 70
8
 71
3
 72
8
 73
4
 74
0
 40
0
 40
0
 40
0
 40
0
 40
1
 40
1
 40
1
 40
1
 10
216.274660
 20
362.116995
 30
0.0
 10
214.976547
 20
362.116995
 30
0.0
 10
213.806254
 20
361.335031
 30
0.0
 10
213.309488
 20
360.135730
 30
0.0
  0
SPLINE
  5
175
100
AcDbEntity
  8
Camada_2
 62
7
100
AcDbSpline
 70
8
 71
3
 72
8
 73
4
 74
0
 40
0
 40
0
 40
0
 40
0
 40
1
 40
1
 40
1
 40
1
 10
213.309488
 20
360.135730
 30
0.0
 10
212.812721
 20
358.936430
 30
0.0
 10
213.087311
 20
357.555976
 30
0.0
 10
214.005215
 20
356.638072
 30
0.0
  0
SPLINE
  5
176
100
AcDbEntity
  8
Camada_2
 62
7
100
AcDbSpline
 70
8
 71
3
 72
8
 73
4
 74
0
 40
0
 40
0
 40
0
 40
0
 40
1
 40
1
 40
1
 40
1
 10
214.005215
 20
356.638072
 30
0.0
 10
214.923120
 20
355.720167
 30
0.0
 10
216.303574
 20
355.445578
 30
0.0
 10
217.502875
 20
355.942344
 30
0.0
  0
SPLINE
  5
177
100
AcDbEntity
  8
Camada_2
 62
7
100
AcDbSpline
 70
8
 71
3
 72
8
 73
4
 74
0
 40
0
 40
0
 40
0
 40
0
 40
1
 40
1
 40
1
 40
1
 10
217.502875
 20
355.942344
 30
0.0
 10
218.702175
 20
356.439110
 30
0.0
 10
219.484139
 20
357.609403
 30
0.0
 10
219.484139
 20
358.907516
 30
0.0
  0
SPLINE
  5
178
100
AcDbEntity
  8
Camada_2
 62
7
100
AcDbSpline
 70
8
 71
3
 72
8
 73
4
 74
0
 40
0
 40
0
 40
0
 40
0
 40
1
 40
1
 40
1
 40
1
 10
219.484139
 20
358.907516
 30
0.0
 10
219.484139
 20
359.758723
 30
0.0
 10
219.145999
 20
360.575066
 30
0.0
 10
218.544105
 20
361.176960
 30
0.0
  0
SPLINE
  5
179
100
AcDbEntity
  8
Camada_2
 62
7
100
AcDbSpline
 70
8
 71
3
 72
8
 73
4
 74
0
 40
0
 40
0
 40
0
 40
0
 40
1
 40
1
 40
1
 40
1
 10
218.544105
 20
361.176960
 30
0.0
 10
217.942210
 20
361.778855
 30
0.0
 10
217.125867
 20
362.116995
 30
0.0
 10
216.274660
 20
362.116995
 30
0.0
  0
LWPOLYLINE
  5
17a
100
AcDbEntity
  8
Camada_2
 62
7
100
AcDbPolyline
 90
2
 70
1
 10
216.274660
 20
362.116995
 30
0.0
 10
216.274660
 20
362.116995
 30
0.0
  0
ENDSEC
  0
SECTION
  2
OBJECTS
  0
DICTIONARY
  5
C
330
0
100
AcDbDictionary
  3
ACAD_GROUP
350
D
  3
ACAD_MLINESTYLE
350
17
  0
DICTIONARY
  5
D
330
C
100
AcDbDictionary
  0
DICTIONARY
  5
1A
330
C
100
AcDbDictionary
  0
DICTIONARY
  5
17
330
C
100
AcDbDictionary
  3
STANDARD
350
18
  0
DICTIONARY
  5
19
330
C
100
AcDbDictionary
  0
ENDSEC
  0
EOF
