  0
SECTION
  2
HEADER
  9
$ACADVER
  1
AC1014
  9
$HANDSEED
  5
FFFF
  9
$INSUNITS
 70
     4
  9
$MEASUREMENT
 70
     1
  0
ENDSEC
  0
SECTION
  2
TABLES
  0
TABLE
  2
VPORT
  5
8
330
0
100
AcDbSymbolTable
 70
     4
  0
VPORT
  5
2E
330
8
100
AcDbSymbolTableRecord
100
AcDbViewportTableRecord
  2
*ACTIVE
 70
     0
 10
0.0
 20
0.0
 11
1.0
 21
1.0
 12
210.0
 22
148.5
 13
0.0
 23
0.0
 14
10.0
 24
10.0
 15
10.0
 25
10.0
 16
0.0
 26
0.0
 36
1.0
 17
0.0
 27
0.0
 37
0.0
 40
341.0
 41
1.24
 42
50.0
 43
0.0
 44
0.0
 50
0.0
 51
0.0
 71
     0
 72
   100
 73
     1
 74
     3
 75
     0
 76
     0
 77
     0
 78
     0
  0
ENDTAB
  0
TABLE
  2
LTYPE
  5
5
330
0
100
AcDbSymbolTable
 70
     1
  0
LTYPE
  5
14
330
5
100
AcDbSymbolTableRecord
100
AcDbLinetypeTableRecord
  2
BYBLOCK
 70
     0
  3

 72
    65
 73
     0
 40
0.0
  0
LTYPE
  5
15
330
5
100
AcDbSymbolTableRecord
100
AcDbLinetypeTableRecord
  2
BYLAYER
 70
     0
  3

 72
    65
 73
     0
 40
0.0
  0
LTYPE
  5
16
330
5
100
AcDbSymbolTableRecord
100
AcDbLinetypeTableRecord
  2
CONTINUOUS
 70
     0
  3
Solid line
 72
    65
 73
     0
 40
0.0
  0
ENDTAB
  0
TABLE
  2
LAYER
  5
2
100
AcDbSymbolTable
 70
5
  0
LAYER
  5
50
100
AcDbSymbolTableRecord
100
AcDbLayerTableRecord
  2
0
 70
0
  6
CONTINUOUS
  0
LAYER
  5
51
100
AcDbSymbolTableRecord
100
AcDbLayerTableRecord
  2
Camada_1
 70
0
  6
CONTINUOUS
  0
LAYER
  5
52
100
AcDbSymbolTableRecord
100
AcDbLayerTableRecord
  2
Layer_1
 70
0
  6
CONTINUOUS
  0
LAYER
  5
53
100
AcDbSymbolTableRecord
100
AcDbLayerTableRecord
  2
Layer_2
 70
0
  6
CONTINUOUS
  0
LAYER
  5
54
100
AcDbSymbolTableRecord
100
AcDbLayerTableRecord
  2
Camada_2
 70
0
  6
CONTINUOUS
  0
ENDTAB
  0
TABLE
  2
STYLE
  5
3
330
0
100
AcDbSymbolTable
 70
     1
  0
STYLE
  5
11
330
3
100
AcDbSymbolTableRecord
100
AcDbTextStyleTableRecord
  2
STANDARD
 70
     0
 40
0.0
 41
1.0
 50
0.0
 71
     0
 42
2.5
  3
txt
  4

  0
ENDTAB
  0
TABLE
  2
VIEW
  5
6
330
0
100
AcDbSymbolTable
 70
     0
  0
ENDTAB
  0
TABLE
  2
UCS
  5
7
330
0
100
AcDbSymbolTable
 70
     0
  0
ENDTAB
  0
TABLE
  2
APPID
  5
9
330
0
100
AcDbSymbolTable
 70
     2
  0
APPID
  5
12
330
9
100
AcDbSymbolTableRecord
100
AcDbRegAppTableRecord
  2
ACAD
 70
     0
  0
ENDTAB
  0
TABLE
  2
DIMSTYLE
  5
A
330
0
100
AcDbSymbolTable
 70
     1
  0
DIMSTYLE
105
27
330
A
100
AcDbSymbolTableRecord
100
AcDbDimStyleTableRecord
  2
ISO-25
 70
     0
  3

  4

  5

  6

  7

 40
1.0
 41
2.5
 42
0.625
 43
3.75
 44
1.25
 45
0.0
 46
0.0
 47
0.0
 48
0.0
140
2.5
141
2.5
142
0.0
143
0.03937007874016
144
1.0
145
0.0
146
1.0
147
0.625
 71
     0
 72
     0
 73
     0
 74
     0
 75
     0
 76
     0
 77
     1
 78
     8
170
     0
171
     3
172
     1
173
     0
174
     0
175
     0
176
     0
177
     0
178
     0
270
     2
271
     2
272
     2
273
     2
274
     3
340
11
275
     0
280
     0
281
     0
282
     0
283
     0
284
     8
285
     0
286
     0
287
     3
288
     0
  0
ENDTAB
  0
TABLE
  2
BLOCK_RECORD
  5
1
330
0
100
AcDbSymbolTable
 70
     1
  0
BLOCK_RECORD
  5
1F
330
1
100
AcDbSymbolTableRecord
100
AcDbBlockTableRecord
  2
*MODEL_SPACE
  0
BLOCK_RECORD
  5
1B
330
1
100
AcDbSymbolTableRecord
100
AcDbBlockTableRecord
  2
*PAPER_SPACE
  0
ENDTAB
  0
ENDSEC
  0
SECTION
  2
BLOCKS
  0
BLOCK
  5
20
330
1F
100
AcDbEntity
  8
0
100
AcDbBlockBegin
  2
*MODEL_SPACE
 70
     0
 10
0.0
 20
0.0
 30
0.0
  3
*MODEL_SPACE
  1

  0
ENDBLK
  5
21
330
1F
100
AcDbEntity
  8
0
100
AcDbBlockEnd
  0
BLOCK
  5
1C
330
1B
100
AcDbEntity
 67
     1
  8
0
100
AcDbBlockBegin
  2
*PAPER_SPACE
  1

  0
ENDBLK
  5
1D
330
1B
100
AcDbEntity
 67
     1
  8
0
100
AcDbBlockEnd
  0
ENDSEC
  0
SECTION
  2
ENTITIES
  0
SPLINE
  5
100
100
AcDbEntity
  8
Camada_1
 62
7
100
AcDbSpline
 70
8
 71
3
 72
8
 73
4
 74
0
 40
0
 40
0
 40
0
 40
0
 40
1
 40
1
 40
1
 40
1
 10
45.248398
 20
391.385788
 30
0.0
 10
39.896560
 20
391.385777
 30
0.0
 10
35.558040
 20
387.047257
 30
0.0
 10
35.558029
 20
381.695420
 30
0.0
  0
SPLINE
  5
101
100
AcDbEntity
  8
Camada_1
 62
7
100
AcDbSpline
 70
8
 71
3
 72
8
 73
4
 74
0
 40
0
 40
0
 40
0
 40
0
 40
1
 40
1
 40
1
 40
1
 10
35.558029
 20
381.695420
 30
0.0
 10
35.558026
 20
379.000133
 30
0.0
 10
36.680565
 20
376.426614
 30
0.0
 10
38.656031
 20
374.593005
 30
0.0
  0
SPLINE
  5
102
100
AcDbEntity
  8
Camada_1
 62
7
100
AcDbSpline
 70
8
 71
3
 72
8
 73
4
 74
0
 40
0
 40
0
 40
0
 40
0
 40
1
 40
1
 40
1
 40
1
 10
38.656031
 20
374.593005
 30
0.0
 10
25.445373
 20
369.573693
 30
0.0
 10
15.464602
 20
356.967821
 30
0.0
 10
14.413052
 20
342.530346
 30
0.0
  0
SPLINE
  5
103
100
AcDbEntity
  8
Camada_1
 62
7
100
AcDbSpline
 70
8
 71
3
 72
8
 73
4
 74
0
 40
0
 40
0
 40
0
 40
0
 40
1
 40
1
 40
1
 40
1
 10
14.413052
 20
342.530346
 30
0.0
 10
13.742774
 20
333.534507
 30
0.0
 10
15.788682
 20
325.561932
 30
0.0
 10
20.551185
 20
318.400539
 30
0.0
  0
SPLINE
  5
104
100
AcDbEntity
  8
Camada_1
 62
7
100
AcDbSpline
 70
8
 71
3
 72
8
 73
4
 74
0
 40
0
 40
0
 40
0
 40
0
 40
1
 40
1
 40
1
 40
1
 10
20.551185
 20
318.400539
 30
0.0
 10
26.513133
 20
309.475255
 30
0.0
 10
36.990636
 20
302.948622
 30
0.0
 10
47.009532
 20
301.925566
 30
0.0
  0
SPLINE
  5
105
100
AcDbEntity
  8
Camada_1
 62
7
100
AcDbSpline
 70
8
 71
3
 72
8
 73
4
 74
0
 40
0
 40
0
 40
0
 40
0
 40
1
 40
1
 40
1
 40
1
 10
47.150608
 20
302.243377
 30
0.0
 10
43.728662
 20
303.195877
 30
0.0
 10
41.435572
 20
304.536398
 30
0.0
 10
38.825015
 20
307.146956
 30
0.0
  0
SPLINE
  5
106
100
AcDbEntity
  8
Camada_1
 62
7
100
AcDbSpline
 70
8
 71
3
 72
8
 73
4
 74
0
 40
0
 40
0
 40
0
 40
0
 40
1
 40
1
 40
1
 40
1
 10
38.825015
 20
307.146956
 30
0.0
 10
36.249735
 20
309.722235
 30
0.0
 10
35.191401
 20
311.380256
 30
0.0
 10
34.062512
 20
314.696370
 30
0.0
  0
SPLINE
  5
107
100
AcDbEntity
  8
Camada_1
 62
7
100
AcDbSpline
 70
8
 71
3
 72
8
 73
4
 74
0
 40
0
 40
0
 40
0
 40
0
 40
1
 40
1
 40
1
 40
1
 10
34.062512
 20
314.696370
 30
0.0
 10
31.910566
 20
320.940540
 30
0.0
 10
33.569035
 20
328.278217
 30
0.0
 10
38.190427
 20
333.111275
 30
0.0
  0
SPLINE
  5
108
100
AcDbEntity
  8
Camada_1
 62
7
100
AcDbSpline
 70
8
 71
3
 72
8
 73
4
 74
0
 40
0
 40
0
 40
0
 40
0
 40
1
 40
1
 40
1
 40
1
 10
38.190427
 20
333.111275
 30
0.0
 10
41.965152
 20
337.062389
 30
0.0
 10
45.386718
 20
338.614302
 30
0.0
 10
51.383944
 20
339.143469
 30
0.0
  0
SPLINE
  5
109
100
AcDbEntity
  8
Camada_1
 62
7
100
AcDbSpline
 70
8
 71
3
 72
8
 73
4
 74
0
 40
0
 40
0
 40
0
 40
0
 40
1
 40
1
 40
1
 40
1
 10
51.383944
 20
339.143469
 30
0.0
 10
53.430056
 20
339.319858
 30
0.0
 10
55.970230
 20
339.708086
 30
0.0
 10
57.028564
 20
340.025587
 30
0.0
  0
SPLINE
  5
10a
100
AcDbEntity
  8
Camada_1
 62
7
100
AcDbSpline
 70
8
 71
3
 72
8
 73
4
 74
0
 40
0
 40
0
 40
0
 40
0
 40
1
 40
1
 40
1
 40
1
 10
57.028564
 20
340.025587
 30
0.0
 10
65.530514
 20
342.459755
 30
0.0
 10
71.210135
 20
350.432502
 30
0.0
 10
70.680968
 20
359.216674
 30
0.0
  0
SPLINE
  5
10b
100
AcDbEntity
  8
Camada_1
 62
7
100
AcDbSpline
 70
8
 71
3
 72
8
 73
4
 74
0
 40
0
 40
0
 40
0
 40
0
 40
1
 40
1
 40
1
 40
1
 10
70.680968
 20
359.216674
 30
0.0
 10
70.257635
 20
366.801401
 30
0.0
 10
65.530445
 20
373.116195
 30
0.0
 10
58.369051
 20
375.867863
 30
0.0
  0
SPLINE
  5
10c
100
AcDbEntity
  8
Camada_1
 62
7
100
AcDbSpline
 70
8
 71
3
 72
8
 73
4
 74
0
 40
0
 40
0
 40
0
 40
0
 40
1
 40
1
 40
1
 40
1
 10
58.369051
 20
375.867863
 30
0.0
 10
57.044654
 20
376.374251
 30
0.0
 10
55.462075
 20
376.698070
 30
0.0
 10
53.633421
 20
376.838863
 30
0.0
  0
SPLINE
  5
10d
100
AcDbEntity
  8
Camada_1
 62
7
100
AcDbSpline
 70
8
 71
3
 72
8
 73
4
 74
0
 40
0
 40
0
 40
0
 40
0
 40
1
 40
1
 40
1
 40
1
 10
53.633421
 20
376.838863
 30
0.0
 10
54.488334
 20
378.314636
 30
0.0
 10
54.938613
 20
379.989905
 30
0.0
 10
54.938768
 20
381.695420
 30
0.0
  0
SPLINE
  5
10e
100
AcDbEntity
  8
Camada_1
 62
7
100
AcDbSpline
 70
8
 71
3
 72
8
 73
4
 74
0
 40
0
 40
0
 40
0
 40
0
 40
1
 40
1
 40
1
 40
1
 10
54.938768
 20
381.695420
 30
0.0
 10
54.938757
 20
387.047260
 30
0.0
 10
50.600236
 20
391.385777
 30
0.0
 10
45.248398
 20
391.385788
 30
0.0
  0
LWPOLYLINE
  5
10f
100
AcDbEntity
  8
Camada_1
 62
7
100
AcDbPolyline
 90
3
 70
0
 10
47.009532
 20
301.925566
 30
0.0
 10
49.091059
 20
301.714210
 30
0.0
 10
47.150608
 20
302.243377
 30
0.0
  0
SPLINE
  5
110
100
AcDbEntity
  8
Camada_1
 62
7
100
AcDbSpline
 70
8
 71
3
 72
8
 73
4
 74
0
 40
0
 40
0
 40
0
 40
0
 40
1
 40
1
 40
1
 40
1
 10
52.210767
 20
363.054169
 30
0.0
 10
54.631706
 20
362.918568
 30
0.0
 10
56.675614
 20
360.927785
 30
0.0
 10
56.675614
 20
358.123200
 30
0.0
  0
SPLINE
  5
111
100
AcDbEntity
  8
Camada_1
 62
7
100
AcDbSpline
 70
8
 71
3
 72
8
 73
4
 74
0
 40
0
 40
0
 40
0
 40
0
 40
1
 40
1
 40
1
 40
1
 10
56.675614
 20
358.123200
 30
0.0
 10
56.675614
 20
357.241255
 30
0.0
 10
56.393426
 20
356.112366
 30
0.0
 10
56.005370
 20
355.477365
 30
0.0
  0
SPLINE
  5
112
100
AcDbEntity
  8
Camada_1
 62
7
100
AcDbSpline
 70
8
 71
3
 72
8
 73
4
 74
0
 40
0
 40
0
 40
0
 40
0
 40
1
 40
1
 40
1
 40
1
 10
56.005370
 20
355.477365
 30
0.0
 10
55.264536
 20
354.277920
 30
0.0
 10
53.359501
 20
353.219621
 30
0.0
 10
51.913111
 20
353.219621
 30
0.0
  0
SPLINE
  5
113
100
AcDbEntity
  8
Camada_1
 62
7
100
AcDbSpline
 70
8
 71
3
 72
8
 73
4
 74
0
 40
0
 40
0
 40
0
 40
0
 40
1
 40
1
 40
1
 40
1
 10
51.913111
 20
353.219621
 30
0.0
 10
51.383944
 20
353.219621
 30
0.0
 10
50.396441
 20
353.501569
 30
0.0
 10
49.726163
 20
353.819069
 30
0.0
  0
SPLINE
  5
114
100
AcDbEntity
  8
Camada_1
 62
7
100
AcDbSpline
 70
8
 71
3
 72
8
 73
4
 74
0
 40
0
 40
0
 40
0
 40
0
 40
1
 40
1
 40
1
 40
1
 10
49.726163
 20
353.819069
 30
0.0
 10
46.304217
 20
355.441848
 30
0.0
 10
46.304217
 20
360.839418
 30
0.0
 10
49.726163
 20
362.532752
 30
0.0
  0
SPLINE
  5
115
100
AcDbEntity
  8
Camada_1
 62
7
100
AcDbSpline
 70
8
 71
3
 72
8
 73
4
 74
0
 40
0
 40
0
 40
0
 40
0
 40
1
 40
1
 40
1
 40
1
 10
49.726163
 20
362.532752
 30
0.0
 10
50.555192
 20
362.938447
 30
0.0
 10
51.403788
 20
363.099367
 30
0.0
 10
52.210767
 20
363.054169
 30
0.0
  0
LWPOLYLINE
  5
116
100
AcDbEntity
  8
Camada_1
 62
7
100
AcDbPolyline
 90
1
 70
1
 10
45.248398
 20
391.385788
 30
0.0
  0
SPLINE
  5
117
100
AcDbEntity
  8
Camada_2
 62
7
100
AcDbSpline
 70
8
 71
3
 72
8
 73
4
 74
0
 40
0
 40
0
 40
0
 40
0
 40
1
 40
1
 40
1
 40
1
 10
103.219540
 20
377.853548
 30
0.0
 10
98.789753
 20
377.853507
 30
0.0
 10
94.919834
 20
374.859601
 30
0.0
 10
93.807194
 20
370.571822
 30
0.0
  0
SPLINE
  5
118
100
AcDbEntity
  8
Camada_2
 62
7
100
AcDbSpline
 70
8
 71
3
 72
8
 73
4
 74
0
 40
0
 40
0
 40
0
 40
0
 40
1
 40
1
 40
1
 40
1
 10
93.807194
 20
370.571822
 30
0.0
 10
89.713653
 20
373.133271
 30
0.0
 10
85.232466
 20
374.893006
 30
0.0
 10
80.791968
 20
375.556014
 30
0.0
  0
LWPOLYLINE
  5
119
100
AcDbEntity
  8
Camada_1
 62
7
100
AcDbPolyline
 90
1
 70
1
 10
52.210767
 20
363.054169
 30
0.0
  0
SPLINE
  5
11a
100
AcDbEntity
  8
Camada_2
 62
7
100
AcDbSpline
 70
8
 71
3
 72
8
 73
4
 74
0
 40
0
 40
0
 40
0
 40
0
 40
1
 40
1
 40
1
 40
1
 10
80.636422
 20
375.244922
 30
0.0
 10
84.010445
 20
374.134544
 30
0.0
 10
86.238299
 20
372.689459
 30
0.0
 10
88.724817
 20
369.960490
 30
0.0
  0
SPLINE
  5
11b
100
AcDbEntity
  8
Camada_2
 62
7
100
AcDbSpline
 70
8
 71
3
 72
8
 73
4
 74
0
 40
0
 40
0
 40
0
 40
0
 40
1
 40
1
 40
1
 40
1
 10
88.724817
 20
369.960490
 30
0.0
 10
91.177724
 20
367.268398
 30
0.0
 10
92.158103
 20
365.562613
 30
0.0
 10
93.131783
 20
362.197656
 30
0.0
  0
SPLINE
  5
11c
100
AcDbEntity
  8
Camada_2
 62
7
100
AcDbSpline
 70
8
 71
3
 72
8
 73
4
 74
0
 40
0
 40
0
 40
0
 40
0
 40
1
 40
1
 40
1
 40
1
 10
93.131783
 20
362.197656
 30
0.0
 10
94.991441
 20
355.860292
 30
0.0
 10
92.994628
 20
348.607868
 30
0.0
 10
88.153792
 20
343.994633
 30
0.0
  0
SPLINE
  5
11d
100
AcDbEntity
  8
Camada_2
 62
7
100
AcDbSpline
 70
8
 71
3
 72
8
 73
4
 74
0
 40
0
 40
0
 40
0
 40
0
 40
1
 40
1
 40
1
 40
1
 10
88.153792
 20
343.994633
 30
0.0
 10
84.199663
 20
340.223073
 30
0.0
 10
80.709474
 20
338.831111
 30
0.0
 10
74.694149
 20
338.581010
 30
0.0
  0
SPLINE
  5
11e
100
AcDbEntity
  8
Camada_2
 62
7
100
AcDbSpline
 70
8
 71
3
 72
8
 73
4
 74
0
 40
0
 40
0
 40
0
 40
0
 40
1
 40
1
 40
1
 40
1
 10
74.694149
 20
338.581010
 30
0.0
 10
72.642049
 20
338.499840
 30
0.0
 10
70.086841
 20
338.230455
 30
0.0
 10
69.014909
 20
337.962443
 30
0.0
  0
SPLINE
  5
11f
100
AcDbEntity
  8
Camada_2
 62
7
100
AcDbSpline
 70
8
 71
3
 72
8
 73
4
 74
0
 40
0
 40
0
 40
0
 40
0
 40
1
 40
1
 40
1
 40
1
 10
69.014909
 20
337.962443
 30
0.0
 10
60.409094
 20
335.925711
 30
0.0
 10
54.365404
 20
328.225374
 30
0.0
 10
54.486080
 20
319.426107
 30
0.0
  0
SPLINE
  5
120
100
AcDbEntity
  8
Camada_2
 62
7
100
AcDbSpline
 70
8
 71
3
 72
8
 73
4
 74
0
 40
0
 40
0
 40
0
 40
0
 40
1
 40
1
 40
1
 40
1
 10
54.486080
 20
319.426107
 30
0.0
 10
54.556750
 20
311.829907
 30
0.0
 10
58.985591
 20
305.302212
 30
0.0
 10
66.011475
 20
302.220955
 30
0.0
  0
SPLINE
  5
121
100
AcDbEntity
  8
Camada_2
 62
7
100
AcDbSpline
 70
8
 71
3
 72
8
 73
4
 74
0
 40
0
 40
0
 40
0
 40
0
 40
1
 40
1
 40
1
 40
1
 10
66.011475
 20
302.220955
 30
0.0
 10
67.776760
 20
301.450234
 30
0.0
 10
70.033288
 20
300.994237
 30
0.0
 10
72.751632
 20
300.854631
 30
0.0
  0
SPLINE
  5
122
100
AcDbEntity
  8
Camada_2
 62
7
100
AcDbSpline
 70
8
 71
3
 72
8
 73
4
 74
0
 40
0
 40
0
 40
0
 40
0
 40
1
 40
1
 40
1
 40
1
 10
72.751632
 20
300.854631
 30
0.0
 10
73.657752
 20
300.808101
 30
0.0
 10
74.615167
 20
300.796721
 30
0.0
 10
75.622774
 20
300.820521
 30
0.0
  0
SPLINE
  5
123
100
AcDbEntity
  8
Camada_2
 62
7
100
AcDbSpline
 70
8
 71
3
 72
8
 73
4
 74
0
 40
0
 40
0
 40
0
 40
0
 40
1
 40
1
 40
1
 40
1
 10
75.622774
 20
300.820521
 30
0.0
 10
93.583531
 20
301.256936
 30
0.0
 10
109.332040
 20
315.640406
 30
0.0
 10
111.468130
 20
333.481577
 30
0.0
  0
SPLINE
  5
124
100
AcDbEntity
  8
Camada_2
 62
7
100
AcDbSpline
 70
8
 71
3
 72
8
 73
4
 74
0
 40
0
 40
0
 40
0
 40
0
 40
1
 40
1
 40
1
 40
1
 10
111.468130
 20
333.481577
 30
0.0
 10
112.555430
 20
342.436577
 30
0.0
 10
110.881900
 20
350.495446
 30
0.0
 10
106.457070
 20
357.870269
 30
0.0
  0
SPLINE
  5
125
100
AcDbEntity
  8
Camada_2
 62
7
100
AcDbSpline
 70
8
 71
3
 72
8
 73
4
 74
0
 40
0
 40
0
 40
0
 40
0
 40
1
 40
1
 40
1
 40
1
 10
106.457070
 20
357.870269
 30
0.0
 10
106.272990
 20
358.175647
 30
0.0
 10
106.083760
 20
358.478310
 30
0.0
 10
105.889660
 20
358.778740
 30
0.0
  0
SPLINE
  5
126
100
AcDbEntity
  8
Camada_2
 62
7
100
AcDbSpline
 70
8
 71
3
 72
8
 73
4
 74
0
 40
0
 40
0
 40
0
 40
0
 40
1
 40
1
 40
1
 40
1
 10
105.889660
 20
358.778740
 30
0.0
 10
110.064990
 20
359.971162
 30
0.0
 10
112.943720
 20
363.787327
 30
0.0
 10
112.943490
 20
368.129591
 30
0.0
  0
SPLINE
  5
127
100
AcDbEntity
  8
Camada_2
 62
7
100
AcDbSpline
 70
8
 71
3
 72
8
 73
4
 74
0
 40
0
 40
0
 40
0
 40
0
 40
1
 40
1
 40
1
 40
1
 10
112.943490
 20
368.129591
 30
0.0
 10
112.943370
 20
373.499932
 30
0.0
 10
108.589880
 20
377.853424
 30
0.0
 10
103.219540
 20
377.853545
 30
0.0
  0
LWPOLYLINE
  5
128
100
AcDbEntity
  8
Camada_2
 62
7
100
AcDbPolyline
 90
3
 70
0
 10
80.791968
 20
375.556014
 30
0.0
 10
78.722843
 20
375.864006
 30
0.0
 10
80.636422
 20
375.244922
 30
0.0
  0
SPLINE
  5
129
100
AcDbEntity
  8
Camada_2
 62
7
100
AcDbSpline
 70
8
 71
3
 72
8
 73
4
 74
0
 40
0
 40
0
 40
0
 40
0
 40
1
 40
1
 40
1
 40
1
 10
73.235323
 20
324.545691
 30
0.0
 10
73.329183
 20
324.549391
 30
0.0
 10
73.421490
 20
324.549391
 30
0.0
 10
73.511792
 20
324.545174
 30
0.0
  0
SPLINE
  5
12a
100
AcDbEntity
  8
Camada_2
 62
7
100
AcDbSpline
 70
8
 71
3
 72
8
 73
4
 74
0
 40
0
 40
0
 40
0
 40
0
 40
1
 40
1
 40
1
 40
1
 10
73.511792
 20
324.545174
 30
0.0
 10
74.040387
 20
324.520604
 30
0.0
 10
75.013957
 20
324.192721
 30
0.0
 10
75.668766
 20
323.844442
 30
0.0
  0
SPLINE
  5
12b
100
AcDbEntity
  8
Camada_2
 62
7
100
AcDbSpline
 70
8
 71
3
 72
8
 73
4
 74
0
 40
0
 40
0
 40
0
 40
0
 40
1
 40
1
 40
1
 40
1
 10
75.668766
 20
323.844442
 30
0.0
 10
79.011662
 20
322.064511
 30
0.0
 10
78.761028
 20
316.672665
 30
0.0
 10
75.264140
 20
315.140063
 30
0.0
  0
SPLINE
  5
12c
100
AcDbEntity
  8
Camada_2
 62
7
100
AcDbSpline
 70
8
 71
3
 72
8
 73
4
 74
0
 40
0
 40
0
 40
0
 40
0
 40
1
 40
1
 40
1
 40
1
 10
75.264140
 20
315.140063
 30
0.0
 10
74.417168
 20
314.773305
 30
0.0
 10
73.561838
 20
314.651803
 30
0.0
 10
72.757833
 20
314.734403
 30
0.0
  0
SPLINE
  5
12d
100
AcDbEntity
  8
Camada_2
 62
7
100
AcDbSpline
 70
8
 71
3
 72
8
 73
4
 74
0
 40
0
 40
0
 40
0
 40
0
 40
1
 40
1
 40
1
 40
1
 10
72.757833
 20
314.734403
 30
0.0
 10
70.345803
 20
314.982271
 30
0.0
 10
68.396845
 20
317.066386
 30
0.0
 10
68.527083
 20
319.867940
 30
0.0
  0
SPLINE
  5
12e
100
AcDbEntity
  8
Camada_2
 62
7
100
AcDbSpline
 70
8
 71
3
 72
8
 73
4
 74
0
 40
0
 40
0
 40
0
 40
0
 40
1
 40
1
 40
1
 40
1
 10
68.527083
 20
319.867940
 30
0.0
 10
68.568033
 20
320.748936
 30
0.0
 10
68.902165
 20
321.863364
 30
0.0
 10
69.319283
 20
322.479667
 30
0.0
  0
SPLINE
  5
12f
100
AcDbEntity
  8
Camada_2
 62
7
100
AcDbSpline
 70
8
 71
3
 72
8
 73
4
 74
0
 40
0
 40
0
 40
0
 40
0
 40
1
 40
1
 40
1
 40
1
 10
69.319283
 20
322.479667
 30
0.0
 10
70.065282
 20
323.570674
 30
0.0
 10
71.827438
 20
324.490354
 30
0.0
 10
73.235323
 20
324.545691
 30
0.0
  0
LWPOLYLINE
  5
130
100
AcDbEntity
  8
Camada_2
 62
7
100
AcDbPolyline
 90
1
 70
1
 10
103.219540
 20
377.853545
 30
0.0
  0
SPLINE
  5
131
100
AcDbEntity
  8
Camada_2
 62
7
100
AcDbSpline
 70
8
 71
3
 72
8
 73
4
 74
0
 40
0
 40
0
 40
0
 40
0
 40
1
 40
1
 40
1
 40
1
 10
44.947826
 20
386.431496
 30
0.0
 10
43.649713
 20
386.431496
 30
0.0
 10
42.479420
 20
385.649532
 30
0.0
 10
41.982654
 20
384.450231
 30
0.0
  0
SPLINE
  5
132
100
AcDbEntity
  8
Camada_2
 62
7
100
AcDbSpline
 70
8
 71
3
 72
8
 73
4
 74
0
 40
0
 40
0
 40
0
 40
0
 40
1
 40
1
 40
1
 40
1
 10
41.982654
 20
384.450231
 30
0.0
 10
41.485887
 20
383.250931
 30
0.0
 10
41.760477
 20
381.870477
 30
0.0
 10
42.678381
 20
380.952573
 30
0.0
  0
SPLINE
  5
133
100
AcDbEntity
  8
Camada_2
 62
7
100
AcDbSpline
 70
8
 71
3
 72
8
 73
4
 74
0
 40
0
 40
0
 40
0
 40
0
 40
1
 40
1
 40
1
 40
1
 10
42.678381
 20
380.952573
 30
0.0
 10
43.596286
 20
380.034668
 30
0.0
 10
44.976740
 20
379.760079
 30
0.0
 10
46.176041
 20
380.256845
 30
0.0
  0
SPLINE
  5
134
100
AcDbEntity
  8
Camada_2
 62
7
100
AcDbSpline
 70
8
 71
3
 72
8
 73
4
 74
0
 40
0
 40
0
 40
0
 40
0
 40
1
 40
1
 40
1
 40
1
 10
46.176041
 20
380.256845
 30
0.0
 10
47.375341
 20
380.753611
 30
0.0
 10
48.157305
 20
381.923904
 30
0.0
 10
48.157305
 20
383.222017
 30
0.0
  0
SPLINE
  5
135
100
AcDbEntity
  8
Camada_2
 62
7
100
AcDbSpline
 70
8
 71
3
 72
8
 73
4
 74
0
 40
0
 40
0
 40
0
 40
0
 40
1
 40
1
 40
1
 40
1
 10
48.157305
 20
383.222017
 30
0.0
 10
48.157305
 20
384.073224
 30
0.0
 10
47.819165
 20
384.889567
 30
0.0
 10
47.217271
 20
385.491461
 30
0.0
  0
SPLINE
  5
136
100
AcDbEntity
  8
Camada_2
 62
7
100
AcDbSpline
 70
8
 71
3
 72
8
 73
4
 74
0
 40
0
 40
0
 40
0
 40
0
 40
1
 40
1
 40
1
 40
1
 10
47.217271
 20
385.491461
 30
0.0
 10
46.615376
 20
386.093356
 30
0.0
 10
45.799033
 20
386.431496
 30
0.0
 10
44.947826
 20
386.431496
 30
0.0
  0
LWPOLYLINE
  5
137
100
AcDbEntity
  8
Camada_2
 62
7
100
AcDbPolyline
 90
1
 70
1
 10
73.235323
 20
324.545691
 30
0.0
  0
SPLINE
  5
138
100
AcDbEntity
  8
Camada_2
 62
7
100
AcDbSpline
 70
8
 71
3
 72
8
 73
4
 74
0
 40
0
 40
0
 40
0
 40
0
 40
1
 40
1
 40
1
 40
1
 10
104.012920
 20
372.280484
 30
0.0
 10
102.714807
 20
372.280484
 30
0.0
 10
101.544514
 20
371.498520
 30
0.0
 10
101.047748
 20
370.299219
 30
0.0
  0
SPLINE
  5
139
100
AcDbEntity
  8
Camada_2
 62
7
100
AcDbSpline
 70
8
 71
3
 72
8
 73
4
 74
0
 40
0
 40
0
 40
0
 40
0
 40
1
 40
1
 40
1
 40
1
 10
101.047748
 20
370.299219
 30
0.0
 10
100.550981
 20
369.099919
 30
0.0
 10
100.825571
 20
367.719465
 30
0.0
 10
101.743475
 20
366.801561
 30
0.0
  0
SPLINE
  5
13a
100
AcDbEntity
  8
Camada_2
 62
7
100
AcDbSpline
 70
8
 71
3
 72
8
 73
4
 74
0
 40
0
 40
0
 40
0
 40
0
 40
1
 40
1
 40
1
 40
1
 10
101.743475
 20
366.801561
 30
0.0
 10
102.661380
 20
365.883656
 30
0.0
 10
104.041834
 20
365.609067
 30
0.0
 10
105.241135
 20
366.105833
 30
0.0
  0
SPLINE
  5
13b
100
AcDbEntity
  8
Camada_2
 62
7
100
AcDbSpline
 70
8
 71
3
 72
8
 73
4
 74
0
 40
0
 40
0
 40
0
 40
0
 40
1
 40
1
 40
1
 40
1
 10
105.241135
 20
366.105833
 30
0.0
 10
106.440435
 20
366.602599
 30
0.0
 10
107.222399
 20
367.772892
 30
0.0
 10
107.222399
 20
369.071005
 30
0.0
  0
SPLINE
  5
13c
100
AcDbEntity
  8
Camada_2
 62
7
100
AcDbSpline
 70
8
 71
3
 72
8
 73
4
 74
0
 40
0
 40
0
 40
0
 40
0
 40
1
 40
1
 40
1
 40
1
 10
107.222399
 20
369.071005
 30
0.0
 10
107.222399
 20
369.922212
 30
0.0
 10
106.884259
 20
370.738555
 30
0.0
 10
106.282365
 20
371.340449
 30
0.0
  0
SPLINE
  5
13d
100
AcDbEntity
  8
Camada_2
 62
7
100
AcDbSpline
 70
8
 71
3
 72
8
 73
4
 74
0
 40
0
 40
0
 40
0
 40
0
 40
1
 40
1
 40
1
 40
1
 10
106.282365
 20
371.340449
 30
0.0
 10
105.680470
 20
371.942344
 30
0.0
 10
104.864127
 20
372.280484
 30
0.0
 10
104.012920
 20
372.280484
 30
0.0
  0
LWPOLYLINE
  5
13e
100
AcDbEntity
  8
Camada_2
 62
7
100
AcDbPolyline
 90
1
 70
1
 10
44.947826
 20
386.431496
 30
0.0
  0
SPLINE
  5
13f
100
AcDbEntity
  8
Camada_2
 62
7
100
AcDbSpline
 70
8
 71
3
 72
8
 73
4
 74
0
 40
0
 40
0
 40
0
 40
0
 40
1
 40
1
 40
1
 40
1
 10
216.220098
 20
350.469788
 30
0.0
 10
210.868260
 20
350.469777
 30
0.0
 10
206.529740
 20
346.131257
 30
0.0
 10
206.529729
 20
340.779420
 30
0.0
  0
SPLINE
  5
140
100
AcDbEntity
  8
Camada_2
 62
7
100
AcDbSpline
 70
8
 71
3
 72
8
 73
4
 74
0
 40
0
 40
0
 40
0
 40
0
 40
1
 40
1
 40
1
 40
1
 10
206.529729
 20
340.779420
 30
0.0
 10
206.529726
 20
338.084133
 30
0.0
 10
207.652265
 20
335.510614
 30
0.0
 10
209.627731
 20
333.677005
 30
0.0
  0
SPLINE
  5
141
100
AcDbEntity
  8
Camada_2
 62
7
100
AcDbSpline
 70
8
 71
3
 72
8
 73
4
 74
0
 40
0
 40
0
 40
0
 40
0
 40
1
 40
1
 40
1
 40
1
 10
209.627731
 20
333.677005
 30
0.0
 10
196.417073
 20
328.657693
 30
0.0
 10
186.436302
 20
316.051821
 30
0.0
 10
185.384752
 20
301.614346
 30
0.0
  0
SPLINE
  5
142
100
AcDbEntity
  8
Camada_2
 62
7
100
AcDbSpline
 70
8
 71
3
 72
8
 73
4
 74
0
 40
0
 40
0
 40
0
 40
0
 40
1
 40
1
 40
1
 40
1
 10
185.384752
 20
301.614346
 30
0.0
 10
184.714474
 20
292.618507
 30
0.0
 10
186.760382
 20
284.645932
 30
0.0
 10
191.522885
 20
277.484539
 30
0.0
  0
SPLINE
  5
143
100
AcDbEntity
  8
Camada_2
 62
7
100
AcDbSpline
 70
8
 71
3
 72
8
 73
4
 74
0
 40
0
 40
0
 40
0
 40
0
 40
1
 40
1
 40
1
 40
1
 10
191.522885
 20
277.484539
 30
0.0
 10
197.484833
 20
268.559255
 30
0.0
 10
207.962336
 20
262.032622
 30
0.0
 10
217.981232
 20
261.009566
 30
0.0
  0
LWPOLYLINE
  5
144
100
AcDbEntity
  8
Camada_2
 62
7
100
AcDbPolyline
 90
1
 70
1
 10
104.012920
 20
372.280484
 30
0.0
  0
SPLINE
  5
145
100
AcDbEntity
  8
Camada_2
 62
7
100
AcDbSpline
 70
8
 71
3
 72
8
 73
4
 74
0
 40
0
 40
0
 40
0
 40
0
 40
1
 40
1
 40
1
 40
1
 10
218.122308
 20
261.327377
 30
0.0
 10
214.700362
 20
262.279877
 30
0.0
 10
212.407272
 20
263.620398
 30
0.0
 10
209.796715
 20
266.230956
 30
0.0
  0
SPLINE
  5
146
100
AcDbEntity
  8
Camada_2
 62
7
100
AcDbSpline
 70
8
 71
3
 72
8
 73
4
 74
0
 40
0
 40
0
 40
0
 40
0
 40
1
 40
1
 40
1
 40
1
 10
209.796715
 20
266.230956
 30
0.0
 10
207.221435
 20
268.806235
 30
0.0
 10
206.163101
 20
270.464256
 30
0.0
 10
205.034212
 20
273.780370
 30
0.0
  0
SPLINE
  5
147
100
AcDbEntity
  8
Camada_2
 62
7
100
AcDbSpline
 70
8
 71
3
 72
8
 73
4
 74
0
 40
0
 40
0
 40
0
 40
0
 40
1
 40
1
 40
1
 40
1
 10
205.034212
 20
273.780370
 30
0.0
 10
202.882266
 20
280.024540
 30
0.0
 10
204.540735
 20
287.362217
 30
0.0
 10
209.162127
 20
292.195275
 30
0.0
  0
SPLINE
  5
148
100
AcDbEntity
  8
Camada_2
 62
7
100
AcDbSpline
 70
8
 71
3
 72
8
 73
4
 74
0
 40
0
 40
0
 40
0
 40
0
 40
1
 40
1
 40
1
 40
1
 10
209.162127
 20
292.195275
 30
0.0
 10
212.936852
 20
296.146389
 30
0.0
 10
216.358418
 20
297.698302
 30
0.0
 10
222.355644
 20
298.227469
 30
0.0
  0
SPLINE
  5
149
100
AcDbEntity
  8
Camada_2
 62
7
100
AcDbSpline
 70
8
 71
3
 72
8
 73
4
 74
0
 40
0
 40
0
 40
0
 40
0
 40
1
 40
1
 40
1
 40
1
 10
222.355644
 20
298.227469
 30
0.0
 10
224.401756
 20
298.403858
 30
0.0
 10
226.941930
 20
298.792086
 30
0.0
 10
228.000264
 20
299.109587
 30
0.0
  0
SPLINE
  5
14a
100
AcDbEntity
  8
Camada_2
 62
7
100
AcDbSpline
 70
8
 71
3
 72
8
 73
4
 74
0
 40
0
 40
0
 40
0
 40
0
 40
1
 40
1
 40
1
 40
1
 10
228.000264
 20
299.109587
 30
0.0
 10
236.502214
 20
301.543755
 30
0.0
 10
242.181835
 20
309.516502
 30
0.0
 10
241.652668
 20
318.300674
 30
0.0
  0
SPLINE
  5
14b
100
AcDbEntity
  8
Camada_2
 62
7
100
AcDbSpline
 70
8
 71
3
 72
8
 73
4
 74
0
 40
0
 40
0
 40
0
 40
0
 40
1
 40
1
 40
1
 40
1
 10
241.652668
 20
318.300674
 30
0.0
 10
241.229335
 20
325.885401
 30
0.0
 10
236.502145
 20
332.200195
 30
0.0
 10
229.340751
 20
334.951863
 30
0.0
  0
SPLINE
  5
14c
100
AcDbEntity
  8
Camada_2
 62
7
100
AcDbSpline
 70
8
 71
3
 72
8
 73
4
 74
0
 40
0
 40
0
 40
0
 40
0
 40
1
 40
1
 40
1
 40
1
 10
229.340751
 20
334.951863
 30
0.0
 10
228.016354
 20
335.458251
 30
0.0
 10
226.433775
 20
335.782070
 30
0.0
 10
224.605121
 20
335.922863
 30
0.0
  0
SPLINE
  5
14d
100
AcDbEntity
  8
Camada_2
 62
7
100
AcDbSpline
 70
8
 71
3
 72
8
 73
4
 74
0
 40
0
 40
0
 40
0
 40
0
 40
1
 40
1
 40
1
 40
1
 10
224.605121
 20
335.922863
 30
0.0
 10
225.460034
 20
337.398636
 30
0.0
 10
225.910313
 20
339.073905
 30
0.0
 10
225.910468
 20
340.779420
 30
0.0
  0
SPLINE
  5
14e
100
AcDbEntity
  8
Camada_2
 62
7
100
AcDbSpline
 70
8
 71
3
 72
8
 73
4
 74
0
 40
0
 40
0
 40
0
 40
0
 40
1
 40
1
 40
1
 40
1
 10
225.910468
 20
340.779420
 30
0.0
 10
225.910457
 20
346.131260
 30
0.0
 10
221.571936
 20
350.469777
 30
0.0
 10
216.220098
 20
350.469788
 30
0.0
  0
LWPOLYLINE
  5
14f
100
AcDbEntity
  8
Camada_2
 62
7
100
AcDbPolyline
 90
3
 70
0
 10
217.981232
 20
261.009566
 30
0.0
 10
220.062759
 20
260.798210
 30
0.0
 10
218.122308
 20
261.327377
 30
0.0
  0
SPLINE
  5
150
100
AcDbEntity
  8
Camada_2
 62
7
100
AcDbSpline
 70
8
 71
3
 72
8
 73
4
 74
0
 40
0
 40
0
 40
0
 40
0
 40
1
 40
1
 40
1
 40
1
 10
274.191490
 20
336.937494
 30
0.0
 10
269.761700
 20
336.937453
 30
0.0
 10
265.891780
 20
333.943547
 30
0.0
 10
264.779140
 20
329.655768
 30
0.0
  0
SPLINE
  5
151
100
AcDbEntity
  8
Camada_2
 62
7
100
AcDbSpline
 70
8
 71
3
 72
8
 73
4
 74
0
 40
0
 40
0
 40
0
 40
0
 40
1
 40
1
 40
1
 40
1
 10
264.779140
 20
329.655768
 30
0.0
 10
260.685600
 20
332.217217
 30
0.0
 10
256.204420
 20
333.976952
 30
0.0
 10
251.763920
 20
334.639960
 30
0.0
  0
LWPOLYLINE
  5
152
100
AcDbEntity
  8
Camada_2
 62
7
100
AcDbPolyline
 90
1
 70
1
 10
216.220098
 20
350.469788
 30
0.0
  0
SPLINE
  5
153
100
AcDbEntity
  8
Camada_2
 62
7
100
AcDbSpline
 70
8
 71
3
 72
8
 73
4
 74
0
 40
0
 40
0
 40
0
 40
0
 40
1
 40
1
 40
1
 40
1
 10
251.608370
 20
334.328868
 30
0.0
 10
254.982390
 20
333.218490
 30
0.0
 10
257.210250
 20
331.773405
 30
0.0
 10
259.696770
 20
329.044436
 30
0.0
  0
SPLINE
  5
154
100
AcDbEntity
  8
Camada_2
 62
7
100
AcDbSpline
 70
8
 71
3
 72
8
 73
4
 74
0
 40
0
 40
0
 40
0
 40
0
 40
1
 40
1
 40
1
 40
1
 10
259.696770
 20
329.044436
 30
0.0
 10
262.149670
 20
326.352344
 30
0.0
 10
263.130050
 20
324.646559
 30
0.0
 10
264.103730
 20
321.281602
 30
0.0
  0
SPLINE
  5
155
100
AcDbEntity
  8
Camada_2
 62
7
100
AcDbSpline
 70
8
 71
3
 72
8
 73
4
 74
0
 40
0
 40
0
 40
0
 40
0
 40
1
 40
1
 40
1
 40
1
 10
264.103730
 20
321.281602
 30
0.0
 10
265.963390
 20
314.944238
 30
0.0
 10
263.966580
 20
307.691814
 30
0.0
 10
259.125740
 20
303.078579
 30
0.0
  0
SPLINE
  5
156
100
AcDbEntity
  8
Camada_2
 62
7
100
AcDbSpline
 70
8
 71
3
 72
8
 73
4
 74
0
 40
0
 40
0
 40
0
 40
0
 40
1
 40
1
 40
1
 40
1
 10
259.125740
 20
303.078579
 30
0.0
 10
255.171610
 20
299.307020
 30
0.0
 10
251.681420
 20
297.915060
 30
0.0
 10
245.666100
 20
297.664960
 30
0.0
  0
SPLINE
  5
157
100
AcDbEntity
  8
Camada_2
 62
7
100
AcDbSpline
 70
8
 71
3
 72
8
 73
4
 74
0
 40
0
 40
0
 40
0
 40
0
 40
1
 40
1
 40
1
 40
1
 10
245.666100
 20
297.664960
 30
0.0
 10
243.614000
 20
297.583760
 30
0.0
 10
241.058790
 20
297.314400
 30
0.0
 10
239.986860
 20
297.046390
 30
0.0
  0
SPLINE
  5
158
100
AcDbEntity
  8
Camada_2
 62
7
100
AcDbSpline
 70
8
 71
3
 72
8
 73
4
 74
0
 40
0
 40
0
 40
0
 40
0
 40
1
 40
1
 40
1
 40
1
 10
239.986860
 20
297.046390
 30
0.0
 10
231.381040
 20
295.009660
 30
0.0
 10
225.337350
 20
287.309320
 30
0.0
 10
225.458030
 20
278.510050
 30
0.0
  0
SPLINE
  5
159
100
AcDbEntity
  8
Camada_2
 62
7
100
AcDbSpline
 70
8
 71
3
 72
8
 73
4
 74
0
 40
0
 40
0
 40
0
 40
0
 40
1
 40
1
 40
1
 40
1
 10
225.458030
 20
278.510050
 30
0.0
 10
225.528730
 20
270.913850
 30
0.0
 10
229.957540
 20
264.386160
 30
0.0
 10
236.983420
 20
261.304900
 30
0.0
  0
SPLINE
  5
15a
100
AcDbEntity
  8
Camada_2
 62
7
100
AcDbSpline
 70
8
 71
3
 72
8
 73
4
 74
0
 40
0
 40
0
 40
0
 40
0
 40
1
 40
1
 40
1
 40
1
 10
236.983420
 20
261.304900
 30
0.0
 10
238.748710
 20
260.534180
 30
0.0
 10
241.005240
 20
260.078180
 30
0.0
 10
243.723580
 20
259.938580
 30
0.0
  0
SPLINE
  5
15b
100
AcDbEntity
  8
Camada_2
 62
7
100
AcDbSpline
 70
8
 71
3
 72
8
 73
4
 74
0
 40
0
 40
0
 40
0
 40
0
 40
1
 40
1
 40
1
 40
1
 10
243.723580
 20
259.938580
 30
0.0
 10
244.629700
 20
259.892080
 30
0.0
 10
245.587120
 20
259.880680
 30
0.0
 10
246.594720
 20
259.904480
 30
0.0
  0
SPLINE
  5
15c
100
AcDbEntity
  8
Camada_2
 62
7
100
AcDbSpline
 70
8
 71
3
 72
8
 73
4
 74
0
 40
0
 40
0
 40
0
 40
0
 40
1
 40
1
 40
1
 40
1
 10
246.594720
 20
259.904480
 30
0.0
 10
264.555480
 20
260.340890
 30
0.0
 10
280.303990
 20
274.724360
 30
0.0
 10
282.440080
 20
292.565530
 30
0.0
  0
SPLINE
  5
15d
100
AcDbEntity
  8
Camada_2
 62
7
100
AcDbSpline
 70
8
 71
3
 72
8
 73
4
 74
0
 40
0
 40
0
 40
0
 40
0
 40
1
 40
1
 40
1
 40
1
 10
282.440080
 20
292.565530
 30
0.0
 10
283.527380
 20
301.520533
 30
0.0
 10
281.853850
 20
309.579402
 30
0.0
 10
277.429020
 20
316.954225
 30
0.0
  0
SPLINE
  5
15e
100
AcDbEntity
  8
Camada_2
 62
7
100
AcDbSpline
 70
8
 71
3
 72
8
 73
4
 74
0
 40
0
 40
0
 40
0
 40
0
 40
1
 40
1
 40
1
 40
1
 10
277.429020
 20
316.954225
 30
0.0
 10
277.244940
 20
317.259603
 30
0.0
 10
277.055710
 20
317.562266
 30
0.0
 10
276.861610
 20
317.862696
 30
0.0
  0
SPLINE
  5
15f
100
AcDbEntity
  8
Camada_2
 62
7
100
AcDbSpline
 70
8
 71
3
 72
8
 73
4
 74
0
 40
0
 40
0
 40
0
 40
0
 40
1
 40
1
 40
1
 40
1
 10
276.861610
 20
317.862696
 30
0.0
 10
281.036940
 20
319.055118
 30
0.0
 10
283.915670
 20
322.871283
 30
0.0
 10
283.915440
 20
327.213547
 30
0.0
  0
SPLINE
  5
160
100
AcDbEntity
  8
Camada_2
 62
7
100
AcDbSpline
 70
8
 71
3
 72
8
 73
4
 74
0
 40
0
 40
0
 40
0
 40
0
 40
1
 40
1
 40
1
 40
1
 10
283.915440
 20
327.213547
 30
0.0
 10
283.915320
 20
332.583888
 30
0.0
 10
279.561830
 20
336.937380
 30
0.0
 10
274.191490
 20
336.937501
 30
0.0
  0
LWPOLYLINE
  5
161
100
AcDbEntity
  8
Camada_2
 62
7
100
AcDbPolyline
 90
3
 70
0
 10
251.763920
 20
334.639960
 30
0.0
 10
249.694790
 20
334.947952
 30
0.0
 10
251.608370
 20
334.328868
 30
0.0
  0
SPLINE
  5
162
100
AcDbEntity
  8
Camada_2
 62
7
100
AcDbSpline
 70
8
 71
3
 72
8
 73
4
 74
0
 40
0
 40
0
 40
0
 40
0
 40
1
 40
1
 40
1
 40
1
 10
215.919770
 20
345.515441
 30
0.0
 10
214.621657
 20
345.515441
 30
0.0
 10
213.451364
 20
344.733477
 30
0.0
 10
212.954598
 20
343.534176
 30
0.0
  0
SPLINE
  5
163
100
AcDbEntity
  8
Camada_2
 62
7
100
AcDbSpline
 70
8
 71
3
 72
8
 73
4
 74
0
 40
0
 40
0
 40
0
 40
0
 40
1
 40
1
 40
1
 40
1
 10
212.954598
 20
343.534176
 30
0.0
 10
212.457831
 20
342.334876
 30
0.0
 10
212.732421
 20
340.954422
 30
0.0
 10
213.650325
 20
340.036518
 30
0.0
  0
SPLINE
  5
164
100
AcDbEntity
  8
Camada_2
 62
7
100
AcDbSpline
 70
8
 71
3
 72
8
 73
4
 74
0
 40
0
 40
0
 40
0
 40
0
 40
1
 40
1
 40
1
 40
1
 10
213.650325
 20
340.036518
 30
0.0
 10
214.568230
 20
339.118613
 30
0.0
 10
215.948684
 20
338.844024
 30
0.0
 10
217.147985
 20
339.340790
 30
0.0
  0
SPLINE
  5
165
100
AcDbEntity
  8
Camada_2
 62
7
100
AcDbSpline
 70
8
 71
3
 72
8
 73
4
 74
0
 40
0
 40
0
 40
0
 40
0
 40
1
 40
1
 40
1
 40
1
 10
217.147985
 20
339.340790
 30
0.0
 10
218.347285
 20
339.837556
 30
0.0
 10
219.129249
 20
341.007849
 30
0.0
 10
219.129249
 20
342.305962
 30
0.0
  0
SPLINE
  5
166
100
AcDbEntity
  8
Camada_2
 62
7
100
AcDbSpline
 70
8
 71
3
 72
8
 73
4
 74
0
 40
0
 40
0
 40
0
 40
0
 40
1
 40
1
 40
1
 40
1
 10
219.129249
 20
342.305962
 30
0.0
 10
219.129249
 20
343.157169
 30
0.0
 10
218.791109
 20
343.973512
 30
0.0
 10
218.189215
 20
344.575406
 30
0.0
  0
SPLINE
  5
167
100
AcDbEntity
  8
Camada_2
 62
7
100
AcDbSpline
 70
8
 71
3
 72
8
 73
4
 74
0
 40
0
 40
0
 40
0
 40
0
 40
1
 40
1
 40
1
 40
1
 10
218.189215
 20
344.575406
 30
0.0
 10
217.587320
 20
345.177301
 30
0.0
 10
216.770977
 20
345.515441
 30
0.0
 10
215.919770
 20
345.515441
 30
0.0
  0
LWPOLYLINE
  5
168
100
AcDbEntity
  8
Camada_2
 62
7
100
AcDbPolyline
 90
1
 70
1
 10
274.191490
 20
336.937501
 30
0.0
  0
SPLINE
  5
169
100
AcDbEntity
  8
Camada_2
 62
7
100
AcDbSpline
 70
8
 71
3
 72
8
 73
4
 74
0
 40
0
 40
0
 40
0
 40
0
 40
1
 40
1
 40
1
 40
1
 10
274.984860
 20
331.364432
 30
0.0
 10
273.686747
 20
331.364432
 30
0.0
 10
272.516454
 20
330.582468
 30
0.0
 10
272.019688
 20
329.383167
 30
0.0
  0
SPLINE
  5
16a
100
AcDbEntity
  8
Camada_2
 62
7
100
AcDbSpline
 70
8
 71
3
 72
8
 73
4
 74
0
 40
0
 40
0
 40
0
 40
0
 40
1
 40
1
 40
1
 40
1
 10
272.019688
 20
329.383167
 30
0.0
 10
271.522921
 20
328.183867
 30
0.0
 10
271.797511
 20
326.803413
 30
0.0
 10
272.715415
 20
325.885509
 30
0.0
  0
SPLINE
  5
16b
100
AcDbEntity
  8
Camada_2
 62
7
100
AcDbSpline
 70
8
 71
3
 72
8
 73
4
 74
0
 40
0
 40
0
 40
0
 40
0
 40
1
 40
1
 40
1
 40
1
 10
272.715415
 20
325.885509
 30
0.0
 10
273.633320
 20
324.967604
 30
0.0
 10
275.013774
 20
324.693015
 30
0.0
 10
276.213075
 20
325.189781
 30
0.0
  0
SPLINE
  5
16c
100
AcDbEntity
  8
Camada_2
 62
7
100
AcDbSpline
 70
8
 71
3
 72
8
 73
4
 74
0
 40
0
 40
0
 40
0
 40
0
 40
1
 40
1
 40
1
 40
1
 10
276.213075
 20
325.189781
 30
0.0
 10
277.412375
 20
325.686547
 30
0.0
 10
278.194339
 20
326.856840
 30
0.0
 10
278.194339
 20
328.154953
 30
0.0
  0
SPLINE
  5
16d
100
AcDbEntity
  8
Camada_2
 62
7
100
AcDbSpline
 70
8
 71
3
 72
8
 73
4
 74
0
 40
0
 40
0
 40
0
 40
0
 40
1
 40
1
 40
1
 40
1
 10
278.194339
 20
328.154953
 30
0.0
 10
278.194339
 20
329.006160
 30
0.0
 10
277.856199
 20
329.822503
 30
0.0
 10
277.254305
 20
330.424397
 30
0.0
  0
SPLINE
  5
16e
100
AcDbEntity
  8
Camada_2
 62
7
100
AcDbSpline
 70
8
 71
3
 72
8
 73
4
 74
0
 40
0
 40
0
 40
0
 40
0
 40
1
 40
1
 40
1
 40
1
 10
277.254305
 20
330.424397
 30
0.0
 10
276.652410
 20
331.026292
 30
0.0
 10
275.836067
 20
331.364432
 30
0.0
 10
274.984860
 20
331.364432
 30
0.0
  0
LWPOLYLINE
  5
16f
100
AcDbEntity
  8
Camada_2
 62
7
100
AcDbPolyline
 90
1
 70
1
 10
215.919770
 20
345.515441
 30
0.0
  0
LWPOLYLINE
  5
170
100
AcDbEntity
  8
Camada_2
 62
7
100
AcDbPolyline
 90
1
 70
1
 10
274.984860
 20
331.364432
 30
0.0
  0
ENDSEC
  0
SECTION
  2
OBJECTS
  0
DICTIONARY
  5
C
330
0
100
AcDbDictionary
  3
ACAD_GROUP
350
D
  3
ACAD_MLINESTYLE
350
17
  0
DICTIONARY
  5
D
330
C
100
AcDbDictionary
  0
DICTIONARY
  5
1A
330
C
100
AcDbDictionary
  0
DICTIONARY
  5
17
330
C
100
AcDbDictionary
  3
STANDARD
350
18
  0
DICTIONARY
  5
19
330
C
100
AcDbDictionary
  0
ENDSEC
  0
EOF
