<?xml version="1.0" encoding="UTF-8" standalone="no"?>
<!-- Created with Inkscape (http://www.inkscape.org/) -->

<svg
   width="600mm"
   height="400mm"
   viewBox="0 0 600 400"
   version="1.1"
   id="svg1"
   inkscape:version="1.4 (86a8ad7, 2024-10-11)"
   sodipodi:docname="jogo_cilada.svg"
   xmlns:inkscape="http://www.inkscape.org/namespaces/inkscape"
   xmlns:sodipodi="http://sodipodi.sourceforge.net/DTD/sodipodi-0.dtd"
   xmlns="http://www.w3.org/2000/svg"
   xmlns:svg="http://www.w3.org/2000/svg">
  <sodipodi:namedview
     id="namedview1"
     pagecolor="#ffffff"
     bordercolor="#000000"
     borderopacity="0.25"
     inkscape:showpageshadow="2"
     inkscape:pageopacity="0.0"
     inkscape:pagecheckerboard="0"
     inkscape:deskcolor="#d1d1d1"
     inkscape:document-units="mm"
     showguides="false"
     inkscape:zoom="0.34431467"
     inkscape:cx="1305.4918"
     inkscape:cy="768.19264"
     inkscape:window-width="1920"
     inkscape:window-height="991"
     inkscape:window-x="-9"
     inkscape:window-y="-9"
     inkscape:window-maximized="1"
     inkscape:current-layer="layer1">
    <sodipodi:guide
       position="190.5718,391.93143"
       orientation="0,-1"
       id="guide32"
       inkscape:locked="false" />
  </sodipodi:namedview>
  <defs
     id="defs1" />
  <g
     inkscape:label="Camada 1"
     inkscape:groupmode="layer"
     id="layer1">
    <rect
       style="fill:#0000ff;fill-rule:evenodd;stroke-width:0.189421"
       id="rect1"
       width="32.856842"
       height="32.856842"
       x="15.978811"
       y="11.791058"
       ry="5.9142499" />
    <path
       id="rect2"
       style="fill:#0000ff;fill-rule:evenodd;stroke-width:0.210514"
       d="m 75.707094,11.791063 c -3.535123,0 -6.381161,2.846074 -6.381161,6.381247 v 0.643881 h -0.894266 c -3.535134,0 -6.381173,2.846073 -6.381173,6.381247 v 6.044094 c 0,3.535173 2.846039,6.380835 6.381173,6.380835 h 0.894266 v 0.644293 c 0,3.535173 2.846038,6.381246 6.381161,6.381246 h 6.043608 c 3.535126,0 6.381164,-2.846073 6.381164,-6.381246 v -0.644293 h 0.394304 c 3.535126,0 6.381164,-2.845662 6.381164,-6.380835 v -6.044094 c 0,-3.535174 -2.846038,-6.381247 -6.381164,-6.381247 H 88.131866 V 18.17231 c 0,-3.535173 -2.846038,-6.381247 -6.381164,-6.381247 z" />
    <circle
       style="fill:#0000ff;fill-rule:evenodd;stroke:#0000ff;stroke-width:0.242118"
       id="path3"
       cx="123.97309"
       cy="28.340546"
       r="16.428421" />
    <circle
       style="fill:#0000ff;fill-rule:evenodd;stroke:#0000ff;stroke-width:0.242118"
       id="circle3"
       cx="32.407234"
       cy="71.585136"
       r="16.428421" />
    <circle
       style="fill:#0000ff;fill-rule:evenodd;stroke:#0000ff;stroke-width:0.242118"
       id="circle4"
       cx="32.407234"
       cy="118.0498"
       r="16.428421" />
    <path
       id="path4"
       style="fill:#0000ff;fill-rule:evenodd;stroke-width:0.210514"
       d="m 29.635412,151.48954 c -3.535121,0 -6.381159,2.84608 -6.381159,6.38125 v 0.64388 h -0.894266 c -3.535134,0 -6.381173,2.84607 -6.381173,6.38124 v 6.0441 c 0,3.53517 2.846039,6.38084 6.381173,6.38084 h 0.894266 v 0.64428 c 0,3.53518 2.846038,6.38125 6.381159,6.38125 h 6.043607 c 3.535126,0 6.381164,-2.84607 6.381164,-6.38125 v -0.64428 h 0.394304 c 3.535126,0 6.381164,-2.84567 6.381164,-6.38084 v -6.0441 c 0,-3.53517 -2.846038,-6.38124 -6.381164,-6.38124 h -0.394304 v -0.64388 c 0,-3.53517 -2.846038,-6.38125 -6.381164,-6.38125 z" />
    <path
       id="path5"
       style="fill:#0000ff;fill-rule:evenodd;stroke-width:0.210514"
       d="m 75.707094,55.035653 c -3.535122,0 -6.381161,2.846073 -6.381161,6.381246 v 0.643881 h -0.894266 c -3.535133,0 -6.381173,2.846074 -6.381173,6.381247 v 6.044101 c 0,3.535184 2.84604,6.38085 6.381173,6.38085 h 0.894266 v 0.644293 c 0,3.53517 2.846039,6.381244 6.381161,6.381244 h 6.043608 c 3.535126,0 6.381164,-2.846074 6.381164,-6.381244 v -0.644293 h 0.394304 c 3.535126,0 6.381164,-2.845666 6.381164,-6.38085 v -6.044101 c 0,-3.535173 -2.846038,-6.381247 -6.381164,-6.381247 h -0.394304 v -0.643881 c 0,-3.535173 -2.846038,-6.381246 -6.381164,-6.381246 z" />
    <path
       id="path6"
       style="fill:#0000ff;fill-rule:evenodd;stroke-width:0.210514"
       d="m 166.81479,55.035653 c -3.53512,0 -6.38116,2.846067 -6.38116,6.381244 v 0.643877 h -0.89426 c -3.53514,0 -6.38118,2.846075 -6.38118,6.381252 v 6.044094 c 0,3.535192 2.84604,6.380858 6.38118,6.380858 h 0.89426 v 0.644293 c 0,3.53517 2.84604,6.381244 6.38116,6.381244 h 6.04361 c 3.53512,0 6.38116,-2.846074 6.38116,-6.381244 v -0.644293 h 0.39431 c 3.53512,0 6.38116,-2.845666 6.38116,-6.380858 v -6.044094 c 0,-3.535177 -2.84604,-6.381252 -6.38116,-6.381252 h -0.39431 v -0.643877 c 0,-3.535177 -2.84604,-6.381244 -6.38116,-6.381244 z" />
    <circle
       style="fill:#0000ff;fill-rule:evenodd;stroke:#0000ff;stroke-width:0.242118"
       id="circle6"
       cx="78.478912"
       cy="118.0498"
       r="16.428421" />
    <rect
       style="fill:#0000ff;fill-rule:evenodd;stroke-width:0.189421"
       id="rect6"
       width="32.856842"
       height="32.856842"
       x="107.54467"
       y="101.50031"
       ry="5.9142499" />
    <rect
       style="fill:#0000ff;fill-rule:evenodd;stroke-width:0.189421"
       id="rect7"
       width="32.856842"
       height="32.856842"
       x="62.050488"
       y="151.48947"
       ry="5.9142499" />
    <rect
       style="fill:#0000ff;fill-rule:evenodd;stroke-width:0.189421"
       id="rect8"
       width="32.856842"
       height="32.856842"
       x="153.15819"
       y="11.791058"
       ry="5.9142499" />
    <path
       id="path8"
       style="fill:#0000ff;fill-rule:evenodd;stroke-width:0.210514"
       d="m 210.18044,11.791063 c -3.53512,0 -6.38116,2.846074 -6.38116,6.381247 v 0.643881 h -0.89426 c -3.53514,0 -6.38117,2.846073 -6.38117,6.381248 v 6.044096 c 0,3.53517 2.84603,6.380836 6.38117,6.380836 h 0.89426 v 0.644293 c 0,3.53517 2.84604,6.381245 6.38116,6.381245 h 6.04361 c 3.53513,0 6.38116,-2.846075 6.38116,-6.381245 v -0.644293 h 0.39431 c 3.53512,0 6.38116,-2.845666 6.38116,-6.380836 v -6.044096 c 0,-3.535175 -2.84604,-6.381248 -6.38116,-6.381248 h -0.39431 V 18.17231 c 0,-3.535173 -2.84603,-6.381247 -6.38116,-6.381247 z" />
    <circle
       style="fill:#0000ff;fill-rule:evenodd;stroke:#0000ff;stroke-width:0.242118"
       id="circle8"
       cx="169.58661"
       cy="168.03896"
       r="16.428421" />
    <path
       id="path9"
       style="fill:#0000ff;fill-rule:evenodd;stroke-width:0.210514"
       d="m 121.20129,151.48954 c -3.53512,0 -6.38115,2.84608 -6.38115,6.38125 v 0.64388 h -0.89428 c -3.53513,0 -6.38117,2.84607 -6.38117,6.38124 v 6.0441 c 0,3.53517 2.84604,6.38084 6.38117,6.38084 h 0.89428 v 0.64428 c 0,3.53518 2.84603,6.38125 6.38115,6.38125 h 6.0436 c 3.53513,0 6.38117,-2.84607 6.38117,-6.38125 v -0.64428 h 0.3943 c 3.53513,0 6.38116,-2.84567 6.38116,-6.38084 v -6.0441 c 0,-3.53517 -2.84603,-6.38124 -6.38116,-6.38124 h -0.3943 v -0.64388 c 0,-3.53517 -2.84604,-6.38125 -6.38117,-6.38125 z" />
    <rect
       style="fill:#0000ff;fill-rule:evenodd;stroke-width:0.189421"
       id="rect9"
       width="32.856842"
       height="32.856842"
       x="107.54467"
       y="55.035656"
       ry="5.9142499" />
    <circle
       style="fill:#0000ff;fill-rule:evenodd;stroke:#0000ff;stroke-width:0.242118"
       id="circle9"
       cx="169.58661"
       cy="118.0498"
       r="16.428421" />
    <rect
       style="fill:#0000ff;fill-rule:evenodd;stroke-width:0.189421"
       id="rect10"
       width="32.856842"
       height="32.856842"
       x="292.81049"
       y="11.791058"
       ry="5.9142499" />
    <rect
       style="fill:#0000ff;fill-rule:evenodd;stroke-width:0.189421"
       id="rect11"
       width="32.856842"
       height="32.856842"
       x="244.2099"
       y="55.035656"
       ry="5.9142499" />
    <rect
       style="fill:#0000ff;fill-rule:evenodd;stroke-width:0.189421"
       id="rect12"
       width="32.856842"
       height="32.856842"
       x="196.52385"
       y="101.50031"
       ry="5.9142499" />
    <rect
       style="fill:#0000ff;fill-rule:evenodd;stroke-width:0.189421"
       id="rect13"
       width="32.856842"
       height="32.856842"
       x="196.52385"
       y="151.48947"
       ry="5.9142499" />
    <rect
       style="fill:#0000ff;fill-rule:evenodd;stroke-width:0.189421"
       id="rect14"
       width="32.856842"
       height="32.856842"
       x="292.81049"
       y="11.791058"
       ry="5.9142499" />
    <rect
       style="fill:#0000ff;fill-rule:evenodd;stroke-width:0.189421"
       id="rect16"
       width="32.856842"
       height="32.856842"
       x="292.81049"
       y="151.48947"
       ry="5.9142499" />
    <rect
       style="fill:#0000ff;fill-rule:evenodd;stroke-width:0.189421"
       id="rect18"
       width="32.856842"
       height="32.856842"
       x="343.36691"
       y="55.035656"
       ry="5.9142499" />
    <rect
       style="fill:#0000ff;fill-rule:evenodd;stroke-width:0.189421"
       id="rect19"
       width="32.856842"
       height="32.856842"
       x="244.2099"
       y="151.48947"
       ry="5.9142499" />
    <path
       id="path19"
       style="fill:#0000ff;fill-rule:evenodd;stroke-width:0.210514"
       d="m 257.86648,101.50039 c -3.53512,0 -6.38116,2.84607 -6.38116,6.38124 v 0.64389 h -0.89426 c -3.53514,0 -6.38117,2.84607 -6.38117,6.38124 v 6.0441 c 0,3.53517 2.84603,6.38083 6.38117,6.38083 h 0.89426 v 0.6443 c 0,3.53517 2.84604,6.38124 6.38116,6.38124 h 6.04361 c 3.53513,0 6.38116,-2.84607 6.38116,-6.38124 v -0.6443 h 0.39431 c 3.53512,0 6.38116,-2.84566 6.38116,-6.38083 v -6.0441 c 0,-3.53517 -2.84604,-6.38124 -6.38116,-6.38124 h -0.39431 v -0.64389 c 0,-3.53517 -2.84603,-6.38124 -6.38116,-6.38124 z" />
    <path
       id="path20"
       style="fill:#0000ff;fill-rule:evenodd;stroke-width:0.210514"
       d="m 306.46707,55.035653 c -3.53512,0 -6.38116,2.846074 -6.38116,6.381244 v 0.643885 h -0.89427 c -3.53513,0 -6.38117,2.846074 -6.38117,6.381244 v 6.044102 c 0,3.535184 2.84604,6.38085 6.38117,6.38085 h 0.89427 v 0.644293 c 0,3.53517 2.84604,6.381244 6.38116,6.381244 h 6.04361 c 3.53512,0 6.38116,-2.846074 6.38116,-6.381244 v -0.644293 h 0.3943 c 3.53513,0 6.38117,-2.845666 6.38117,-6.38085 v -6.044102 c 0,-3.53517 -2.84604,-6.381244 -6.38117,-6.381244 h -0.3943 v -0.643885 c 0,-3.53517 -2.84604,-6.381244 -6.38116,-6.381244 z" />
    <path
       id="path21"
       style="fill:#0000ff;fill-rule:evenodd;stroke-width:0.210514"
       d="m 357.02351,101.50039 c -3.53512,0 -6.38117,2.84607 -6.38117,6.38124 v 0.64389 h -0.89426 c -3.53513,0 -6.38117,2.84607 -6.38117,6.38124 v 6.0441 c 0,3.53517 2.84604,6.38083 6.38117,6.38083 h 0.89426 v 0.6443 c 0,3.53517 2.84605,6.38124 6.38117,6.38124 h 6.0436 c 3.53513,0 6.38117,-2.84607 6.38117,-6.38124 v -0.6443 h 0.3943 c 3.53513,0 6.38117,-2.84566 6.38117,-6.38083 v -6.0441 c 0,-3.53517 -2.84604,-6.38124 -6.38117,-6.38124 h -0.3943 v -0.64389 c 0,-3.53517 -2.84604,-6.38124 -6.38117,-6.38124 z" />
    <path
       id="path22"
       style="fill:#0000ff;fill-rule:evenodd;stroke-width:0.210514"
       d="m 357.02351,11.791063 c -3.53512,0 -6.38117,2.846075 -6.38117,6.381245 v 0.643884 h -0.89426 c -3.53513,0 -6.38117,2.846075 -6.38117,6.381245 v 6.044096 c 0,3.53517 2.84604,6.380836 6.38117,6.380836 h 0.89426 v 0.644293 c 0,3.53517 2.84605,6.381244 6.38117,6.381244 h 6.0436 c 3.53513,0 6.38117,-2.846074 6.38117,-6.381244 v -0.644293 h 0.3943 c 3.53513,0 6.38117,-2.845666 6.38117,-6.380836 v -6.044096 c 0,-3.53517 -2.84604,-6.381245 -6.38117,-6.381245 h -0.3943 v -0.643884 c 0,-3.53517 -2.84604,-6.381245 -6.38117,-6.381245 z" />
    <path
       id="path23"
       style="fill:#0000ff;fill-rule:evenodd;stroke-width:0.210514"
       d="m 400.86319,55.035653 c -3.53511,0 -6.38116,2.846074 -6.38116,6.381244 v 0.643885 h -0.89426 c -3.53513,0 -6.38117,2.846074 -6.38117,6.381244 v 6.044094 c 0,3.535192 2.84604,6.380858 6.38117,6.380858 h 0.89426 v 0.644293 c 0,3.53517 2.84605,6.381244 6.38116,6.381244 h 6.04361 c 3.53513,0 6.38117,-2.846074 6.38117,-6.381244 v -0.644293 h 0.3943 c 3.53513,0 6.38116,-2.845666 6.38116,-6.380858 v -6.044094 c 0,-3.53517 -2.84603,-6.381244 -6.38116,-6.381244 h -0.3943 v -0.643885 c 0,-3.53517 -2.84604,-6.381244 -6.38117,-6.381244 z" />
    <path
       id="path24"
       style="fill:#0000ff;fill-rule:evenodd;stroke-width:0.210514"
       d="m 400.86319,151.48954 c -3.53511,0 -6.38116,2.84608 -6.38116,6.38125 v 0.64388 h -0.89426 c -3.53513,0 -6.38117,2.84607 -6.38117,6.38124 V 170.94 c 0,3.53517 2.84604,6.38084 6.38117,6.38084 h 0.89426 v 0.64429 c 0,3.53517 2.84605,6.38125 6.38116,6.38125 h 6.04361 c 3.53513,0 6.38117,-2.84608 6.38117,-6.38125 v -0.64429 h 0.3943 c 3.53513,0 6.38116,-2.84567 6.38116,-6.38084 v -6.04409 c 0,-3.53517 -2.84603,-6.38124 -6.38116,-6.38124 h -0.3943 v -0.64388 c 0,-3.53517 -2.84604,-6.38125 -6.38117,-6.38125 z" />
    <circle
       style="fill:#0000ff;fill-rule:evenodd;stroke:#0000ff;stroke-width:0.242118"
       id="circle24"
       cx="212.95227"
       cy="71.585136"
       r="16.428421" />
    <circle
       style="fill:#0000ff;fill-rule:evenodd;stroke:#0000ff;stroke-width:0.242118"
       id="circle25"
       cx="212.95227"
       cy="71.585136"
       r="16.428421" />
    <circle
       style="fill:#0000ff;fill-rule:evenodd;stroke:#0000ff;stroke-width:0.242118"
       id="circle26"
       cx="260.63834"
       cy="28.340546"
       r="16.428421" />
    <circle
       style="fill:#0000ff;fill-rule:evenodd;stroke:#0000ff;stroke-width:0.242118"
       id="circle27"
       cx="309.23889"
       cy="118.0498"
       r="16.428421" />
    <circle
       style="fill:#0000ff;fill-rule:evenodd;stroke:#0000ff;stroke-width:0.242118"
       id="circle28"
       cx="359.79532"
       cy="168.03896"
       r="16.428421" />
    <circle
       style="fill:#0000ff;fill-rule:evenodd;stroke:#0000ff;stroke-width:0.242118"
       id="circle29"
       cx="403.63501"
       cy="28.340546"
       r="16.428421" />
    <circle
       style="fill:#0000ff;fill-rule:evenodd;stroke:#0000ff;stroke-width:0.242118"
       id="circle30"
       cx="403.63501"
       cy="118.0498"
       r="16.428421" />
    <rect
       style="fill:none;fill-rule:evenodd;stroke:#0000ff;stroke-width:0.193186"
       id="rect30"
       width="431.46603"
       height="195.25381"
       x="3.8064747"
       y="1.5011708"
       ry="5.9142499" />
    <path
       id="rect31"
       style="fill:none;fill-rule:evenodd;stroke:#ff0000;stroke-width:0.197302"
       d="M 5.9469691,7.9555388 V 52.276271 H 56.406642 V 140.60871 H 100.72737 V 52.276271 h 0.0369 V 7.9555388 Z" />
    <rect
       style="fill:none;fill-rule:evenodd;stroke:#ff0000;stroke-width:0.245077"
       id="rect31-8"
       width="135.30725"
       height="47.919956"
       x="53.337357"
       y="-54.247936"
       ry="0"
       transform="rotate(90)" />
    <rect
       style="fill:none;fill-rule:evenodd;stroke:#ff0000;stroke-width:0.282058"
       id="rect31-5"
       width="90.524597"
       height="94.872932"
       x="193.43492"
       y="93.650208"
       ry="0" />
    <path
       id="rect31-5-27"
       style="fill:none;fill-rule:evenodd;stroke:#ff0000;stroke-width:0.187974"
       d="M 240.37376,7.9896376 V 49.932368 h -46.86525 v 42.223483 h 90.338 V 49.932368 h -0.0687 V 7.9896376 Z" />
    <path
       id="rect31-5-7"
       style="fill:none;fill-rule:evenodd;stroke:#ff0000;stroke-width:0.197302"
       d="m 101.94611,50.06331 v 94.43327 H 56.136483 v 44.28225 H 191.87384 v -44.28225 h -45.607 V 50.06331 Z" />
    <path
       id="rect31-5-2"
       style="fill:none;fill-rule:evenodd;stroke:#ff0000;stroke-width:0.184823"
       d="M 101.83065,7.9057329 V 48.66837 h 46.19071 v 94.5593 h 44.21999 v -94.5593 h 0.0551 V 7.9057329 Z" />
    <rect
       style="fill:none;fill-rule:evenodd;stroke:#ff0000;stroke-width:0.129793"
       id="rect31-5-3"
       width="45.448582"
       height="40.01437"
       x="193.75026"
       y="7.8535233"
       ry="0" />
    <rect
       style="fill:none;fill-rule:evenodd;stroke:#ff0000;stroke-width:0.236198"
       id="rect31-5-38"
       width="44.945435"
       height="133.99762"
       x="287.45404"
       y="8.0361767"
       ry="0" />
    <path
       id="rect31-5-77"
       style="fill:none;fill-rule:evenodd;stroke:#ff0000;stroke-width:0.238529"
       d="M 333.93993,7.5884095 V 47.279091 h 48.39198 V 144.73882 H 287.5749 v 44.13359 h 139.16868 v -44.13359 h -0.27733 V 7.7499009 H 383.33519 V 7.5884095 Z" />
    <rect
       style="fill:none;fill-rule:evenodd;stroke:#ff0000;stroke-width:0.202587"
       id="rect31-5-77-9"
       width="94.373093"
       height="46.946949"
       x="48.693508"
       y="-380.99426"
       ry="0"
       transform="rotate(90)" />
    <rect
       style="fill:#0000ff;fill-rule:evenodd;stroke-width:0.189421"
       id="rect32"
       width="32.856842"
       height="32.856842"
       x="15.978811"
       y="11.791058"
       ry="5.9142499" />
    <path
       id="path32"
       style="fill:#0000ff;fill-rule:evenodd;stroke-width:0.210514"
       d="m 75.707094,11.791063 c -3.535123,0 -6.381161,2.846074 -6.381161,6.381247 v 0.643881 h -0.894266 c -3.535134,0 -6.381173,2.846073 -6.381173,6.381247 v 6.044094 c 0,3.535173 2.846039,6.380835 6.381173,6.380835 h 0.894266 v 0.644293 c 0,3.535173 2.846038,6.381246 6.381161,6.381246 h 6.043608 c 3.535126,0 6.381164,-2.846073 6.381164,-6.381246 v -0.644293 h 0.394304 c 3.535126,0 6.381164,-2.845662 6.381164,-6.380835 v -6.044094 c 0,-3.535174 -2.846038,-6.381247 -6.381164,-6.381247 H 88.131866 V 18.17231 c 0,-3.535173 -2.846038,-6.381247 -6.381164,-6.381247 z" />
    <circle
       style="fill:#0000ff;fill-rule:evenodd;stroke:#0000ff;stroke-width:0.242118"
       id="circle32"
       cx="123.97309"
       cy="28.340546"
       r="16.428421" />
    <circle
       style="fill:#0000ff;fill-rule:evenodd;stroke:#0000ff;stroke-width:0.242118"
       id="circle33"
       cx="32.407234"
       cy="71.585136"
       r="16.428421" />
    <circle
       style="fill:#0000ff;fill-rule:evenodd;stroke:#0000ff;stroke-width:0.242118"
       id="circle34"
       cx="32.407234"
       cy="118.0498"
       r="16.428421" />
    <path
       id="path34"
       style="fill:#0000ff;fill-rule:evenodd;stroke-width:0.210514"
       d="m 29.635412,151.48954 c -3.535121,0 -6.381159,2.84608 -6.381159,6.38125 v 0.64388 h -0.894266 c -3.535134,0 -6.381173,2.84607 -6.381173,6.38124 v 6.0441 c 0,3.53517 2.846039,6.38084 6.381173,6.38084 h 0.894266 v 0.64428 c 0,3.53518 2.846038,6.38125 6.381159,6.38125 h 6.043607 c 3.535126,0 6.381164,-2.84607 6.381164,-6.38125 v -0.64428 h 0.394304 c 3.535126,0 6.381164,-2.84567 6.381164,-6.38084 v -6.0441 c 0,-3.53517 -2.846038,-6.38124 -6.381164,-6.38124 h -0.394304 v -0.64388 c 0,-3.53517 -2.846038,-6.38125 -6.381164,-6.38125 z" />
    <path
       id="path35"
       style="fill:#0000ff;fill-rule:evenodd;stroke-width:0.210514"
       d="m 75.707094,55.035653 c -3.535122,0 -6.381161,2.846073 -6.381161,6.381246 v 0.643881 h -0.894266 c -3.535133,0 -6.381173,2.846074 -6.381173,6.381247 v 6.044101 c 0,3.535184 2.84604,6.38085 6.381173,6.38085 h 0.894266 v 0.644293 c 0,3.53517 2.846039,6.381244 6.381161,6.381244 h 6.043608 c 3.535126,0 6.381164,-2.846074 6.381164,-6.381244 v -0.644293 h 0.394304 c 3.535126,0 6.381164,-2.845666 6.381164,-6.38085 v -6.044101 c 0,-3.535173 -2.846038,-6.381247 -6.381164,-6.381247 h -0.394304 v -0.643881 c 0,-3.535173 -2.846038,-6.381246 -6.381164,-6.381246 z" />
    <path
       id="path36"
       style="fill:#0000ff;fill-rule:evenodd;stroke-width:0.210514"
       d="m 166.81479,55.035653 c -3.53512,0 -6.38116,2.846067 -6.38116,6.381244 v 0.643877 h -0.89426 c -3.53514,0 -6.38118,2.846075 -6.38118,6.381252 v 6.044094 c 0,3.535192 2.84604,6.380858 6.38118,6.380858 h 0.89426 v 0.644293 c 0,3.53517 2.84604,6.381244 6.38116,6.381244 h 6.04361 c 3.53512,0 6.38116,-2.846074 6.38116,-6.381244 v -0.644293 h 0.39431 c 3.53512,0 6.38116,-2.845666 6.38116,-6.380858 v -6.044094 c 0,-3.535177 -2.84604,-6.381252 -6.38116,-6.381252 h -0.39431 v -0.643877 c 0,-3.535177 -2.84604,-6.381244 -6.38116,-6.381244 z" />
    <circle
       style="fill:#0000ff;fill-rule:evenodd;stroke:#0000ff;stroke-width:0.242118"
       id="circle36"
       cx="78.478912"
       cy="118.0498"
       r="16.428421" />
    <rect
       style="fill:#0000ff;fill-rule:evenodd;stroke-width:0.189421"
       id="rect36"
       width="32.856842"
       height="32.856842"
       x="107.54467"
       y="101.50031"
       ry="5.9142499" />
    <rect
       style="fill:#0000ff;fill-rule:evenodd;stroke-width:0.189421"
       id="rect37"
       width="32.856842"
       height="32.856842"
       x="62.050488"
       y="151.48947"
       ry="5.9142499" />
    <rect
       style="fill:#0000ff;fill-rule:evenodd;stroke-width:0.189421"
       id="rect38"
       width="32.856842"
       height="32.856842"
       x="153.15819"
       y="11.791058"
       ry="5.9142499" />
    <path
       id="path38"
       style="fill:#0000ff;fill-rule:evenodd;stroke-width:0.210514"
       d="m 210.18044,11.791063 c -3.53512,0 -6.38116,2.846074 -6.38116,6.381247 v 0.643881 h -0.89426 c -3.53514,0 -6.38117,2.846073 -6.38117,6.381248 v 6.044096 c 0,3.53517 2.84603,6.380836 6.38117,6.380836 h 0.89426 v 0.644293 c 0,3.53517 2.84604,6.381245 6.38116,6.381245 h 6.04361 c 3.53513,0 6.38116,-2.846075 6.38116,-6.381245 v -0.644293 h 0.39431 c 3.53512,0 6.38116,-2.845666 6.38116,-6.380836 v -6.044096 c 0,-3.535175 -2.84604,-6.381248 -6.38116,-6.381248 h -0.39431 V 18.17231 c 0,-3.535173 -2.84603,-6.381247 -6.38116,-6.381247 z" />
    <circle
       style="fill:#0000ff;fill-rule:evenodd;stroke:#0000ff;stroke-width:0.242118"
       id="circle38"
       cx="169.58661"
       cy="168.03896"
       r="16.428421" />
    <path
       id="path39"
       style="fill:#0000ff;fill-rule:evenodd;stroke-width:0.210514"
       d="m 121.20129,151.48954 c -3.53512,0 -6.38115,2.84608 -6.38115,6.38125 v 0.64388 h -0.89428 c -3.53513,0 -6.38117,2.84607 -6.38117,6.38124 v 6.0441 c 0,3.53517 2.84604,6.38084 6.38117,6.38084 h 0.89428 v 0.64428 c 0,3.53518 2.84603,6.38125 6.38115,6.38125 h 6.0436 c 3.53513,0 6.38117,-2.84607 6.38117,-6.38125 v -0.64428 h 0.3943 c 3.53513,0 6.38116,-2.84567 6.38116,-6.38084 v -6.0441 c 0,-3.53517 -2.84603,-6.38124 -6.38116,-6.38124 h -0.3943 v -0.64388 c 0,-3.53517 -2.84604,-6.38125 -6.38117,-6.38125 z" />
    <rect
       style="fill:#0000ff;fill-rule:evenodd;stroke-width:0.189421"
       id="rect39"
       width="32.856842"
       height="32.856842"
       x="107.54467"
       y="55.035656"
       ry="5.9142499" />
    <circle
       style="fill:#0000ff;fill-rule:evenodd;stroke:#0000ff;stroke-width:0.242118"
       id="circle39"
       cx="169.58661"
       cy="118.0498"
       r="16.428421" />
    <rect
       style="fill:#0000ff;fill-rule:evenodd;stroke-width:0.189421"
       id="rect40"
       width="32.856842"
       height="32.856842"
       x="292.81049"
       y="11.791058"
       ry="5.9142499" />
    <rect
       style="fill:#0000ff;fill-rule:evenodd;stroke-width:0.189421"
       id="rect41"
       width="32.856842"
       height="32.856842"
       x="244.2099"
       y="55.035656"
       ry="5.9142499" />
    <rect
       style="fill:#0000ff;fill-rule:evenodd;stroke-width:0.189421"
       id="rect42"
       width="32.856842"
       height="32.856842"
       x="196.52385"
       y="101.50031"
       ry="5.9142499" />
    <rect
       style="fill:#0000ff;fill-rule:evenodd;stroke-width:0.189421"
       id="rect43"
       width="32.856842"
       height="32.856842"
       x="196.52385"
       y="151.48947"
       ry="5.9142499" />
    <rect
       style="fill:#0000ff;fill-rule:evenodd;stroke-width:0.189421"
       id="rect44"
       width="32.856842"
       height="32.856842"
       x="292.81049"
       y="11.791058"
       ry="5.9142499" />
    <rect
       style="fill:#0000ff;fill-rule:evenodd;stroke-width:0.189421"
       id="rect45"
       width="32.856842"
       height="32.856842"
       x="292.81049"
       y="151.48947"
       ry="5.9142499" />
    <rect
       style="fill:#0000ff;fill-rule:evenodd;stroke-width:0.189421"
       id="rect46"
       width="32.856842"
       height="32.856842"
       x="343.36691"
       y="55.035656"
       ry="5.9142499" />
    <rect
       style="fill:#0000ff;fill-rule:evenodd;stroke-width:0.189421"
       id="rect47"
       width="32.856842"
       height="32.856842"
       x="244.2099"
       y="151.48947"
       ry="5.9142499" />
    <path
       id="path47"
       style="fill:#0000ff;fill-rule:evenodd;stroke-width:0.210514"
       d="m 257.86648,101.50039 c -3.53512,0 -6.38116,2.84607 -6.38116,6.38124 v 0.64389 h -0.89426 c -3.53514,0 -6.38117,2.84607 -6.38117,6.38124 v 6.0441 c 0,3.53517 2.84603,6.38083 6.38117,6.38083 h 0.89426 v 0.6443 c 0,3.53517 2.84604,6.38124 6.38116,6.38124 h 6.04361 c 3.53513,0 6.38116,-2.84607 6.38116,-6.38124 v -0.6443 h 0.39431 c 3.53512,0 6.38116,-2.84566 6.38116,-6.38083 v -6.0441 c 0,-3.53517 -2.84604,-6.38124 -6.38116,-6.38124 h -0.39431 v -0.64389 c 0,-3.53517 -2.84603,-6.38124 -6.38116,-6.38124 z" />
    <path
       id="path48"
       style="fill:#0000ff;fill-rule:evenodd;stroke-width:0.210514"
       d="m 306.46707,55.035653 c -3.53512,0 -6.38116,2.846074 -6.38116,6.381244 v 0.643885 h -0.89427 c -3.53513,0 -6.38117,2.846074 -6.38117,6.381244 v 6.044102 c 0,3.535184 2.84604,6.38085 6.38117,6.38085 h 0.89427 v 0.644293 c 0,3.53517 2.84604,6.381244 6.38116,6.381244 h 6.04361 c 3.53512,0 6.38116,-2.846074 6.38116,-6.381244 v -0.644293 h 0.3943 c 3.53513,0 6.38117,-2.845666 6.38117,-6.38085 v -6.044102 c 0,-3.53517 -2.84604,-6.381244 -6.38117,-6.381244 h -0.3943 v -0.643885 c 0,-3.53517 -2.84604,-6.381244 -6.38116,-6.381244 z" />
    <path
       id="path49"
       style="fill:#0000ff;fill-rule:evenodd;stroke-width:0.210514"
       d="m 357.02351,101.50039 c -3.53512,0 -6.38117,2.84607 -6.38117,6.38124 v 0.64389 h -0.89426 c -3.53513,0 -6.38117,2.84607 -6.38117,6.38124 v 6.0441 c 0,3.53517 2.84604,6.38083 6.38117,6.38083 h 0.89426 v 0.6443 c 0,3.53517 2.84605,6.38124 6.38117,6.38124 h 6.0436 c 3.53513,0 6.38117,-2.84607 6.38117,-6.38124 v -0.6443 h 0.3943 c 3.53513,0 6.38117,-2.84566 6.38117,-6.38083 v -6.0441 c 0,-3.53517 -2.84604,-6.38124 -6.38117,-6.38124 h -0.3943 v -0.64389 c 0,-3.53517 -2.84604,-6.38124 -6.38117,-6.38124 z" />
    <path
       id="path50"
       style="fill:#0000ff;fill-rule:evenodd;stroke-width:0.210514"
       d="m 357.02351,11.791063 c -3.53512,0 -6.38117,2.846075 -6.38117,6.381245 v 0.643884 h -0.89426 c -3.53513,0 -6.38117,2.846075 -6.38117,6.381245 v 6.044096 c 0,3.53517 2.84604,6.380836 6.38117,6.380836 h 0.89426 v 0.644293 c 0,3.53517 2.84605,6.381244 6.38117,6.381244 h 6.0436 c 3.53513,0 6.38117,-2.846074 6.38117,-6.381244 v -0.644293 h 0.3943 c 3.53513,0 6.38117,-2.845666 6.38117,-6.380836 v -6.044096 c 0,-3.53517 -2.84604,-6.381245 -6.38117,-6.381245 h -0.3943 v -0.643884 c 0,-3.53517 -2.84604,-6.381245 -6.38117,-6.381245 z" />
    <path
       id="path51"
       style="fill:#0000ff;fill-rule:evenodd;stroke-width:0.210514"
       d="m 400.86319,55.035653 c -3.53511,0 -6.38116,2.846074 -6.38116,6.381244 v 0.643885 h -0.89426 c -3.53513,0 -6.38117,2.846074 -6.38117,6.381244 v 6.044094 c 0,3.535192 2.84604,6.380858 6.38117,6.380858 h 0.89426 v 0.644293 c 0,3.53517 2.84605,6.381244 6.38116,6.381244 h 6.04361 c 3.53513,0 6.38117,-2.846074 6.38117,-6.381244 v -0.644293 h 0.3943 c 3.53513,0 6.38116,-2.845666 6.38116,-6.380858 v -6.044094 c 0,-3.53517 -2.84603,-6.381244 -6.38116,-6.381244 h -0.3943 v -0.643885 c 0,-3.53517 -2.84604,-6.381244 -6.38117,-6.381244 z" />
    <path
       id="path52"
       style="fill:#0000ff;fill-rule:evenodd;stroke-width:0.210514"
       d="m 400.86319,151.48954 c -3.53511,0 -6.38116,2.84608 -6.38116,6.38125 v 0.64388 h -0.89426 c -3.53513,0 -6.38117,2.84607 -6.38117,6.38124 V 170.94 c 0,3.53517 2.84604,6.38084 6.38117,6.38084 h 0.89426 v 0.64429 c 0,3.53517 2.84605,6.38125 6.38116,6.38125 h 6.04361 c 3.53513,0 6.38117,-2.84608 6.38117,-6.38125 v -0.64429 h 0.3943 c 3.53513,0 6.38116,-2.84567 6.38116,-6.38084 v -6.04409 c 0,-3.53517 -2.84603,-6.38124 -6.38116,-6.38124 h -0.3943 v -0.64388 c 0,-3.53517 -2.84604,-6.38125 -6.38117,-6.38125 z" />
    <circle
       style="fill:#0000ff;fill-rule:evenodd;stroke:#0000ff;stroke-width:0.242118"
       id="circle52"
       cx="212.95227"
       cy="71.585136"
       r="16.428421" />
    <circle
       style="fill:#0000ff;fill-rule:evenodd;stroke:#0000ff;stroke-width:0.242118"
       id="circle53"
       cx="212.95227"
       cy="71.585136"
       r="16.428421" />
    <circle
       style="fill:#0000ff;fill-rule:evenodd;stroke:#0000ff;stroke-width:0.242118"
       id="circle54"
       cx="260.63834"
       cy="28.340546"
       r="16.428421" />
    <circle
       style="fill:#0000ff;fill-rule:evenodd;stroke:#0000ff;stroke-width:0.242118"
       id="circle55"
       cx="309.23889"
       cy="118.0498"
       r="16.428421" />
    <circle
       style="fill:#0000ff;fill-rule:evenodd;stroke:#0000ff;stroke-width:0.242118"
       id="circle56"
       cx="359.79532"
       cy="168.03896"
       r="16.428421" />
    <circle
       style="fill:#0000ff;fill-rule:evenodd;stroke:#0000ff;stroke-width:0.242118"
       id="circle57"
       cx="403.63501"
       cy="28.340546"
       r="16.428421" />
    <circle
       style="fill:#0000ff;fill-rule:evenodd;stroke:#0000ff;stroke-width:0.242118"
       id="circle58"
       cx="403.63501"
       cy="118.0498"
       r="16.428421" />
    <rect
       style="fill:none;fill-rule:evenodd;stroke:#0000ff;stroke-width:0.193186"
       id="rect58"
       width="431.46603"
       height="195.25381"
       x="3.8064747"
       y="1.5011708"
       ry="5.9142499" />
    <path
       id="path58"
       style="fill:none;fill-rule:evenodd;stroke:#ff0000;stroke-width:0.197302"
       d="M 5.9469691,7.9555388 V 52.276271 H 56.406642 V 140.60871 H 100.72737 V 52.276271 h 0.0369 V 7.9555388 Z" />
    <rect
       style="fill:none;fill-rule:evenodd;stroke:#ff0000;stroke-width:0.245077"
       id="rect59"
       width="135.30725"
       height="47.919956"
       x="53.337357"
       y="-54.247936"
       ry="0"
       transform="rotate(90)" />
    <rect
       style="fill:none;fill-rule:evenodd;stroke:#ff0000;stroke-width:0.282058"
       id="rect60"
       width="90.524597"
       height="94.872932"
       x="193.43492"
       y="93.650208"
       ry="0" />
    <path
       id="path60"
       style="fill:none;fill-rule:evenodd;stroke:#ff0000;stroke-width:0.187974"
       d="M 240.37376,7.9896376 V 49.932368 h -46.86525 v 42.223483 h 90.338 V 49.932368 h -0.0687 V 7.9896376 Z" />
    <path
       id="path61"
       style="fill:none;fill-rule:evenodd;stroke:#ff0000;stroke-width:0.197302"
       d="m 101.94611,50.06331 v 94.43327 H 56.136483 v 44.28225 H 191.87384 v -44.28225 h -45.607 V 50.06331 Z" />
    <path
       id="path62"
       style="fill:none;fill-rule:evenodd;stroke:#ff0000;stroke-width:0.184823"
       d="M 101.83065,7.9057329 V 48.66837 h 46.19071 v 94.5593 h 44.21999 v -94.5593 h 0.0551 V 7.9057329 Z" />
    <rect
       style="fill:none;fill-rule:evenodd;stroke:#ff0000;stroke-width:0.129793"
       id="rect62"
       width="45.448582"
       height="40.01437"
       x="193.75026"
       y="7.8535233"
       ry="0" />
    <rect
       style="fill:none;fill-rule:evenodd;stroke:#ff0000;stroke-width:0.236198"
       id="rect63"
       width="44.945435"
       height="133.99762"
       x="287.45404"
       y="8.0361767"
       ry="0" />
    <path
       id="path63"
       style="fill:none;fill-rule:evenodd;stroke:#ff0000;stroke-width:0.238529"
       d="M 333.93993,7.5884095 V 47.279091 h 48.39198 V 144.73882 H 287.5749 v 44.13359 h 139.16868 v -44.13359 h -0.27733 V 7.7499009 H 383.33519 V 7.5884095 Z" />
    <rect
       style="fill:none;fill-rule:evenodd;stroke:#ff0000;stroke-width:0.202587"
       id="rect64"
       width="94.373093"
       height="46.946949"
       x="48.693508"
       y="-380.99426"
       ry="0"
       transform="rotate(90)" />
    <rect
       style="fill:#0000ff;fill-rule:evenodd;stroke-width:0.189421;stroke:#0000ff"
       id="rect65"
       width="32.856842"
       height="32.856842"
       x="39.031853"
       y="216.96312"
       ry="5.9142499" />
    <path
       id="path65"
       style="fill:#0000ff;fill-rule:evenodd;stroke-width:0.210514;stroke:#0000ff"
       d="m 98.760134,216.96312 c -3.535123,0 -6.381161,2.84607 -6.381161,6.38125 v 0.64388 h -0.894266 c -3.535134,0 -6.381173,2.84607 -6.381173,6.38125 v 6.04409 c 0,3.53517 2.846039,6.38084 6.381173,6.38084 h 0.894266 v 0.64429 c 0,3.53517 2.846038,6.38125 6.381161,6.38125 h 6.043606 c 3.53513,0 6.38117,-2.84608 6.38117,-6.38125 v -0.64429 h 0.3943 c 3.53513,0 6.38117,-2.84567 6.38117,-6.38084 v -6.04409 c 0,-3.53518 -2.84604,-6.38125 -6.38117,-6.38125 h -0.3943 v -0.64388 c 0,-3.53518 -2.84604,-6.38125 -6.38117,-6.38125 z" />
    <circle
       style="fill:#0000ff;fill-rule:evenodd;stroke:#0000ff;stroke-width:0.242118"
       id="circle65"
       cx="147.02614"
       cy="233.5126"
       r="16.428421" />
    <circle
       style="fill:#0000ff;fill-rule:evenodd;stroke:#0000ff;stroke-width:0.242118"
       id="circle66"
       cx="55.460274"
       cy="276.7572"
       r="16.428421" />
    <circle
       style="fill:#0000ff;fill-rule:evenodd;stroke:#0000ff;stroke-width:0.242118"
       id="circle67"
       cx="55.460274"
       cy="323.22186"
       r="16.428421" />
    <path
       id="path67"
       style="fill:#0000ff;fill-rule:evenodd;stroke-width:0.210514;stroke:#0000ff"
       d="m 52.688452,356.6616 c -3.535121,0 -6.381159,2.84608 -6.381159,6.38125 v 0.64388 h -0.894266 c -3.535134,0 -6.381173,2.84607 -6.381173,6.38124 v 6.0441 c 0,3.53517 2.846039,6.38084 6.381173,6.38084 h 0.894266 v 0.64428 c 0,3.53518 2.846038,6.38125 6.381159,6.38125 h 6.043607 c 3.535126,0 6.381164,-2.84607 6.381164,-6.38125 v -0.64428 h 0.394304 c 3.535126,0 6.381164,-2.84567 6.381164,-6.38084 v -6.0441 c 0,-3.53517 -2.846038,-6.38124 -6.381164,-6.38124 h -0.394304 v -0.64388 c 0,-3.53517 -2.846038,-6.38125 -6.381164,-6.38125 z" />
    <path
       id="path68"
       style="fill:#0000ff;fill-rule:evenodd;stroke-width:0.210514;stroke:#0000ff"
       d="m 98.760134,260.20771 c -3.535122,0 -6.381161,2.84608 -6.381161,6.38125 v 0.64388 h -0.894266 c -3.535133,0 -6.381173,2.84607 -6.381173,6.38125 v 6.0441 c 0,3.53518 2.84604,6.38085 6.381173,6.38085 h 0.894266 v 0.64429 c 0,3.53517 2.846039,6.38124 6.381161,6.38124 h 6.043606 c 3.53513,0 6.38117,-2.84607 6.38117,-6.38124 v -0.64429 h 0.3943 c 3.53513,0 6.38117,-2.84567 6.38117,-6.38085 v -6.0441 c 0,-3.53518 -2.84604,-6.38125 -6.38117,-6.38125 h -0.3943 v -0.64388 c 0,-3.53517 -2.84604,-6.38125 -6.38117,-6.38125 z" />
    <path
       id="path69"
       style="fill:#0000ff;fill-rule:evenodd;stroke-width:0.210514;stroke:#0000ff"
       d="m 189.86783,260.20771 c -3.53512,0 -6.38116,2.84607 -6.38116,6.38125 v 0.64387 h -0.89426 c -3.53514,0 -6.38118,2.84608 -6.38118,6.38126 v 6.04409 c 0,3.53519 2.84604,6.38086 6.38118,6.38086 h 0.89426 v 0.64429 c 0,3.53517 2.84604,6.38124 6.38116,6.38124 h 6.04361 c 3.53512,0 6.38116,-2.84607 6.38116,-6.38124 v -0.64429 h 0.39431 c 3.53512,0 6.38116,-2.84567 6.38116,-6.38086 v -6.04409 c 0,-3.53518 -2.84604,-6.38126 -6.38116,-6.38126 h -0.39431 v -0.64387 c 0,-3.53518 -2.84604,-6.38125 -6.38116,-6.38125 z" />
    <circle
       style="fill:#0000ff;fill-rule:evenodd;stroke:#0000ff;stroke-width:0.242118"
       id="circle69"
       cx="101.53195"
       cy="323.22186"
       r="16.428421" />
    <rect
       style="fill:#0000ff;fill-rule:evenodd;stroke-width:0.189421;stroke:#0000ff"
       id="rect69"
       width="32.856842"
       height="32.856842"
       x="130.5977"
       y="306.67236"
       ry="5.9142499" />
    <rect
       style="fill:#0000ff;fill-rule:evenodd;stroke-width:0.189421;stroke:#0000ff"
       id="rect70"
       width="32.856842"
       height="32.856842"
       x="85.103531"
       y="356.66153"
       ry="5.9142499" />
    <rect
       style="fill:#0000ff;fill-rule:evenodd;stroke-width:0.189421;stroke:#0000ff"
       id="rect71"
       width="32.856842"
       height="32.856842"
       x="176.21123"
       y="216.96312"
       ry="5.9142499" />
    <path
       id="path71"
       style="fill:#0000ff;fill-rule:evenodd;stroke-width:0.210514;stroke:#0000ff"
       d="m 233.23348,216.96312 c -3.53512,0 -6.38116,2.84607 -6.38116,6.38125 v 0.64388 h -0.89426 c -3.53514,0 -6.38117,2.84607 -6.38117,6.38125 v 6.04409 c 0,3.53517 2.84603,6.38084 6.38117,6.38084 h 0.89426 v 0.64429 c 0,3.53517 2.84604,6.38125 6.38116,6.38125 h 6.04361 c 3.53513,0 6.38116,-2.84608 6.38116,-6.38125 v -0.64429 h 0.39431 c 3.53512,0 6.38116,-2.84567 6.38116,-6.38084 v -6.04409 c 0,-3.53518 -2.84604,-6.38125 -6.38116,-6.38125 h -0.39431 v -0.64388 c 0,-3.53518 -2.84603,-6.38125 -6.38116,-6.38125 z" />
    <circle
       style="fill:#0000ff;fill-rule:evenodd;stroke:#0000ff;stroke-width:0.242118"
       id="circle71"
       cx="192.63965"
       cy="373.211"
       r="16.428421" />
    <path
       id="path72"
       style="fill:#0000ff;fill-rule:evenodd;stroke-width:0.210514;stroke:#0000ff"
       d="m 144.25433,356.6616 c -3.53512,0 -6.38115,2.84608 -6.38115,6.38125 v 0.64388 h -0.89428 c -3.53513,0 -6.38117,2.84607 -6.38117,6.38124 v 6.0441 c 0,3.53517 2.84604,6.38084 6.38117,6.38084 h 0.89428 v 0.64428 c 0,3.53518 2.84603,6.38125 6.38115,6.38125 h 6.0436 c 3.53513,0 6.38117,-2.84607 6.38117,-6.38125 v -0.64428 h 0.3943 c 3.53513,0 6.38116,-2.84567 6.38116,-6.38084 v -6.0441 c 0,-3.53517 -2.84603,-6.38124 -6.38116,-6.38124 h -0.3943 v -0.64388 c 0,-3.53517 -2.84604,-6.38125 -6.38117,-6.38125 z" />
    <rect
       style="fill:#0000ff;fill-rule:evenodd;stroke-width:0.189421;stroke:#0000ff"
       id="rect72"
       width="32.856842"
       height="32.856842"
       x="130.5977"
       y="260.2077"
       ry="5.9142499" />
    <circle
       style="fill:#0000ff;fill-rule:evenodd;stroke:#0000ff;stroke-width:0.242118"
       id="circle72"
       cx="192.63965"
       cy="323.22186"
       r="16.428421" />
    <rect
       style="fill:#0000ff;fill-rule:evenodd;stroke-width:0.189421;stroke:#0000ff"
       id="rect73"
       width="32.856842"
       height="32.856842"
       x="315.86353"
       y="216.96312"
       ry="5.9142499" />
    <rect
       style="fill:#0000ff;fill-rule:evenodd;stroke-width:0.189421;stroke:#0000ff"
       id="rect74"
       width="32.856842"
       height="32.856842"
       x="267.26294"
       y="260.2077"
       ry="5.9142499" />
    <rect
       style="fill:#0000ff;fill-rule:evenodd;stroke-width:0.189421;stroke:#0000ff"
       id="rect75"
       width="32.856842"
       height="32.856842"
       x="219.57689"
       y="306.67236"
       ry="5.9142499" />
    <rect
       style="fill:#0000ff;fill-rule:evenodd;stroke-width:0.189421;stroke:#0000ff"
       id="rect76"
       width="32.856842"
       height="32.856842"
       x="219.57689"
       y="356.66153"
       ry="5.9142499" />
    <rect
       style="fill:#0000ff;fill-rule:evenodd;stroke-width:0.189421;stroke:#0000ff"
       id="rect77"
       width="32.856842"
       height="32.856842"
       x="315.86353"
       y="216.96312"
       ry="5.9142499" />
    <rect
       style="fill:#0000ff;fill-rule:evenodd;stroke-width:0.189421;stroke:#0000ff"
       id="rect78"
       width="32.856842"
       height="32.856842"
       x="315.86353"
       y="356.66153"
       ry="5.9142499" />
    <rect
       style="fill:#0000ff;fill-rule:evenodd;stroke-width:0.189421;stroke:#0000ff"
       id="rect79"
       width="32.856842"
       height="32.856842"
       x="366.41995"
       y="260.2077"
       ry="5.9142499" />
    <rect
       style="fill:#0000ff;fill-rule:evenodd;stroke-width:0.189421;stroke:#0000ff"
       id="rect80"
       width="32.856842"
       height="32.856842"
       x="267.26294"
       y="356.66153"
       ry="5.9142499" />
    <path
       id="path80"
       style="fill:#0000ff;fill-rule:evenodd;stroke-width:0.210514;stroke:#0000ff"
       d="m 280.91952,306.67245 c -3.53512,0 -6.38116,2.84607 -6.38116,6.38124 v 0.64389 h -0.89426 c -3.53514,0 -6.38117,2.84607 -6.38117,6.38124 v 6.0441 c 0,3.53517 2.84603,6.38083 6.38117,6.38083 h 0.89426 v 0.6443 c 0,3.53517 2.84604,6.38124 6.38116,6.38124 h 6.04361 c 3.53513,0 6.38116,-2.84607 6.38116,-6.38124 v -0.6443 h 0.39431 c 3.53512,0 6.38116,-2.84566 6.38116,-6.38083 v -6.0441 c 0,-3.53517 -2.84604,-6.38124 -6.38116,-6.38124 h -0.39431 v -0.64389 c 0,-3.53517 -2.84603,-6.38124 -6.38116,-6.38124 z" />
    <path
       id="path81"
       style="fill:#0000ff;fill-rule:evenodd;stroke-width:0.210514;stroke:#0000ff"
       d="m 329.52011,260.20771 c -3.53512,0 -6.38116,2.84608 -6.38116,6.38125 v 0.64388 h -0.89427 c -3.53513,0 -6.38117,2.84608 -6.38117,6.38125 v 6.0441 c 0,3.53518 2.84604,6.38085 6.38117,6.38085 h 0.89427 v 0.64429 c 0,3.53517 2.84604,6.38124 6.38116,6.38124 h 6.04361 c 3.53512,0 6.38116,-2.84607 6.38116,-6.38124 v -0.64429 h 0.3943 c 3.53513,0 6.38117,-2.84567 6.38117,-6.38085 v -6.0441 c 0,-3.53517 -2.84604,-6.38125 -6.38117,-6.38125 h -0.3943 v -0.64388 c 0,-3.53517 -2.84604,-6.38125 -6.38116,-6.38125 z" />
    <path
       id="path82"
       style="fill:#0000ff;fill-rule:evenodd;stroke-width:0.210514;stroke:#0000ff"
       d="m 380.07655,306.67245 c -3.53512,0 -6.38117,2.84607 -6.38117,6.38124 v 0.64389 h -0.89426 c -3.53513,0 -6.38117,2.84607 -6.38117,6.38124 v 6.0441 c 0,3.53517 2.84604,6.38083 6.38117,6.38083 h 0.89426 v 0.6443 c 0,3.53517 2.84605,6.38124 6.38117,6.38124 h 6.0436 c 3.53513,0 6.38117,-2.84607 6.38117,-6.38124 v -0.6443 h 0.3943 c 3.53513,0 6.38117,-2.84566 6.38117,-6.38083 v -6.0441 c 0,-3.53517 -2.84604,-6.38124 -6.38117,-6.38124 h -0.3943 v -0.64389 c 0,-3.53517 -2.84604,-6.38124 -6.38117,-6.38124 z" />
    <path
       id="path83"
       style="fill:#0000ff;fill-rule:evenodd;stroke-width:0.210514;stroke:#0000ff"
       d="m 380.07655,216.96312 c -3.53512,0 -6.38117,2.84608 -6.38117,6.38125 v 0.64388 h -0.89426 c -3.53513,0 -6.38117,2.84607 -6.38117,6.38124 v 6.0441 c 0,3.53517 2.84604,6.38084 6.38117,6.38084 h 0.89426 v 0.64429 c 0,3.53517 2.84605,6.38125 6.38117,6.38125 h 6.0436 c 3.53513,0 6.38117,-2.84608 6.38117,-6.38125 v -0.64429 h 0.3943 c 3.53513,0 6.38117,-2.84567 6.38117,-6.38084 v -6.0441 c 0,-3.53517 -2.84604,-6.38124 -6.38117,-6.38124 h -0.3943 v -0.64388 c 0,-3.53517 -2.84604,-6.38125 -6.38117,-6.38125 z" />
    <path
       id="path84"
       style="fill:#0000ff;fill-rule:evenodd;stroke-width:0.210514;stroke:#0000ff"
       d="m 423.91623,260.20771 c -3.53511,0 -6.38116,2.84608 -6.38116,6.38125 v 0.64388 h -0.89426 c -3.53513,0 -6.38117,2.84608 -6.38117,6.38125 v 6.04409 c 0,3.53519 2.84604,6.38086 6.38117,6.38086 h 0.89426 v 0.64429 c 0,3.53517 2.84605,6.38124 6.38116,6.38124 h 6.04361 c 3.53513,0 6.38117,-2.84607 6.38117,-6.38124 v -0.64429 h 0.3943 c 3.53513,0 6.38116,-2.84567 6.38116,-6.38086 v -6.04409 c 0,-3.53517 -2.84603,-6.38125 -6.38116,-6.38125 h -0.3943 v -0.64388 c 0,-3.53517 -2.84604,-6.38125 -6.38117,-6.38125 z" />
    <path
       id="path85"
       style="fill:#0000ff;fill-rule:evenodd;stroke-width:0.210514;stroke:#0000ff"
       d="m 423.91623,356.6616 c -3.53511,0 -6.38116,2.84608 -6.38116,6.38125 v 0.64388 h -0.89426 c -3.53513,0 -6.38117,2.84607 -6.38117,6.38124 v 6.04409 c 0,3.53517 2.84604,6.38084 6.38117,6.38084 h 0.89426 v 0.64429 c 0,3.53517 2.84605,6.38125 6.38116,6.38125 h 6.04361 c 3.53513,0 6.38117,-2.84608 6.38117,-6.38125 v -0.64429 h 0.3943 c 3.53513,0 6.38116,-2.84567 6.38116,-6.38084 v -6.04409 c 0,-3.53517 -2.84603,-6.38124 -6.38116,-6.38124 h -0.3943 v -0.64388 c 0,-3.53517 -2.84604,-6.38125 -6.38117,-6.38125 z" />
    <circle
       style="fill:#0000ff;fill-rule:evenodd;stroke:#0000ff;stroke-width:0.242118"
       id="circle85"
       cx="236.00531"
       cy="276.7572"
       r="16.428421" />
    <circle
       style="fill:#0000ff;fill-rule:evenodd;stroke:#0000ff;stroke-width:0.242118"
       id="circle86"
       cx="236.00531"
       cy="276.7572"
       r="16.428421" />
    <circle
       style="fill:#0000ff;fill-rule:evenodd;stroke:#0000ff;stroke-width:0.242118"
       id="circle87"
       cx="283.69138"
       cy="233.5126"
       r="16.428421" />
    <circle
       style="fill:#0000ff;fill-rule:evenodd;stroke:#0000ff;stroke-width:0.242118"
       id="circle88"
       cx="332.29193"
       cy="323.22186"
       r="16.428421" />
    <circle
       style="fill:#0000ff;fill-rule:evenodd;stroke:#0000ff;stroke-width:0.242118"
       id="circle89"
       cx="382.84836"
       cy="373.211"
       r="16.428421" />
    <circle
       style="fill:#0000ff;fill-rule:evenodd;stroke:#0000ff;stroke-width:0.242118"
       id="circle90"
       cx="426.68805"
       cy="233.5126"
       r="16.428421" />
    <circle
       style="fill:#0000ff;fill-rule:evenodd;stroke:#0000ff;stroke-width:0.242118"
       id="circle91"
       cx="426.68805"
       cy="323.22186"
       r="16.428421" />
    <rect
       style="fill:#ffff00;fill-rule:evenodd;stroke:#ffff00;stroke-width:0.193186"
       id="rect91"
       width="431.46603"
       height="195.25381"
       x="26.859514"
       y="206.67323"
       ry="5.9142499" />
    <rect
       style="fill:#0000ff;fill-rule:evenodd;stroke-width:0.189421;stroke:#0000ff"
       id="rect98"
       width="32.856842"
       height="32.856842"
       x="39.031853"
       y="216.96312"
       ry="5.9142499" />
    <path
       id="path98"
       style="fill:#0000ff;fill-rule:evenodd;stroke-width:0.210514;stroke:#0000ff"
       d="m 98.760134,216.96312 c -3.535123,0 -6.381161,2.84607 -6.381161,6.38125 v 0.64388 h -0.894266 c -3.535134,0 -6.381173,2.84607 -6.381173,6.38125 v 6.04409 c 0,3.53517 2.846039,6.38084 6.381173,6.38084 h 0.894266 v 0.64429 c 0,3.53517 2.846038,6.38125 6.381161,6.38125 h 6.043606 c 3.53513,0 6.38117,-2.84608 6.38117,-6.38125 v -0.64429 h 0.3943 c 3.53513,0 6.38117,-2.84567 6.38117,-6.38084 v -6.04409 c 0,-3.53518 -2.84604,-6.38125 -6.38117,-6.38125 h -0.3943 v -0.64388 c 0,-3.53518 -2.84604,-6.38125 -6.38117,-6.38125 z" />
    <circle
       style="fill:#0000ff;fill-rule:evenodd;stroke:#0000ff;stroke-width:0.242118"
       id="circle98"
       cx="147.02614"
       cy="233.5126"
       r="16.428421" />
    <circle
       style="fill:#0000ff;fill-rule:evenodd;stroke:#0000ff;stroke-width:0.242118"
       id="circle99"
       cx="55.460274"
       cy="276.7572"
       r="16.428421" />
    <circle
       style="fill:#0000ff;fill-rule:evenodd;stroke:#0000ff;stroke-width:0.242118"
       id="circle100"
       cx="55.460274"
       cy="323.22186"
       r="16.428421" />
    <path
       id="path100"
       style="fill:#0000ff;fill-rule:evenodd;stroke-width:0.210514;stroke:#0000ff"
       d="m 52.688452,356.6616 c -3.535121,0 -6.381159,2.84608 -6.381159,6.38125 v 0.64388 h -0.894266 c -3.535134,0 -6.381173,2.84607 -6.381173,6.38124 v 6.0441 c 0,3.53517 2.846039,6.38084 6.381173,6.38084 h 0.894266 v 0.64428 c 0,3.53518 2.846038,6.38125 6.381159,6.38125 h 6.043607 c 3.535126,0 6.381164,-2.84607 6.381164,-6.38125 v -0.64428 h 0.394304 c 3.535126,0 6.381164,-2.84567 6.381164,-6.38084 v -6.0441 c 0,-3.53517 -2.846038,-6.38124 -6.381164,-6.38124 h -0.394304 v -0.64388 c 0,-3.53517 -2.846038,-6.38125 -6.381164,-6.38125 z" />
    <path
       id="path101"
       style="fill:#0000ff;fill-rule:evenodd;stroke-width:0.210514;stroke:#0000ff"
       d="m 98.760134,260.20771 c -3.535122,0 -6.381161,2.84608 -6.381161,6.38125 v 0.64388 h -0.894266 c -3.535133,0 -6.381173,2.84607 -6.381173,6.38125 v 6.0441 c 0,3.53518 2.84604,6.38085 6.381173,6.38085 h 0.894266 v 0.64429 c 0,3.53517 2.846039,6.38124 6.381161,6.38124 h 6.043606 c 3.53513,0 6.38117,-2.84607 6.38117,-6.38124 v -0.64429 h 0.3943 c 3.53513,0 6.38117,-2.84567 6.38117,-6.38085 v -6.0441 c 0,-3.53518 -2.84604,-6.38125 -6.38117,-6.38125 h -0.3943 v -0.64388 c 0,-3.53517 -2.84604,-6.38125 -6.38117,-6.38125 z" />
    <path
       id="path102"
       style="fill:#0000ff;fill-rule:evenodd;stroke-width:0.210514;stroke:#0000ff"
       d="m 189.86783,260.20771 c -3.53512,0 -6.38116,2.84607 -6.38116,6.38125 v 0.64387 h -0.89426 c -3.53514,0 -6.38118,2.84608 -6.38118,6.38126 v 6.04409 c 0,3.53519 2.84604,6.38086 6.38118,6.38086 h 0.89426 v 0.64429 c 0,3.53517 2.84604,6.38124 6.38116,6.38124 h 6.04361 c 3.53512,0 6.38116,-2.84607 6.38116,-6.38124 v -0.64429 h 0.39431 c 3.53512,0 6.38116,-2.84567 6.38116,-6.38086 v -6.04409 c 0,-3.53518 -2.84604,-6.38126 -6.38116,-6.38126 h -0.39431 v -0.64387 c 0,-3.53518 -2.84604,-6.38125 -6.38116,-6.38125 z" />
    <circle
       style="fill:#0000ff;fill-rule:evenodd;stroke:#0000ff;stroke-width:0.242118"
       id="circle102"
       cx="101.53195"
       cy="323.22186"
       r="16.428421" />
    <rect
       style="fill:#0000ff;fill-rule:evenodd;stroke-width:0.189421;stroke:#0000ff"
       id="rect102"
       width="32.856842"
       height="32.856842"
       x="130.5977"
       y="306.67236"
       ry="5.9142499" />
    <rect
       style="fill:#0000ff;fill-rule:evenodd;stroke-width:0.189421;stroke:#0000ff"
       id="rect103"
       width="32.856842"
       height="32.856842"
       x="85.103531"
       y="356.66153"
       ry="5.9142499" />
    <rect
       style="fill:#0000ff;fill-rule:evenodd;stroke-width:0.189421;stroke:#0000ff"
       id="rect104"
       width="32.856842"
       height="32.856842"
       x="176.21123"
       y="216.96312"
       ry="5.9142499" />
    <path
       id="path104"
       style="fill:#0000ff;fill-rule:evenodd;stroke-width:0.210514;stroke:#0000ff"
       d="m 233.23348,216.96312 c -3.53512,0 -6.38116,2.84607 -6.38116,6.38125 v 0.64388 h -0.89426 c -3.53514,0 -6.38117,2.84607 -6.38117,6.38125 v 6.04409 c 0,3.53517 2.84603,6.38084 6.38117,6.38084 h 0.89426 v 0.64429 c 0,3.53517 2.84604,6.38125 6.38116,6.38125 h 6.04361 c 3.53513,0 6.38116,-2.84608 6.38116,-6.38125 v -0.64429 h 0.39431 c 3.53512,0 6.38116,-2.84567 6.38116,-6.38084 v -6.04409 c 0,-3.53518 -2.84604,-6.38125 -6.38116,-6.38125 h -0.39431 v -0.64388 c 0,-3.53518 -2.84603,-6.38125 -6.38116,-6.38125 z" />
    <circle
       style="fill:#0000ff;fill-rule:evenodd;stroke:#0000ff;stroke-width:0.242118"
       id="circle104"
       cx="192.63965"
       cy="373.211"
       r="16.428421" />
    <path
       id="path105"
       style="fill:#0000ff;fill-rule:evenodd;stroke-width:0.210514;stroke:#0000ff"
       d="m 144.25433,356.6616 c -3.53512,0 -6.38115,2.84608 -6.38115,6.38125 v 0.64388 h -0.89428 c -3.53513,0 -6.38117,2.84607 -6.38117,6.38124 v 6.0441 c 0,3.53517 2.84604,6.38084 6.38117,6.38084 h 0.89428 v 0.64428 c 0,3.53518 2.84603,6.38125 6.38115,6.38125 h 6.0436 c 3.53513,0 6.38117,-2.84607 6.38117,-6.38125 v -0.64428 h 0.3943 c 3.53513,0 6.38116,-2.84567 6.38116,-6.38084 v -6.0441 c 0,-3.53517 -2.84603,-6.38124 -6.38116,-6.38124 h -0.3943 v -0.64388 c 0,-3.53517 -2.84604,-6.38125 -6.38117,-6.38125 z" />
    <rect
       style="fill:#0000ff;fill-rule:evenodd;stroke-width:0.189421;stroke:#0000ff"
       id="rect105"
       width="32.856842"
       height="32.856842"
       x="130.5977"
       y="260.2077"
       ry="5.9142499" />
    <circle
       style="fill:#0000ff;fill-rule:evenodd;stroke:#0000ff;stroke-width:0.242118"
       id="circle105"
       cx="192.63965"
       cy="323.22186"
       r="16.428421" />
    <rect
       style="fill:#0000ff;fill-rule:evenodd;stroke-width:0.189421;stroke:#0000ff"
       id="rect106"
       width="32.856842"
       height="32.856842"
       x="315.86353"
       y="216.96312"
       ry="5.9142499" />
    <rect
       style="fill:#0000ff;fill-rule:evenodd;stroke-width:0.189421;stroke:#0000ff"
       id="rect107"
       width="32.856842"
       height="32.856842"
       x="267.26294"
       y="260.2077"
       ry="5.9142499" />
    <rect
       style="fill:#0000ff;fill-rule:evenodd;stroke-width:0.189421;stroke:#0000ff"
       id="rect108"
       width="32.856842"
       height="32.856842"
       x="219.57689"
       y="306.67236"
       ry="5.9142499" />
    <rect
       style="fill:#0000ff;fill-rule:evenodd;stroke-width:0.189421;stroke:#0000ff"
       id="rect109"
       width="32.856842"
       height="32.856842"
       x="219.57689"
       y="356.66153"
       ry="5.9142499" />
    <rect
       style="fill:#0000ff;fill-rule:evenodd;stroke-width:0.189421;stroke:#0000ff"
       id="rect110"
       width="32.856842"
       height="32.856842"
       x="315.86353"
       y="216.96312"
       ry="5.9142499" />
    <rect
       style="fill:#0000ff;fill-rule:evenodd;stroke-width:0.189421;stroke:#0000ff"
       id="rect111"
       width="32.856842"
       height="32.856842"
       x="315.86353"
       y="356.66153"
       ry="5.9142499" />
    <rect
       style="fill:#0000ff;fill-rule:evenodd;stroke-width:0.189421;stroke:#0000ff"
       id="rect112"
       width="32.856842"
       height="32.856842"
       x="366.41995"
       y="260.2077"
       ry="5.9142499" />
    <rect
       style="fill:#0000ff;fill-rule:evenodd;stroke-width:0.189421;stroke:#0000ff"
       id="rect113"
       width="32.856842"
       height="32.856842"
       x="267.26294"
       y="356.66153"
       ry="5.9142499" />
    <path
       id="path113"
       style="fill:#0000ff;fill-rule:evenodd;stroke-width:0.210514;stroke:#0000ff"
       d="m 280.91952,306.67245 c -3.53512,0 -6.38116,2.84607 -6.38116,6.38124 v 0.64389 h -0.89426 c -3.53514,0 -6.38117,2.84607 -6.38117,6.38124 v 6.0441 c 0,3.53517 2.84603,6.38083 6.38117,6.38083 h 0.89426 v 0.6443 c 0,3.53517 2.84604,6.38124 6.38116,6.38124 h 6.04361 c 3.53513,0 6.38116,-2.84607 6.38116,-6.38124 v -0.6443 h 0.39431 c 3.53512,0 6.38116,-2.84566 6.38116,-6.38083 v -6.0441 c 0,-3.53517 -2.84604,-6.38124 -6.38116,-6.38124 h -0.39431 v -0.64389 c 0,-3.53517 -2.84603,-6.38124 -6.38116,-6.38124 z" />
    <path
       id="path114"
       style="fill:#0000ff;fill-rule:evenodd;stroke-width:0.210514;stroke:#0000ff"
       d="m 329.52011,260.20771 c -3.53512,0 -6.38116,2.84608 -6.38116,6.38125 v 0.64388 h -0.89427 c -3.53513,0 -6.38117,2.84608 -6.38117,6.38125 v 6.0441 c 0,3.53518 2.84604,6.38085 6.38117,6.38085 h 0.89427 v 0.64429 c 0,3.53517 2.84604,6.38124 6.38116,6.38124 h 6.04361 c 3.53512,0 6.38116,-2.84607 6.38116,-6.38124 v -0.64429 h 0.3943 c 3.53513,0 6.38117,-2.84567 6.38117,-6.38085 v -6.0441 c 0,-3.53517 -2.84604,-6.38125 -6.38117,-6.38125 h -0.3943 v -0.64388 c 0,-3.53517 -2.84604,-6.38125 -6.38116,-6.38125 z" />
    <path
       id="path115"
       style="fill:#0000ff;fill-rule:evenodd;stroke-width:0.210514;stroke:#0000ff"
       d="m 380.07655,306.67245 c -3.53512,0 -6.38117,2.84607 -6.38117,6.38124 v 0.64389 h -0.89426 c -3.53513,0 -6.38117,2.84607 -6.38117,6.38124 v 6.0441 c 0,3.53517 2.84604,6.38083 6.38117,6.38083 h 0.89426 v 0.6443 c 0,3.53517 2.84605,6.38124 6.38117,6.38124 h 6.0436 c 3.53513,0 6.38117,-2.84607 6.38117,-6.38124 v -0.6443 h 0.3943 c 3.53513,0 6.38117,-2.84566 6.38117,-6.38083 v -6.0441 c 0,-3.53517 -2.84604,-6.38124 -6.38117,-6.38124 h -0.3943 v -0.64389 c 0,-3.53517 -2.84604,-6.38124 -6.38117,-6.38124 z" />
    <path
       id="path116"
       style="fill:#0000ff;fill-rule:evenodd;stroke-width:0.210514;stroke:#0000ff"
       d="m 380.07655,216.96312 c -3.53512,0 -6.38117,2.84608 -6.38117,6.38125 v 0.64388 h -0.89426 c -3.53513,0 -6.38117,2.84607 -6.38117,6.38124 v 6.0441 c 0,3.53517 2.84604,6.38084 6.38117,6.38084 h 0.89426 v 0.64429 c 0,3.53517 2.84605,6.38125 6.38117,6.38125 h 6.0436 c 3.53513,0 6.38117,-2.84608 6.38117,-6.38125 v -0.64429 h 0.3943 c 3.53513,0 6.38117,-2.84567 6.38117,-6.38084 v -6.0441 c 0,-3.53517 -2.84604,-6.38124 -6.38117,-6.38124 h -0.3943 v -0.64388 c 0,-3.53517 -2.84604,-6.38125 -6.38117,-6.38125 z" />
    <path
       id="path117"
       style="fill:#0000ff;fill-rule:evenodd;stroke-width:0.210514;stroke:#0000ff"
       d="m 423.91623,260.20771 c -3.53511,0 -6.38116,2.84608 -6.38116,6.38125 v 0.64388 h -0.89426 c -3.53513,0 -6.38117,2.84608 -6.38117,6.38125 v 6.04409 c 0,3.53519 2.84604,6.38086 6.38117,6.38086 h 0.89426 v 0.64429 c 0,3.53517 2.84605,6.38124 6.38116,6.38124 h 6.04361 c 3.53513,0 6.38117,-2.84607 6.38117,-6.38124 v -0.64429 h 0.3943 c 3.53513,0 6.38116,-2.84567 6.38116,-6.38086 v -6.04409 c 0,-3.53517 -2.84603,-6.38125 -6.38116,-6.38125 h -0.3943 v -0.64388 c 0,-3.53517 -2.84604,-6.38125 -6.38117,-6.38125 z" />
    <path
       id="path118"
       style="fill:#0000ff;fill-rule:evenodd;stroke-width:0.210514;stroke:#0000ff"
       d="m 423.91623,356.6616 c -3.53511,0 -6.38116,2.84608 -6.38116,6.38125 v 0.64388 h -0.89426 c -3.53513,0 -6.38117,2.84607 -6.38117,6.38124 v 6.04409 c 0,3.53517 2.84604,6.38084 6.38117,6.38084 h 0.89426 v 0.64429 c 0,3.53517 2.84605,6.38125 6.38116,6.38125 h 6.04361 c 3.53513,0 6.38117,-2.84608 6.38117,-6.38125 v -0.64429 h 0.3943 c 3.53513,0 6.38116,-2.84567 6.38116,-6.38084 v -6.04409 c 0,-3.53517 -2.84603,-6.38124 -6.38116,-6.38124 h -0.3943 v -0.64388 c 0,-3.53517 -2.84604,-6.38125 -6.38117,-6.38125 z" />
    <circle
       style="fill:#0000ff;fill-rule:evenodd;stroke:#0000ff;stroke-width:0.242118"
       id="circle118"
       cx="236.00531"
       cy="276.7572"
       r="16.428421" />
    <circle
       style="fill:#0000ff;fill-rule:evenodd;stroke:#0000ff;stroke-width:0.242118"
       id="circle119"
       cx="236.00531"
       cy="276.7572"
       r="16.428421" />
    <circle
       style="fill:#0000ff;fill-rule:evenodd;stroke:#0000ff;stroke-width:0.242118"
       id="circle120"
       cx="283.69138"
       cy="233.5126"
       r="16.428421" />
    <circle
       style="fill:#0000ff;fill-rule:evenodd;stroke:#0000ff;stroke-width:0.242118"
       id="circle121"
       cx="332.29193"
       cy="323.22186"
       r="16.428421" />
    <circle
       style="fill:#0000ff;fill-rule:evenodd;stroke:#0000ff;stroke-width:0.242118"
       id="circle122"
       cx="382.84836"
       cy="373.211"
       r="16.428421" />
    <circle
       style="fill:#0000ff;fill-rule:evenodd;stroke:#0000ff;stroke-width:0.242118"
       id="circle123"
       cx="426.68805"
       cy="233.5126"
       r="16.428421" />
    <circle
       style="fill:#0000ff;fill-rule:evenodd;stroke:#0000ff;stroke-width:0.242118"
       id="circle124"
       cx="426.68805"
       cy="323.22186"
       r="16.428421" />
  </g>
</svg>
