<?xml version="1.0" encoding="UTF-8" standalone="no"?>
<!-- Created with Inkscape (http://www.inkscape.org/) -->

<svg
   width="600mm"
   height="400mm"
   viewBox="0 0 600 400"
   version="1.1"
   id="svg1"
   xml:space="preserve"
   inkscape:version="1.4.2 (f4327f4, 2025-05-13)"
   sodipodi:docname="projeto_musica.svg"
   xmlns:inkscape="http://www.inkscape.org/namespaces/inkscape"
   xmlns:sodipodi="http://sodipodi.sourceforge.net/DTD/sodipodi-0.dtd"
   xmlns:xlink="http://www.w3.org/1999/xlink"
   xmlns="http://www.w3.org/2000/svg"
   xmlns:svg="http://www.w3.org/2000/svg"><sodipodi:namedview
     id="namedview1"
     pagecolor="#ffffff"
     bordercolor="#000000"
     borderopacity="0.25"
     inkscape:showpageshadow="2"
     inkscape:pageopacity="0.0"
     inkscape:pagecheckerboard="0"
     inkscape:deskcolor="#d1d1d1"
     inkscape:document-units="mm"
     inkscape:zoom="0.34431467"
     inkscape:cx="444.36097"
     inkscape:cy="744.95809"
     inkscape:window-width="1920"
     inkscape:window-height="1017"
     inkscape:window-x="-8"
     inkscape:window-y="-8"
     inkscape:window-maximized="1"
     inkscape:current-layer="layer1" /><defs
     id="defs1"><linearGradient
       id="linearGradient830"><stop
         id="stop831"
         offset="0"
         style="stop-color:#000;stop-opacity:1;" /><stop
         id="stop832"
         offset="1"
         style="stop-color:#fff;stop-opacity:1;" /></linearGradient><radialGradient
       id="radialGradient833"
       xlink:href="#linearGradient830" /><linearGradient
       id="linearGradient834"
       x1="-1.0164395e-18"
       x2="1"
       xlink:href="#linearGradient830"
       y1="0.5"
       y2="0.5" /></defs><g
     inkscape:label="Pentagrama"
     inkscape:groupmode="layer"
     id="layer1"><rect
       style="fill:#ffff00;fill-rule:evenodd;stroke:none;stroke-width:0.250548"
       id="rect1-5"
       width="423.81134"
       height="2.9960353"
       x="12.560193"
       y="286.70816" /><rect
       style="fill:#ffff00;fill-rule:evenodd;stroke:none;stroke-width:0.250548"
       id="rect4-6"
       width="423.81134"
       height="2.9960353"
       x="12.560193"
       y="303.98932" /><rect
       style="fill:#ffff00;fill-rule:evenodd;stroke:none;stroke-width:0.250548"
       id="rect5-1"
       width="423.81134"
       height="2.9960353"
       x="12.560193"
       y="321.74612" /><rect
       style="fill:#ffff00;fill-rule:evenodd;stroke:none;stroke-width:0.250548"
       id="rect6-8"
       width="423.81134"
       height="2.9960353"
       x="12.560193"
       y="339.2652" /><rect
       style="fill:#ffff00;fill-rule:evenodd;stroke:none;stroke-width:0.250548"
       id="rect7-9"
       width="423.81134"
       height="2.9960353"
       x="12.560193"
       y="356.70465" /><rect
       style="fill:none;fill-rule:evenodd;stroke:#000000;stroke-width:0.35476"
       id="rect3-7"
       width="436.45273"
       height="91.341827"
       x="4.8416266"
       y="277.45581" /><path
       d="m 183.71864,222.16858 v 0.65477 h 2.94727 2.94727 v 2.20002 c 0,2.41954 -0.003,2.30605 0.0697,2.47444 0.073,0.16587 0.22504,0.28684 0.39411,0.31427 0.10963,0.0162 12.76349,0.0162 12.87315,0 0.21019,-0.0337 0.36669,-0.18957 0.43752,-0.43775 0.0171,-0.0611 0.0195,-0.25692 0.0217,-2.30979 l 0.003,-2.24119 h 2.94726 2.94725 v -0.65477 -0.65478 h -12.79432 -12.79432 z"
       id="path1-6"
       style="fill:#000000;stroke:none;stroke-width:0.00119362" /><path
       d="m 228.60877,235.45591 v -0.65477 h -2.94726 -2.94728 v -2.20004 c 0,-2.41954 0.003,-2.30605 -0.0697,-2.47441 -0.073,-0.16587 -0.22506,-0.28685 -0.39413,-0.3143 -0.10963,-0.0162 -12.76347,-0.0162 -12.87313,0 -0.21019,0.0337 -0.36669,0.18958 -0.43752,0.43777 -0.0171,0.0611 -0.0195,0.25693 -0.0217,2.30979 l -0.003,2.24119 h -2.94726 -2.94726 v 0.65477 0.65476 h 12.79434 12.79432 z"
       id="path16"
       style="fill:#000000;stroke:none;stroke-width:0.00119362" /><path
       d="m 356.5641,169.32213 c -0.86191,0.29769 -1.54387,0.79002 -2.22582,1.61439 -0.70089,0.84726 -1.16499,1.80902 -1.37337,2.87382 -0.61564,3.19443 0.86192,6.38884 3.40976,7.35061 1.2313,0.46942 3.58972,0.27479 5.49349,-0.44654 1.22183,-0.45797 2.82252,-1.51133 3.77913,-2.47309 0.32205,-0.32059 0.35993,-0.33203 0.3031,-0.12598 -0.0379,0.13736 -0.27467,1.16785 -0.53041,2.2899 -2.22581,9.81225 -2.34894,10.31604 -2.73727,11.2549 -0.7009,1.69453 -1.35443,2.54179 -2.40576,3.07992 -0.3694,0.19464 -1.40181,0.49233 -1.45862,0.43509 -0.01,-0.012 0.0663,-0.30915 0.16101,-0.65262 0.43568,-1.53424 0.3315,-3.14863 -0.29361,-4.65996 -1.44916,-3.51501 -5.03886,-4.54547 -7.60565,-2.19834 -1.33549,1.21367 -1.9985,2.87385 -1.98902,4.96911 0.01,1.3625 0.2652,2.37006 0.89033,3.4921 1.02293,1.82049 2.73725,2.73645 4.87783,2.58761 2.44366,-0.17175 4.61264,-1.0648 6.4217,-2.63339 0.47359,-0.41219 0.71984,-0.57249 0.69142,-0.44654 -0.0284,0.11445 -0.15153,0.66407 -0.28414,1.23656 -0.12308,0.56102 -0.56829,2.51888 -0.98505,4.35081 -0.41673,1.82048 -0.98503,4.32793 -1.25023,5.55304 -0.71984,3.33181 -0.78614,3.53789 -1.30707,4.14473 -0.67248,0.77856 -1.35444,1.17929 -2.35842,1.39683 -0.3599,0.0688 -0.3599,0.0459 -0.16102,-0.62972 0.20838,-0.72132 0.27468,-2.23266 0.14208,-3.10283 -0.44516,-2.71354 -2.37735,-4.77445 -4.69789,-4.98054 -1.45861,-0.12599 -2.76568,0.49233 -3.89278,1.85483 -1.03241,1.25944 -1.45863,2.50743 -1.45863,4.29357 0,1.77467 0.37885,2.95398 1.38285,4.23633 0.47358,0.59538 0.81454,0.91596 1.37336,1.24801 1.00399,0.60681 1.59124,0.74421 3.02143,0.66406 1.95113,-0.0915 3.9307,-0.80146 5.61661,-2.00367 0.45464,-0.3206 0.82403,-0.52668 0.82403,-0.45797 0,0.0688 -0.1989,0.98465 -0.43569,2.02656 -0.23678,1.0419 -0.55883,2.46165 -0.71037,3.14863 -0.15154,0.68697 -0.25572,1.32813 -0.23679,1.40828 0.0284,0.0915 0.0189,0.13737 -0.0284,0.10306 -0.0379,-0.0343 -0.15153,0.26334 -0.22732,0.65263 -0.80507,3.6982 -1.11763,5.12939 -1.6954,7.75132 -1.0987,5.02634 -1.78065,8.34671 -1.78065,8.64438 0,0.28625 0,0.28625 0.94715,0.28625 0.68196,0 0.9661,-0.0459 0.98505,-0.14876 0.0189,-0.0686 0.39779,-1.91208 0.85243,-4.08749 0.72931,-3.52645 1.35442,-6.42314 2.24475,-10.36179 0.44516,-1.98077 0.62513,-2.77078 0.91875,-4.12183 0.48304,-2.18687 1.32601,-5.97666 1.90377,-8.5299 0.75773,-3.35472 2.20687,-9.8008 3.23927,-14.36918 0.47358,-2.08381 0.95662,-4.23632 1.08922,-4.78589 0.13255,-0.56104 0.22732,-1.11062 0.19892,-1.23655 -0.0284,-0.11445 -0.0189,-0.19465 0.0284,-0.1603 0.0663,0.0459 0.71036,-2.63339 1.69541,-7.04147 0.43568,-1.96931 1.34496,-5.9652 2.18792,-9.6176 0.18943,-0.84727 0.34098,-1.55714 0.3315,-1.56859 -0.0189,-0.0459 -1.64804,-0.60682 -1.75223,-0.60682 -0.0473,0 -0.13268,0.21754 -0.1989,0.48088 -0.16103,0.73277 -0.99451,3.02267 -1.41126,3.88139 -0.42621,0.85871 -1.21236,1.79758 -1.83748,2.1525 -0.36939,0.22901 -1.57227,0.59539 -1.64805,0.52669 -0.0189,-0.0229 0.0473,-0.28624 0.13255,-0.59537 0.22733,-0.74423 0.27468,-2.72499 0.0759,-3.61805 -0.32203,-1.48846 -1.44914,-3.16008 -2.60467,-3.85852 -1.13659,-0.6984 -2.49102,-0.87015 -3.63706,-0.46941 z m 1.34496,52.27858 c 0,0.0915 -0.0379,0.13736 -0.0852,0.10306 -0.0473,-0.0343 -0.0568,-0.11445 -0.0284,-0.17175 0.0852,-0.1489 0.11361,-0.12598 0.11361,0.0688 z"
       id="path1-9"
       style="fill:#000000;stroke:none;stroke-width:0.0104137" /><path
       d="m 385.67099,171.93554 v 32.63279 l -0.81358,-0.27033 c -2.90053,-1.08132 -7.88807,0.57928 -10.96547,3.66876 -5.23514,5.25212 -3.18352,12.16484 3.43112,11.54692 3.64338,-0.34757 8.17106,-3.55288 9.86894,-7.06716 0.74283,-1.46751 0.7782,-2.08542 0.88432,-14.59785 0.10606,-10.31118 0.21223,-13.01449 0.56596,-13.01449 1.37952,0 6.57929,3.93912 8.45403,6.3721 2.68831,3.55291 3.2189,8.07129 1.55639,13.2462 -0.88431,2.74191 -0.77819,3.746 0.28298,2.78053 0.28298,-0.27031 0.95506,-1.89229 1.45028,-3.63015 0.91968,-3.05088 1.30878,-7.8782 1.2734,-15.40884 0,-2.70332 0,-6.41069 0,-9.65467 0,-1.31304 0.0354,-3.63016 0.0354,-5.09766 0,-1.50615 0,-4.01635 0,-5.59972 0,-4.20943 -0.88431,-6.33347 -4.70454,-11.43113 -1.76862,-2.31712 -3.78487,-5.13629 -4.45694,-6.25621 -1.62714,-2.62607 -4.3862,-8.99817 -4.3862,-10.07948 0,-0.65652 -0.21224,-0.811 -1.23803,-0.811 h -1.23804 z m 5.62422,-17.06944 c 2.65295,2.20126 6.65003,6.83549 7.56974,8.92092 0.8843,1.96955 1.62711,6.02451 1.06116,5.94726 -0.53059,-0.0386 -5.55349,-6.48793 -7.42823,-9.5388 -1.73325,-2.78055 -3.50187,-6.64242 -3.04204,-6.64242 0.10606,0 0.91969,0.57928 1.83937,1.31304 z m 0.81357,10.9677 c 3.3604,2.93503 5.87185,5.98589 6.86227,8.38026 0.81357,2.04678 1.45028,5.63832 0.95506,5.56107 -0.56596,-0.0386 -6.89764,-7.91682 -8.20641,-10.19532 -1.59178,-2.74193 -2.93593,-5.98588 -2.51147,-5.98588 0.17687,0 1.48566,1.00407 2.90055,2.23987 z m -0.17686,10.50429 c 2.3346,1.4675 5.76573,5.13628 6.5793,7.02859 0.70744,1.62197 1.52101,5.63832 1.20266,5.94728 -0.24761,0.27034 -5.30588,-5.48385 -7.10988,-8.10993 -1.20266,-1.73782 -3.04204,-5.25213 -3.04204,-5.83142 0,-0.38619 0.56596,-0.15447 2.36996,0.96548 z"
       id="path1-13"
       style="fill:#000000;stroke:none;stroke-width:0.0369601" /><path
       d="m 436.54228,172.00945 c -0.032,0.0551 -0.47028,1.19074 -0.97262,2.54687 -0.99394,2.66814 -1.34664,3.32967 -2.1696,4.11247 -0.59854,0.58435 -0.95122,0.79384 -1.62455,0.98126 -0.45959,0.12134 -1.58181,0.17641 -1.68867,0.0772 -0.0213,-0.0331 0.032,-0.34179 0.13898,-0.69461 0.39545,-1.42227 0.01,-2.98788 -1.03673,-4.1676 -1.97724,-2.22714 -5.22633,-2.23817 -7.23565,-0.0221 -0.8764,0.97024 -1.1329,1.65382 -1.14359,3.05405 0,0.99228 0.0213,1.0915 0.40614,1.88534 0.66265,1.3892 1.88106,2.37046 3.32392,2.66815 1.22908,0.26461 4.21098,0.0109 5.7821,-0.49615 0.81227,-0.25358 2.06275,-0.85997 2.49026,-1.21279 0.14964,-0.11026 0.28858,-0.19846 0.30994,-0.17641 0.01,0.0221 -0.90847,2.14996 -2.05206,4.71888 -1.15429,2.56892 -2.15894,4.81811 -2.24444,5.00553 -1.4856,3.34071 -1.54973,3.473 -2.01999,4.00221 -0.23512,0.26462 -0.65197,0.59538 -0.91915,0.73871 -0.74816,0.38588 -2.2017,0.62844 -2.53302,0.40794 -0.10689,-0.0663 -0.0962,-0.20948 0.0321,-0.62845 0.10689,-0.37487 0.14964,-0.83793 0.1283,-1.43331 -0.0534,-1.17971 -0.45958,-2.09481 -1.3146,-2.95481 -2.0093,-2.0507 -5.0767,-1.99558 -7.07533,0.12134 -2.07345,2.19407 -1.35735,5.83245 1.42148,7.23267 0.81229,0.40794 1.43216,0.5182 2.81089,0.49615 2.66127,-0.044 4.93776,-0.62845 6.39131,-1.64279 0.26718,-0.18743 0.50232,-0.31974 0.5237,-0.30871 0.032,0.0331 -0.41682,1.08049 -1.31458,3.06506 -0.23514,0.5182 -1.30394,2.93276 -2.37271,5.36936 -1.07947,2.44764 -2.09481,4.66375 -2.25512,4.92836 -0.3527,0.5623 -1.10085,1.13562 -1.80625,1.35613 -0.48095,0.15436 -1.90243,0.28666 -2.05206,0.18743 -0.0428,-0.0221 -0.01,-0.27563 0.0748,-0.5623 0.21375,-0.74973 0.19237,-1.96252 -0.0641,-2.74531 -0.58783,-1.79714 -2.60782,-3.24147 -4.53162,-3.24147 -0.84434,0 -1.77418,0.25359 -2.46889,0.66153 -0.74815,0.44101 -1.71005,1.51048 -2.06275,2.28226 -0.24582,0.56227 -0.28858,0.77176 -0.27789,1.68688 0,1.45534 0.26719,2.1279 1.20772,3.09813 1.19705,1.23485 2.29789,1.66483 4.23238,1.63176 2.66126,-0.0331 4.9164,-0.62844 6.42338,-1.67587 0.22443,-0.16538 0.41683,-0.27563 0.4382,-0.25358 0.032,0.0331 -0.45958,1.19075 -1.53905,3.59429 -0.20306,0.45204 -0.72678,1.62073 -1.15428,2.59097 -1.92381,4.35504 -2.96053,6.63731 -3.20634,7.0673 -0.35271,0.62845 -1.03673,1.2128 -1.72073,1.46639 -0.56647,0.22052 -1.96657,0.37487 -2.18032,0.23153 -0.0748,-0.0552 -0.0641,-0.24256 0.0428,-0.67256 0.20308,-0.80485 0.14963,-1.98459 -0.14964,-2.77841 -0.28855,-0.78281 -1.33595,-1.98458 -2.10548,-2.41457 -1.25047,-0.70563 -2.93915,-0.8269 -4.20032,-0.33077 -1.18634,0.48513 -2.35131,1.67587 -2.77884,2.85559 -0.28855,0.79383 -0.30994,2.14997 -0.0534,2.8997 0.53439,1.54357 1.9345,2.80047 3.56973,3.19738 0.56646,0.13227 2.87502,0.0991 3.85829,-0.0552 1.90243,-0.30871 3.81555,-1.04741 4.62782,-1.79716 0.0962,-0.0882 0.18171,-0.13227 0.18171,-0.0772 0,0.0442 -1.09017,2.86662 -2.41545,6.27347 -4.99122,12.75637 -5.60041,14.33302 -5.60041,14.42122 0,0.0442 0.35269,0.0882 0.78021,0.0882 h 0.79088 l 2.45821,-5.93166 c 1.35735,-3.2525 4.18961,-10.04413 6.28444,-15.07172 2.10548,-5.03864 4.38199,-10.51827 5.0767,-12.18311 0.69471,-1.66483 2.90709,-6.97908 4.9164,-11.79718 2.0093,-4.81812 4.22167,-10.13234 4.91639,-11.79718 0.69471,-1.66485 2.82157,-6.79166 4.74538,-11.38926 1.91312,-4.59757 3.48423,-8.41237 3.48423,-8.46749 0,-0.12134 -1.46424,-0.13228 -1.52837,-0.0221 z"
       id="path1-4"
       style="fill:#000000;stroke:none;stroke-width:0.0108552" /><path
       d="m 228.21633,176.34656 v 27.65271 l -0.31285,-0.26889 c -1.08503,-0.92661 -2.44962,-1.48256 -4.23025,-1.73331 -0.50259,-0.069 -0.67566,-0.0764 -1.56432,-0.0581 -0.64236,0.0109 -1.14827,0.0362 -1.41451,0.0764 -3.32165,0.47604 -6.40696,1.96223 -9.08625,4.38229 -0.88533,0.7958 -2.0602,2.17661 -2.70258,3.16862 -0.55913,0.86121 -1.11163,1.98038 -1.41119,2.85975 -0.59243,1.7551 -0.68563,3.47385 -0.2596,4.91645 0.35279,1.1955 1.03843,2.34738 1.84388,3.09957 1.2481,1.16641 2.95218,1.82413 5.15885,1.98039 1.33133,0.0945 3.1885,-0.1599 4.74614,-0.65044 4.44993,-1.40264 8.38396,-4.77109 10.20122,-8.73187 0.50257,-1.09375 0.79213,-2.0785 0.96854,-3.28125 0.0332,-0.23256 0.0434,-6.36631 0.0499,-30.67963 l 0.01,-30.38526 h -0.99851 -0.99847 z m -2.59606,28.84095 c 0.85204,0.19257 1.48774,0.84301 1.85719,1.91497 0.0999,0.27981 0.11978,0.38882 0.13309,0.72312 0.0299,0.72675 -0.16309,1.39534 -0.61239,2.13664 -0.18306,0.30522 -0.93193,1.15914 -1.42785,1.6279 -2.44961,2.32923 -6.96279,5.24711 -10.53405,6.81689 -1.40787,0.61773 -1.79394,0.72312 -2.62935,0.72672 -0.47261,0 -0.5891,-0.0109 -0.82874,-0.0836 -1.22814,-0.36701 -1.977,-1.33357 -2.0236,-2.62353 -0.0137,-0.34158 -0.004,-0.47605 0.0532,-0.7413 0.22631,-1.03925 0.98182,-2.06395 2.5661,-3.47748 2.53281,-2.26381 6.29047,-4.68389 9.48564,-6.1083 0.57579,-0.258 1.7873,-0.70496 1.99698,-0.74128 0.0833,-0.0109 0.28956,-0.0617 0.4593,-0.11266 0.51921,-0.1489 1.01844,-0.17079 1.50438,-0.0581 z"
       id="path1-3"
       style="fill:#000000;stroke:none;stroke-width:0.00347766"
       inkscape:label="path1-3" /><path
       d="m 171.94471,229.98523 c -2.71211,0.0908 -4.84205,0.79068 -6.37138,2.09212 -0.3061,0.26104 -0.6965,0.67089 -0.93906,0.98742 -0.76582,1.00129 -1.2163,2.17408 -1.34798,3.51335 -0.0243,0.24843 -0.0335,0.87139 -0.0173,1.13497 0.0578,0.90167 0.25064,1.69487 0.60295,2.4717 0.92059,2.0379 2.77564,3.42508 5.38726,4.02787 1.3006,0.30013 2.89806,0.40732 4.44125,0.2976 3.05863,-0.21816 5.35028,-1.29133 6.70749,-3.14258 0.6838,-0.9332 1.11927,-2.08204 1.24517,-3.28888 0.0416,-0.40228 0.0531,-0.92816 0.029,-1.29891 -0.0878,-1.31781 -0.50016,-2.52467 -1.20591,-3.5247 -0.24256,-0.34427 -0.61448,-0.76674 -0.91943,-1.04669 -1.62634,-1.48554 -4.05893,-2.24849 -7.11524,-2.22958 -0.21945,0.001 -0.44239,0.004 -0.49669,0.005 z m 1.04534,1.68228 c 0.6838,0.0882 1.23709,0.44768 1.68294,1.09208 0.34422,0.49938 0.61797,1.12991 0.90442,2.0833 0.0923,0.31021 0.44009,1.57507 0.53827,1.9597 0.21369,0.83735 0.34882,1.59022 0.41698,2.3166 0.0241,0.25473 0.0196,1.03659 -0.007,1.24846 -0.0855,0.6898 -0.25179,1.12991 -0.56136,1.49058 -0.36039,0.41993 -0.92406,0.68982 -1.68755,0.81087 -0.23795,0.0379 -0.60526,0.0782 -0.85475,0.0933 -0.1051,0.008 -0.2576,0.0226 -0.34075,0.0354 -0.37193,0.0543 -0.99914,0.001 -1.37454,-0.11594 -0.66879,-0.20934 -1.15622,-0.6255 -1.56628,-1.33675 -0.11196,-0.19545 -0.31533,-0.64314 -0.41467,-0.91301 -0.12816,-0.34932 -0.38927,-1.22954 -0.58331,-1.96853 -0.16402,-0.62171 -0.29223,-1.19549 -0.43892,-1.95339 -0.12239,-0.63938 -0.33844,-1.80587 -0.34537,-1.87523 -0.0151,-0.13616 -0.008,-0.60154 0.01,-0.74782 0.0347,-0.27113 0.10854,-0.52713 0.21947,-0.7705 0.0623,-0.13618 0.13172,-0.23836 0.25757,-0.38212 0.35461,-0.40102 0.81548,-0.65702 1.46694,-0.81592 0.61566,-0.15006 0.80162,-0.18789 1.08808,-0.21942 0.46202,-0.0516 1.30408,-0.0681 1.58823,-0.0314 z"
       id="path1-1"
       style="fill:#000000;stroke:none;stroke-width:0.00120691" /><g
       transform="matrix(0.07456093,0,0,-0.08140342,-67.009727,367.72384)"
       fill="#000000"
       stroke="none"
       id="g2"><path
         id="path1-5"
         d="m 2409.8673,2519.9229 v -490.0063 -489.9968 h 54.9946 55.0041 v 471.8808 h 60.0347 c 0.072,-408.8338 2.1969,-471.8808 14.9683,-471.8808 13,0 14.9968,34.0028 14.9968,242.0028 v 240.9948 l 25.9995,-23.9929 c 26,-24 83.9992,-132.0067 83.9992,-156.0067 0,-25 16.0046,-11.9945 29.0046,22.0055 34,95 144.9939,99.9991 170.9939,6.9991 13,-50 13.003,-166.0063 -1.997,-214.0063 -15,-50 -58.9996,-87.9932 -102.9996,-87.9932 -48,0 -62.0037,21.9981 -36.0037,58.9981 26,36 25.9985,56.0037 0.9985,81.0037 -39,39 -109.9987,10.9906 -109.9987,-45.0094 0,-69 57.0001,-115 154.0001,-122 50,-4 70.001,-0.9937 102.001,15.0063 111,57 154.004,182.9975 100.004,296.9975 -42,91 -103.9976,123.9972 -206.9976,110.9972 -49,-7 -49.0068,-5.9954 -66.0068,29.0046 -15,32 -14.9985,37.9958 -0.9985,66.9958 l 14.9968,32.9987 h 80.0051 c 68,0 84.9993,4.001 115.9993,25.001 98,66 116.0037,233.0035 36.0037,325.0035 -64,73 -171.0011,94.9961 -256.0011,53.9961 -69.0001,-33 -94.0071,-102.9915 -53.0071,-146.9915 26,-27 63.9998,-28.0065 89.9998,-2.0065 25,25 25,48.0051 0,80.0051 -24,30 -24.9941,45.9961 -3.9941,53.9961 48,18 107.9962,-3.9955 130.9962,-47.9955 36,-69 27.9987,-252.0048 -12.0013,-292.0048 -48,-48 -117.9965,-21.0004 -149.9965,57.9996 l -15.9953,42.0044 -24.0025,-57.9997 c -27,-66 -70.9977,-136.0077 -84.9977,-136.0077 -6,0 -10.0042,87.0037 -10.0042,235.0037 0,202 -1.9968,235.0037 -14.9968,235.0037 -12.3453,0 -14.6887,-65.1887 -14.9017,-438.1214 h -60.1013 v 438.1214 h -55.0041 z" /></g><g
       id="g869"
       transform="matrix(1.1599545,0,0,1.2836803,-31.63648,-252.27683)"><path
         id="path861"
         style="fill:#000000;fill-opacity:1;fill-rule:evenodd;stroke:#000000;stroke-width:0.455743;stroke-miterlimit:4;stroke-dasharray:none;stroke-opacity:1"
         d="m 94.57377,338.62101 c -8.784842,0.20794 -15.514784,6.36207 -13.333759,15.78722 0.0026,0.0111 0.0133,0.0209 0.01589,0.032 0.256047,3.25054 2.960621,5.8146 6.27658,5.8146 3.484883,0 6.308366,-2.82362 6.308366,-6.3085 0,-3.07137 -2.190946,-5.63232 -5.09804,-6.19693 -1.15848,-0.40989 -2.895446,-1.34179 -2.819204,-2.83553 0.03514,-0.74343 0.902532,-2.09217 2.293507,-2.77222 1.690551,-0.79335 3.433799,-1.22236 5.193399,-0.85995 2.667328,0.48694 9.488921,5.38493 10.020651,13.87556 0.30521,6.44653 -3.31569,15.15004 -6.849964,19.27585 -5.697612,6.50335 -14.850793,10.54319 -13.955426,11.26315 0.803631,0.71997 11.609841,-4.21952 17.236755,-10.41888 4.528705,-4.90385 7.538645,-9.27094 8.977195,-13.83756 h 2.7648 a 4.9816136,4.6702625 0 0 0 4.94461,4.193 4.9816136,4.6702625 0 0 0 4.9819,-4.67001 4.9816136,4.6702625 0 0 0 -4.9819,-4.67062 4.9816136,4.6702625 0 0 0 -4.85719,3.69006 h -2.44755 c 0.45271,-1.89535 0.64684,-3.83609 0.5587,-5.87671 -0.0433,-1.66755 -0.36335,-3.36515 -0.93402,-4.99626 h 2.87177 a 4.9816136,4.6702625 0 0 0 4.80829,3.47838 4.9816136,4.6702625 0 0 0 4.9819,-4.67001 4.9816136,4.6702625 0 0 0 -4.9819,-4.67061 4.9816136,4.6702625 0 0 0 -4.96111,4.40527 h -3.30578 c -2.31819,-5.09058 -7.1601,-9.18407 -13.708473,-9.03126 z" /></g><path
       d="m 41.089132,135.83548 c -5.101754,3.12504 -9.00948,15.37525 -8.502928,26.70875 0.180911,4.29173 1.302575,12.70854 1.809141,13.6669 0.108533,0.16667 -2.351889,3.33339 -5.427409,6.95844 -3.111716,3.62506 -6.440525,7.83346 -7.41746,9.33349 -2.243328,3.37505 -4.848478,9.37515 -5.60832,12.91687 -0.868374,3.95841 -0.542734,10.87519 0.687477,14.83358 3.835361,12.50022 14.762543,20.75035 25.110794,19.00033 1.555852,-0.29168 3.147902,-0.54168 3.509722,-0.62502 0.61511,-0.0834 0.86839,0.70834 2.0986,7.00012 2.24332,11.41686 1.84532,16.16693 -1.62823,19.58365 -3.36498,3.33341 -9.443683,4.04173 -12.338291,1.4167 -1.266393,-1.12502 -1.194029,-1.62503 0.253275,-1.62503 5.355044,-0.0417 7.851648,-7.45846 4.124834,-12.37522 -2.605165,-3.41671 -6.729984,-3.58338 -9.588424,-0.41665 -3.509721,3.83338 -3.509721,10.00015 -0.07231,14.00022 6.910895,7.9168 20.009036,5.00008 22.614186,-5.04175 0.86839,-3.45839 0.68748,-6.95845 -0.90457,-15.33357 -0.79602,-4.20841 -1.4473,-7.87515 -1.4473,-8.12515 0,-0.20832 1.26639,-1.25001 2.74988,-2.29169 3.32881,-2.25004 5.68068,-5.1251 7.16418,-8.75016 1.41113,-3.50007 1.73677,-9.00015 0.75983,-13.1669 -1.95386,-8.25013 -9.08186,-14.25023 -15.92039,-13.33355 l -1.809124,0.25001 -1.157847,-6.54177 -1.157846,-6.50011 1.953856,-2.45837 c 7.200371,-8.95848 10.782451,-20.45866 9.588421,-30.79216 -0.94075,-8.12514 -5.31886,-19.16698 -7.56219,-19.12531 -0.32564,0.0416 -1.157843,0.375 -1.881488,0.83335 z m 5.318857,12.25019 c 1.19403,1.37503 1.23022,1.5417 1.23022,4.50007 0,1.70837 -0.25328,4.12507 -0.57892,5.37509 -1.15785,4.62508 -4.55902,10.50017 -8.502943,14.75024 -2.207145,2.37503 -2.134781,2.45836 -2.858426,-3.29173 -1.338758,-10.79184 3.07552,-22.62536 8.466749,-22.75037 0.68747,0 1.41112,0.45835 2.24332,1.4167 z m -9.479858,42.20901 c 0.32564,1.20836 2.026234,10.70852 1.917674,10.75018 -0.03622,0.0416 -0.940739,0.62502 -1.990039,1.29169 -2.424239,1.45836 -5.13795,4.83341 -6.476708,8.00013 -0.868388,2.08336 -1.013117,2.83338 -1.013117,6.12511 0,4.50007 0.723659,6.6251 3.256445,9.75014 1.664398,2.04173 4.776114,4.20843 6.042507,4.20843 1.230211,0 0.723659,-1.50002 -0.759827,-2.29171 -3.980104,-2.04171 -5.644502,-6.37512 -4.197198,-11.00018 1.013117,-3.29174 4.088651,-6.66678 6.223418,-6.83345 l 0.940753,-0.0833 2.24333,12.70853 c 1.26639,7.00014 2.24333,12.75023 2.20714,12.7919 -0.0362,0.0833 -0.94075,0.29167 -2.02623,0.54168 -8.430565,1.83334 -17.512423,-2.79173 -21.022144,-10.66686 -1.157846,-2.62505 -1.230211,-3.12506 -1.338758,-7.41679 -0.108533,-4.04174 0,-5.00009 0.759828,-7.6668 1.628229,-5.5001 3.473539,-8.50014 9.154223,-15.00023 2.894622,-3.25006 5.391226,-5.91677 5.572137,-5.91677 0.180912,0 0.398019,0.33334 0.506566,0.70833 z m 10.492978,19.95867 c 2.3157,0.91667 5.31886,4.16673 6.40435,6.91678 0.61509,1.66669 0.83219,3.00004 0.83219,5.54176 0.0362,2.95838 -0.0723,3.58337 -1.0493,5.54177 -1.08548,2.33337 -4.55902,6.33344 -5.46358,6.33344 -0.25329,0 -0.57893,-0.41668 -0.68748,-0.95836 -0.0723,-0.50001 -1.08548,-5.87509 -2.17096,-11.95854 -1.12166,-6.08343 -2.0986,-11.29185 -2.17096,-11.58352 -0.2171,-0.75002 2.20714,-0.66668 4.30574,0.16667 z"
       id="path1"
       style="fill:#000000;stroke:none;stroke-width:0.0388283" /><path
       d="m 249.60019,197.64628 c 0,13.47614 -0.0243,24.51411 -0.0607,24.51411 -0.0365,0 -0.31557,-0.17227 -0.63112,-0.38428 -2.2939,-1.5371 -6.08065,-1.6961 -9.47904,-0.39752 -4.8184,1.85512 -8.35027,5.88339 -8.82362,10.05744 -0.27915,2.51769 1.06806,5.00885 3.38623,6.22794 1.38362,0.7288 2.45167,0.9673 4.38148,0.9673 5.31603,0 10.6806,-3.45846 12.69535,-8.16255 0.76463,-1.81539 0.7161,0.27825 0.69181,-29.841 l -0.0364,-27.42928 -1.05593,-0.0397 -1.06805,-0.0397 z"
       id="path1-8"
       style="fill:#000000;stroke:none;stroke-width:0.0126817" /><g
       transform="matrix(0.04840463,0,0,-0.05284674,174.75486,501.85934)"
       fill="#000000"
       stroke="none"
       id="g4"><path
         d="m 1783.2264,5785.655 c -8.8746,-5.0289 -5.0289,-16.5657 11.241,-34.9064 3.5498,-3.8457 8.2828,-10.3537 10.6494,-14.7909 2.0708,-4.1414 4.4373,-8.2828 5.3247,-9.1703 2.9582,-2.9582 16.5658,-25.4403 22.1862,-36.9772 3.2541,-6.5079 6.8039,-12.1284 8.283,-12.7202 1.1833,-0.5915 2.0707,-3.5498 2.0707,-6.8037 0,-2.9582 1.4791,-5.6206 2.9582,-5.6206 1.7748,0 2.9581,-2.3665 2.9581,-5.3246 0,-2.9582 1.4791,-6.8038 3.55,-8.8746 6.2121,-6.2121 6.8036,-54.4303 0.5915,-77.5041 -2.9582,-11.5368 -6.2122,-20.7072 -7.6913,-20.7072 -1.1833,0 -2.3665,-1.7749 -2.3665,-3.5498 0,-5.3247 -15.3825,-35.2022 -21.2989,-42.0059 -2.958,-3.2541 -5.3246,-6.8039 -5.3246,-7.6913 0,-1.1833 -3.254,-5.9164 -7.3955,-10.6494 -4.1413,-4.7332 -7.3954,-9.4662 -7.3954,-10.6494 0,-2.0708 -13.9035,-16.8616 -43.781,-47.3308 -5.9163,-6.2121 -11.8326,-11.241 -13.0158,-11.241 -3.5498,0 -2.6624,-7.9872 1.4791,-12.4243 1.7748,-2.0708 7.3954,-9.1704 12.4243,-15.6784 4.733,-6.508 11.5367,-14.495 14.7908,-18.0448 8.8746,-9.1704 22.1863,-26.0319 21.5946,-27.8068 -0.2957,-0.8875 6.8038,-8.8746 15.6784,-17.7491 8.8745,-8.8745 20.1155,-21.5946 24.8486,-28.1026 4.733,-6.5079 11.8328,-14.7908 15.3825,-18.3407 3.8457,-3.5498 6.8037,-7.6912 6.8037,-8.8745 0,-1.1832 4.7331,-7.3954 10.3537,-13.3118 5.6205,-5.9163 10.3536,-12.1284 10.3536,-13.9034 0,-1.7749 0.8874,-3.2539 2.3665,-3.2539 1.1833,0 5.3248,-5.0289 9.4661,-10.9453 4.1415,-5.9164 8.8745,-12.1285 10.3537,-13.9033 6.2121,-6.508 13.6075,-20.1156 12.1284,-21.5947 -0.8874,-0.8874 -5.0289,0.5916 -8.8745,3.254 -4.1413,2.6623 -10.0578,4.733 -13.3117,4.733 -3.2539,0 -6.2122,1.7749 -6.8038,3.5499 -1.7749,4.733 -69.5171,5.3247 -72.771,0.8874 -1.1832,-1.7749 -7.0997,-5.6205 -13.6075,-8.8746 -11.537,-5.9162 -37.2732,-29.2858 -37.2732,-34.0189 0,-1.4791 -1.7748,-4.4372 -3.5497,-6.508 -7.987,-8.2829 -20.1156,-38.4562 -20.1156,-49.9931 0,-4.4373 -1.4789,-9.1703 -2.9581,-10.0578 -3.8456,-2.3665 -3.8456,-36.9771 0,-36.9771 1.7748,0 2.9581,-2.9582 2.9581,-6.8037 0,-7.6913 13.016,-36.0898 19.524,-42.5977 2.3665,-2.3665 5.6205,-7.0997 7.3954,-10.3537 4.4372,-8.2828 10.3536,-15.0867 31.6524,-36.6813 10.0578,-10.3535 18.3407,-19.8198 18.3407,-21.5946 0,-1.4791 3.2539,-3.5498 7.3955,-4.4373 4.1415,-1.1833 7.3954,-2.9582 7.3954,-4.4372 0,-1.1833 6.508,-6.8039 14.7908,-12.4243 7.9871,-5.6206 14.7908,-10.9453 14.7908,-12.1286 0,-1.4791 2.6624,-2.3666 5.9165,-2.3666 3.2539,0 5.9163,-0.8874 5.9163,-2.0706 0,-1.4791 6.2121,-4.7331 13.6076,-7.9871 11.5369,-4.7331 14.1993,-5.0289 17.749,-1.4791 3.5498,3.5499 1.1833,7.0997 -15.0867,24.8487 -10.6495,11.2411 -20.1155,22.7779 -21.0029,25.736 -0.8876,2.9583 -2.9583,5.3248 -4.4374,5.3248 -1.4791,0 -2.6624,2.6624 -2.6624,5.9163 0,3.254 -1.1832,5.9164 -2.3665,5.9164 -2.958,0 -12.4243,19.2281 -12.4243,25.1444 0,2.3665 -1.1833,4.4373 -2.9582,4.4373 -1.479,0 -2.9581,4.1414 -2.9581,9.1703 0,5.0288 -1.4791,11.8327 -3.254,15.0866 -4.4373,8.5788 2.0707,44.3727 9.762,52.3597 2.9581,3.254 5.3246,7.3954 5.3246,8.8745 0,4.1415 15.3825,18.0449 19.8198,18.0449 2.0708,0 3.8456,1.1833 3.8456,2.3665 0,7.3954 36.3855,16.27 65.0797,16.27 26.9195,-0.2959 73.3628,-9.4662 81.3498,-16.27 1.4791,-1.1832 5.0289,-2.3665 7.9871,-2.3665 4.733,0 5.0289,0.8874 1.7749,6.5079 -2.0708,3.5499 -6.8038,9.4662 -10.3536,13.3118 -3.8456,3.8457 -6.8039,7.9871 -6.8039,9.4662 0,1.1832 -2.3665,4.733 -5.0289,7.987 -2.958,3.254 -10.0577,11.8327 -15.6782,18.9324 -13.016,16.8615 -17.1574,21.8903 -27.511,33.7231 -13.016,14.7908 -13.9034,16.27 -13.9034,19.5239 0,1.4791 -0.8874,2.9582 -2.0706,2.9582 -1.4792,0 -5.6207,5.0289 -9.7622,10.9452 -4.1413,5.9164 -8.5786,12.4243 -10.3534,14.1993 -4.7332,5.3246 -10.3537,14.4949 -12.1287,20.1155 -1.1832,2.6624 -2.6623,5.0289 -3.8455,5.0289 -1.1834,0 -4.4373,5.0289 -7.3955,11.241 -2.9581,5.9164 -6.5078,13.3118 -8.2828,16.27 -4.7331,9.1703 -3.5498,43.7809 2.0706,62.4174 5.3248,17.749 9.4663,26.6235 23.3697,48.8098 4.4372,6.508 7.6912,13.0159 7.6912,13.9034 0,1.1833 3.254,6.508 7.3955,11.8327 4.1413,5.3248 7.3954,10.9452 7.3954,12.7202 0,1.7749 1.1833,3.2539 2.3665,3.2539 1.1833,0 4.4372,3.5499 7.0996,8.2829 2.6624,4.4373 8.8745,12.4243 13.9034,17.7491 5.0289,5.0288 9.1704,10.3535 9.1704,11.8327 0,2.0706 6.8037,11.241 18.3406,24.8486 5.3248,6.2121 5.0289,6.508 -5.6206,18.6364 -2.0707,2.0708 -3.8456,5.3248 -3.8456,7.0997 0,1.7749 -1.1832,3.254 -2.3666,3.254 -1.1832,0 -4.733,4.4372 -7.9869,9.7619 -2.9583,5.0289 -6.2122,10.0578 -7.3954,10.9452 -0.8876,0.8875 -6.8039,8.8745 -13.3119,17.7491 -15.6782,21.8905 -16.8615,23.0737 -24.2569,31.3566 -3.5498,3.8457 -7.0997,9.1703 -7.9872,12.1285 -0.8874,2.9582 -5.6204,10.0577 -10.6493,15.6784 -4.7331,5.6204 -8.8745,11.2409 -8.8745,12.4243 0,1.1832 -1.775,3.8455 -3.8457,5.9163 -2.0707,2.0707 -8.8745,11.241 -15.3825,20.1156 -6.508,8.8745 -13.3117,18.0448 -15.3825,20.1155 -2.0707,2.0707 -3.8455,4.7331 -3.8455,5.9163 0,1.1833 -4.1415,6.8038 -8.8745,12.4243 -4.7332,5.6206 -8.8746,11.2411 -8.8746,12.1286 0,1.1832 -3.8456,6.5079 -8.8745,11.8327 -4.733,5.6205 -10.3537,13.3117 -12.4243,17.4532 -2.0708,4.1414 -6.8039,10.3535 -10.3537,14.1992 -3.8456,3.8456 -6.8036,7.987 -6.8036,9.762 0,3.5498 -13.6077,17.4532 -16.8617,17.4532 -1.1833,0 -4.7331,-1.4791 -7.3954,-3.254 z"
         id="path4"
         style="stroke-width:0.295816" /></g><g
       transform="matrix(0.05613974,0,0,-0.06129171,165.29989,285.00204)"
       fill="#000000"
       stroke="none"
       id="g34"><path
         d="m 421.64162,2231.5344 c -4,-4 -7,-209 -7,-456 v -448 l -27,17 c -35,23 -124,21 -184,-5 -92,-40 -158.999998,-123 -158.999998,-198 0,-47 49,-98 102.999998,-108 91,-17 212,38 272,123 l 30,43 5,355 5,355 60,-44 c 101,-75 188,-207 205,-314 9,-56 -1,-200 -22,-292 -8,-38 -8,-56 0,-64 14,-14 35,36 56,134 25,123 29,197 12,278 -21,99 -58,171 -161,310 -89,122 -139,212 -153,275 -7,38 -21,52 -35,39 z"
         id="path33" /></g><path
       d="m 282.63484,171.72302 c -0.25596,0.65257 -0.62827,1.85329 -0.8377,2.66248 -0.46539,1.80107 -1.46597,2.94958 -3.60677,4.1503 -0.81443,0.46985 -1.51252,0.78307 -1.55906,0.73086 -0.0465,-0.0523 0.0697,-0.36542 0.27923,-0.70476 0.20943,-0.31323 0.37232,-1.0963 0.37232,-1.72278 0,-3.13229 -3.60678,-4.77675 -6.63181,-3.02789 -1.72194,0.99189 -2.32696,1.9838 -2.32696,3.75878 0,1.22682 0.11636,1.64444 0.65156,2.42754 1.02386,1.51394 1.81503,1.85327 4.23504,1.85327 1.69869,0 2.42003,-0.13048 3.79293,-0.70477 0.90751,-0.39153 1.93137,-0.88749 2.25714,-1.12241 0.32577,-0.23491 0.65155,-0.36542 0.72136,-0.31323 0.093,0.13048 -1.48925,5.79478 -2.00118,7.12601 -0.11635,0.28713 -0.37232,1.17462 -0.58174,1.95769 -0.20942,0.78307 -0.48866,1.67055 -0.605,1.95769 -0.11635,0.28713 -0.62827,1.93159 -1.11694,3.65436 -0.51192,1.72277 -1.09366,3.57605 -1.27983,4.0981 -0.41883,1.07021 -0.48864,2.29703 -0.16288,2.29703 0.11635,0 0.37232,0.0784 0.55847,0.15661 0.41885,0.18271 0.86097,-0.80918 1.46598,-3.15842 0.20942,-0.86138 0.46539,-1.74885 0.58173,-1.95768 0.093,-0.20882 0.34905,-1.0441 0.55847,-1.82718 0.20942,-0.78308 0.46539,-1.67058 0.58174,-1.9577 0.25597,-0.65256 2.23386,-7.15209 2.676,-8.74435 0.39559,-1.48784 1.46597,-4.93338 1.74521,-5.61205 0.11635,-0.28713 0.41883,-1.27902 0.67481,-2.21872 0.25597,-0.93969 0.62829,-2.24482 0.86097,-2.92349 0.44213,-1.40954 0.32578,-2.036 -0.37229,-2.036 -0.34907,0 -0.60502,0.31324 -0.9308,1.20071 z"
       id="path1-54"
       style="fill:#000000;stroke:none;stroke-width:0.0246454" /><path
       d="m 320.84469,152.82119 c -0.10538,0.20127 -0.158,12.30623 -0.10538,26.88395 l 0.079,26.51016 -1.42215,-0.83383 c -5.03016,-2.99031 -12.72028,-2.12773 -16.19665,1.78269 -1.26411,1.43763 -2.02786,3.50784 -1.81718,5.03174 0.55307,4.51421 5.00386,7.56201 11.0348,7.56201 4.87216,0 9.03326,-2.09896 10.42907,-5.29054 0.52672,-1.17887 0.55305,-1.63891 0.55305,-16.53291 v -15.32529 l 1.21147,1.17888 c 0.65838,0.63256 2.63359,2.24272 4.3981,3.5366 6.34699,4.77297 7.32142,5.95185 7.50576,8.99966 0.10538,1.61015 0.0263,2.01269 -0.68473,3.42159 -0.71106,1.4664 -0.73741,1.58142 -0.21068,1.29389 1.21145,-0.71882 2.29122,-1.78269 2.76527,-2.78904 1.10613,-2.44399 0.92176,-4.42795 -0.63206,-6.95819 -0.50037,-0.83384 -0.92176,-1.55266 -0.92176,-1.63892 0,-0.0863 0.39504,-0.66132 0.89543,-1.26514 1.89619,-2.44399 1.81717,-5.4918 -0.26336,-8.48209 -0.34236,-0.48881 -0.63207,-0.94885 -0.63207,-1.0351 0,-0.11505 0.42139,-0.71882 0.92176,-1.38014 1.68552,-2.21398 1.81718,-4.65798 0.39504,-7.38949 -0.89541,-1.72519 -2.47558,-3.16283 -5.58325,-5.17552 -4.10839,-2.64528 -7.26872,-6.55568 -8.69086,-10.81109 l -0.55307,-1.63892 h -1.13245 c -0.60574,0 -1.21145,0.17251 -1.34314,0.34504 z m 8.11151,12.70877 c 1.79084,1.40889 3.89772,3.07656 4.66146,3.70912 1.47483,1.23637 2.60726,3.01905 2.94964,4.65797 0.21069,1.0351 -0.10537,3.24908 -0.52672,3.70912 -0.2897,0.31629 -3.26566,-1.43765 -5.55691,-3.30657 -4.29276,-3.45036 -7.08438,-8.22334 -7.08438,-12.07623 v -1.46639 l 1.15878,1.12137 c 0.63209,0.60381 2.60726,2.24272 4.39813,3.65161 z m -3.52903,8.10831 c 1.10611,1.06386 3.52903,2.99032 5.37254,4.31294 4.55614,3.27783 5.79394,4.94549 5.84661,7.76329 0,1.2076 -0.50039,2.99029 -0.8691,2.99029 -0.34237,0 -4.52979,-2.84653 -5.95193,-4.05416 -2.55461,-2.15647 -4.68781,-5.11801 -5.7676,-8.02204 -0.42137,-1.15013 -0.97443,-4.88801 -0.71107,-4.88801 0.0528,0 1.00076,0.86259 2.08055,1.89769 z"
       id="path1-7"
       style="fill:#000000;stroke:none;stroke-width:0.027518" /><path
       d="m 298.78867,153.32549 c -0.0992,0.1083 -0.17368,8.37009 -0.17368,18.33835 v 18.12165 l -0.54585,-0.18962 c -3.79604,-1.27311 -8.55971,1.1106 -10.27165,5.09249 -1.04207,2.46499 -0.66988,4.44238 1.06685,5.74259 0.74434,0.54176 1.24054,0.67719 2.48109,0.67719 1.93525,0 4.09378,-0.48757 3.96973,-0.8939 -0.0497,-0.16252 0.42178,-0.75845 1.06686,-1.30021 3.17578,-2.73585 3.22539,-2.95256 3.22539,-15.60249 v -10.1037 h 0.59547 c 1.71195,0 5.25989,2.30245 7.31918,4.76743 1.66231,1.9774 2.10891,3.62974 1.96005,6.90736 -0.0992,1.76069 -0.29774,2.73585 -0.79395,3.90061 -0.74432,1.7607 -0.79395,2.1941 -0.29772,2.38372 0.44658,0.18961 1.48864,-2.08575 2.03447,-4.41528 0.29775,-1.24604 0.37217,-2.41081 0.27292,-3.92771 -0.22329,-3.87355 -1.31496,-6.01347 -5.53281,-10.97052 -3.4983,-4.14441 -4.6396,-5.98637 -5.16062,-8.50553 -0.17369,-0.75844 -0.14888,-0.78554 0.62026,-0.59592 1.53826,0.32505 3.34946,1.43565 4.88771,3.00672 2.53071,2.54624 3.74643,5.30919 3.99455,9.07438 0.12404,1.89614 0.2233,2.30246 0.59546,2.38371 0.37216,0.0813 0.42177,-0.13542 0.42177,-1.7607 0,-2.84421 -0.81874,-6.66356 -1.98485,-9.20981 -0.86839,-1.92321 -1.53827,-2.8442 -4.59,-6.28433 -3.00211,-3.41304 -3.62237,-4.25278 -3.9201,-5.36336 -0.32254,-1.21895 -0.81875,-1.70652 -1.24053,-1.27312 z"
       id="path1-33"
       style="fill:#000000;stroke:none;stroke-width:0.0259242" /><path
       d="m 284.85315,210.85853 c -0.2229,0.0325 -0.5743,0.13272 -0.62935,0.18418 -0.0123,0.0109 -0.0394,0.0217 -0.055,0.0217 -0.13887,0 -0.79978,0.4361 -1.04366,0.69072 -0.28847,0.29794 -0.63985,0.84239 -0.72899,1.13764 -0.11005,0.35753 -0.13365,0.52006 -0.13625,0.98866 -0.001,0.56069 0.0314,0.73675 0.24913,1.24057 0.16258,0.3738 0.76044,1.04556 1.13281,1.26767 0.11278,0.0677 0.25961,0.14621 0.32779,0.17606 0.0681,0.0298 0.15734,0.0812 0.20193,0.1164 0.10497,0.0812 0.24647,0.13811 0.49824,0.20856 0.47724,0.13003 0.4956,0.13273 1.22722,0.13812 0.66602,0.005 0.72636,0.003 0.91515,-0.054 0.11278,-0.0325 0.23341,-0.0596 0.27011,-0.0596 0.0392,0 0.0892,-0.0109 0.11553,-0.0271 0.0262,-0.0134 0.16521,-0.0569 0.30683,-0.0948 0.14157,-0.0379 0.28319,-0.0841 0.31203,-0.10558 0.0288,-0.019 0.0891,-0.0433 0.13378,-0.0514 0.0446,-0.008 0.19405,-0.0704 0.33302,-0.13811 0.13901,-0.0677 0.32778,-0.15441 0.41957,-0.18962 0.16257,-0.0623 0.42741,-0.20314 0.62671,-0.33046 0.0525,-0.0352 0.17046,-0.0894 0.26225,-0.12192 0.089,-0.0298 0.18619,-0.0677 0.21237,-0.0838 0.12061,-0.0651 0.11553,0.0677 -0.0123,0.43879 -0.0288,0.0812 -0.0709,0.23294 -0.0917,0.33859 -0.0211,0.10296 -0.0498,0.20045 -0.0604,0.2167 -0.0123,0.0134 -0.0288,0.0866 -0.0394,0.16252 -0.011,0.0731 -0.0368,0.16792 -0.055,0.20586 -0.0184,0.0379 -0.042,0.13541 -0.0526,0.21669 -0.007,0.0812 -0.034,0.17335 -0.0524,0.20585 -0.0211,0.0325 -0.0368,0.0812 -0.0368,0.10557 0,0.0487 -0.0123,0.0922 -0.10497,0.37921 -0.0288,0.0894 -0.0525,0.18419 -0.0525,0.21128 0,0.0433 -0.0786,0.32775 -0.13378,0.49027 -0.0288,0.0758 -0.0812,0.30338 -0.12596,0.54172 -0.0123,0.0596 -0.0498,0.20046 -0.0864,0.31152 -0.10222,0.3142 -0.13625,0.44421 -0.12843,0.48213 0.001,0.0217 -0.005,0.0514 -0.0182,0.0677 -0.0124,0.019 -0.0339,0.0841 -0.0446,0.14906 -0.011,0.0623 -0.034,0.1489 -0.0524,0.1896 -0.0211,0.0406 -0.042,0.11655 -0.0525,0.16795 -0.007,0.0514 -0.0211,0.14351 -0.0288,0.20314 -0.011,0.0596 -0.034,0.13273 -0.0524,0.16252 -0.0184,0.0298 -0.042,0.111 -0.0498,0.18419 -0.011,0.0704 -0.0288,0.13556 -0.042,0.1435 -0.0123,0.008 -0.0236,0.0406 -0.0236,0.0704 0,0.0623 -0.0124,0.11371 -0.10222,0.40088 -0.0314,0.0975 -0.055,0.20315 -0.055,0.23566 0,0.0325 -0.0156,0.0922 -0.0368,0.13542 -0.0211,0.0406 -0.0575,0.15438 -0.0786,0.25191 -0.0236,0.0975 -0.0656,0.26816 -0.0971,0.37921 -0.0288,0.111 -0.0735,0.28169 -0.0944,0.37922 -0.055,0.22752 -0.12596,0.32231 -0.35138,0.474 -0.0996,0.0677 -0.18617,0.12193 -0.19142,0.12193 -0.005,0 -0.16258,0.10558 -0.34616,0.23566 -0.18618,0.12734 -0.41433,0.27629 -0.50872,0.32774 -0.29106,0.1625 -0.5192,0.2763 -0.54542,0.2763 -0.0156,0 -0.0917,0.0351 -0.17045,0.0786 -0.33301,0.18148 -0.86797,0.21939 -1.05153,0.0734 -0.0917,-0.0703 -0.17309,-0.21667 -0.17309,-0.31148 0,-0.0298 0.11279,-0.21129 0.25174,-0.40089 0.13902,-0.18961 0.27011,-0.39005 0.29373,-0.4415 0.0812,-0.19233 0.0472,-0.98054 -0.0498,-1.20536 -0.0124,-0.0297 -0.0343,-0.1083 -0.0498,-0.17607 -0.0124,-0.0677 -0.0314,-0.1598 -0.042,-0.20314 -0.011,-0.046 -0.0419,-0.11925 -0.0736,-0.16253 -0.0314,-0.046 -0.0866,-0.1408 -0.12061,-0.21127 -0.0368,-0.0704 -0.12595,-0.21126 -0.2019,-0.31149 -0.076,-0.10022 -0.16259,-0.21398 -0.19145,-0.25733 -0.0314,-0.0406 -0.0707,-0.0731 -0.089,-0.0731 -0.0183,0 -0.055,-0.0217 -0.0838,-0.0488 -0.084,-0.0812 -0.35402,-0.26816 -0.46941,-0.32775 -0.32778,-0.16792 -0.63196,-0.24377 -1.06202,-0.26816 -0.92039,-0.0514 -1.65466,0.31421 -2.25514,1.12953 -0.2098,0.28169 -0.39334,0.60403 -0.39334,0.68799 0,0.019 -0.0236,0.0866 -0.0525,0.1489 -0.0288,0.0596 -0.0524,0.14082 -0.0524,0.17608 0,0.0325 -0.011,0.0733 -0.0211,0.0866 -0.0864,0.10022 -0.11553,1.02387 -0.0446,1.36786 0.0578,0.28984 0.0943,0.41714 0.12061,0.44695 0.0123,0.0134 0.0236,0.0487 0.0236,0.0785 0,0.0326 0.0392,0.11669 0.0892,0.19234 0.18356,0.2817 0.27798,0.43879 0.27798,0.46046 0,0.054 0.63719,0.68798 0.69225,0.69071 0.011,0 0.0999,0.054 0.19666,0.11939 0.0943,0.0649 0.2806,0.17063 0.40909,0.23023 0.13104,0.0623 0.25435,0.12463 0.27536,0.13542 0.0236,0.0135 0.0812,0.0326 0.13103,0.0406 0.0498,0.0109 0.14419,0.0354 0.20981,0.0569 0.30418,0.0947 0.61886,0.13541 1.00956,0.13017 0.21766,0 0.4484,-0.0161 0.51136,-0.0351 0.13103,-0.0378 0.13103,-0.0353 0.3671,-0.0812 0.0944,-0.0162 0.25436,-0.054 0.35403,-0.0838 0.10222,-0.0298 0.23076,-0.0679 0.28844,-0.0837 0.0943,-0.0246 0.36711,-0.12733 0.90468,-0.33587 0.0943,-0.0351 0.18355,-0.0648 0.20192,-0.0648 0.0156,0 0.042,-0.0162 0.0575,-0.0378 0.0156,-0.019 0.0866,-0.0515 0.15471,-0.0734 0.12335,-0.0354 0.46938,-0.20588 0.68702,-0.34399 0.13378,-0.0838 0.35665,-0.17065 0.37763,-0.14906 0.0262,0.0273 -0.0657,0.40089 -0.18883,0.76655 -0.0211,0.0678 -0.055,0.18963 -0.0735,0.27087 -0.0183,0.0812 -0.0473,0.19501 -0.0604,0.24919 -0.0314,0.1082 -0.0446,0.1571 -0.13625,0.48215 -0.0315,0.11115 -0.0944,0.34941 -0.14157,0.52818 -0.0472,0.17879 -0.14685,0.5309 -0.22026,0.78282 -0.0736,0.2519 -0.13392,0.48483 -0.13392,0.52006 0,0.0325 -0.011,0.0677 -0.0211,0.076 -0.0123,0.005 -0.0368,0.0837 -0.055,0.17069 -0.0184,0.0866 -0.0446,0.18147 -0.055,0.21123 -0.0124,0.0298 -0.0314,0.0948 -0.0392,0.14352 -0.011,0.0515 -0.0473,0.17875 -0.0812,0.2844 -0.076,0.23294 -0.16782,0.57965 -0.16782,0.63925 0,0.0246 -0.0156,0.076 -0.0368,0.11385 -0.0184,0.0378 -0.042,0.11668 -0.0524,0.17066 -0.011,0.0569 -0.0339,0.14066 -0.055,0.18961 -0.0183,0.046 -0.0472,0.13811 -0.0656,0.20586 -0.0156,0.0679 -0.0473,0.17604 -0.0656,0.24377 -0.0211,0.0679 -0.055,0.19502 -0.076,0.28712 -0.0182,0.0894 -0.0786,0.30336 -0.12829,0.47403 -0.0525,0.17062 -0.11553,0.38193 -0.13901,0.47129 -0.0236,0.0896 -0.0524,0.19231 -0.063,0.23025 -0.011,0.0378 -0.034,0.12194 -0.0498,0.18962 -0.0183,0.0677 -0.0498,0.17603 -0.0736,0.24377 -0.0211,0.0678 -0.0498,0.17061 -0.0604,0.23023 -0.011,0.0596 -0.0394,0.17605 -0.0656,0.25731 -0.0236,0.0812 -0.0657,0.22211 -0.0917,0.31152 -0.0236,0.0896 -0.0604,0.21667 -0.0812,0.28439 -0.0184,0.0648 -0.0368,0.13288 -0.0368,0.14906 -10e-4,0.0135 -0.011,0.046 -0.0182,0.0677 -0.0124,0.0378 -0.24649,0.83697 -0.32254,1.11054 -0.0183,0.0678 -0.0604,0.22482 -0.0917,0.35212 -0.0314,0.12733 -0.0788,0.29795 -0.10496,0.37922 -0.0262,0.0812 -0.0736,0.25191 -0.10497,0.37921 -0.0314,0.12733 -0.0867,0.32233 -0.12061,0.43611 -0.034,0.11385 -0.063,0.22211 -0.063,0.24377 0,0.0217 -0.0156,0.0702 -0.0368,0.10819 -0.0183,0.0378 -0.042,0.12733 -0.0525,0.19772 -0.011,0.0733 -0.0419,0.18691 -0.0708,0.25463 -0.055,0.13019 -0.0971,0.29253 -0.12061,0.47132 -0.0211,0.15442 0.011,0.1625 0.70276,0.14621 0.70539,-0.0135 0.67393,-0.001 0.75786,-0.29794 0.0315,-0.10547 0.0681,-0.23022 0.0838,-0.27357 0.0262,-0.076 0.076,-0.24921 0.1261,-0.43338 0.0124,-0.046 0.0472,-0.18146 0.076,-0.30068 0.0314,-0.12193 0.0736,-0.26541 0.0943,-0.3169 0.0211,-0.054 0.0392,-0.13018 0.0392,-0.16793 0,-0.0378 0.0156,-0.0975 0.0368,-0.13018 0.0182,-0.0325 0.0498,-0.13257 0.0681,-0.22209 0.0182,-0.0895 0.0656,-0.26005 0.10757,-0.37923 0.0394,-0.11939 0.0812,-0.27087 0.0918,-0.33858 0.011,-0.0648 0.042,-0.1815 0.0681,-0.25734 0.0288,-0.0734 0.0786,-0.24647 0.11004,-0.37918 0.0314,-0.13542 0.0709,-0.26819 0.0866,-0.29797 0.0156,-0.0298 0.034,-0.1082 0.0446,-0.17606 0.011,-0.0677 0.0709,-0.28712 0.13378,-0.48756 0.15996,-0.51736 0.2229,-0.73946 0.2229,-0.80178 0,-0.0298 0.0211,-0.0975 0.0498,-0.15175 0.0262,-0.0541 0.055,-0.15711 0.063,-0.23025 0.007,-0.0703 0.0339,-0.16794 0.055,-0.21129 0.0236,-0.046 0.0418,-0.11115 0.0418,-0.14889 0,-0.0378 0.0211,-0.1167 0.0472,-0.17607 0.0262,-0.0596 0.063,-0.18147 0.0838,-0.27088 0.0183,-0.0894 0.0446,-0.17335 0.0578,-0.1869 0.011,-0.0161 0.0211,-0.0488 0.0211,-0.0785 0,-0.0596 0.12856,-0.53905 0.25174,-0.93995 0.0473,-0.15707 0.12335,-0.42525 0.16783,-0.5959 0.0446,-0.17063 0.10222,-0.39005 0.13104,-0.48757 0.0262,-0.0975 0.0681,-0.2546 0.0918,-0.35208 0.0262,-0.0975 0.0656,-0.23836 0.0917,-0.31151 0.0838,-0.25462 0.10496,-0.32777 0.10496,-0.38733 0,-0.0325 0.0236,-0.11115 0.0498,-0.17336 0.0288,-0.0649 0.0657,-0.18963 0.0812,-0.27901 0.0156,-0.0895 0.042,-0.1842 0.055,-0.20859 0.0123,-0.0273 0.0236,-0.0731 0.0236,-0.10033 0,-0.0298 0.0123,-0.0621 0.0262,-0.0705 0.0156,-0.005 0.0263,-0.0407 0.0263,-0.0734 0,-0.0298 0.0156,-0.0923 0.0368,-0.13812 0.0211,-0.0488 0.0736,-0.22752 0.11814,-0.39818 0.042,-0.17066 0.10497,-0.40361 0.13625,-0.51467 0.0288,-0.11101 0.076,-0.28168 0.0995,-0.37918 0.0262,-0.0975 0.0575,-0.20588 0.0735,-0.2438 0.0394,-0.0922 0.15733,-0.4957 0.19141,-0.6555 0.0123,-0.0704 0.042,-0.16791 0.063,-0.21671 0.0524,-0.12733 0.16521,-0.53088 0.18618,-0.66361 0.011,-0.0648 0.0288,-0.12208 0.0419,-0.13286 0.0124,-0.005 0.0236,-0.0353 0.0236,-0.0595 0,-0.0245 0.0236,-0.13018 0.055,-0.23562 0.0288,-0.10296 0.089,-0.31152 0.13104,-0.46048 0.042,-0.1489 0.0891,-0.30878 0.10496,-0.35213 0.0156,-0.046 0.0394,-0.13541 0.055,-0.20315 0.0123,-0.0677 0.0708,-0.27629 0.12843,-0.46319 0.055,-0.18959 0.10222,-0.36836 0.10222,-0.40358 0,-0.0323 0.0156,-0.092 0.0368,-0.13003 0.0211,-0.0406 0.0473,-0.12194 0.063,-0.18148 0.0262,-0.10557 0.0472,-0.18961 0.12843,-0.51464 0.0236,-0.0893 0.0575,-0.20044 0.0736,-0.24379 0.0183,-0.046 0.0473,-0.14889 0.0656,-0.23024 0.0183,-0.0812 0.0524,-0.21668 0.0786,-0.29795 0.0262,-0.0812 0.0681,-0.24107 0.0917,-0.35212 0.0262,-0.11101 0.055,-0.22211 0.0656,-0.24378 0.011,-0.0217 0.0446,-0.13811 0.0788,-0.25732 0.0314,-0.1191 0.0786,-0.27899 0.10496,-0.35213 0.0446,-0.12734 0.11787,-0.409 0.19404,-0.74759 0.0183,-0.0839 0.042,-0.16523 0.0526,-0.18149 0.011,-0.019 0.0368,-0.10295 0.0578,-0.1869 0.0211,-0.0868 0.0472,-0.18147 0.0604,-0.21128 0.034,-0.0785 0.13378,-0.46317 0.13378,-0.51194 0,-0.0245 0.011,-0.065 0.0236,-0.0921 0.0343,-0.0623 0.14421,-0.42526 0.2098,-0.69613 0.068,-0.27357 0.14419,-0.55256 0.2019,-0.74489 0.0262,-0.0812 0.0473,-0.16252 0.0498,-0.17606 10e-4,-0.0164 0.0185,-0.0651 0.0368,-0.1083 0.0183,-0.046 0.0419,-0.13002 0.055,-0.1896 0.011,-0.0596 0.034,-0.14621 0.0498,-0.18961 0.0156,-0.046 0.0446,-0.13542 0.0656,-0.20314 0.0211,-0.0677 0.0498,-0.15983 0.063,-0.20316 0.0368,-0.11371 0.0996,-0.35484 0.13624,-0.52277 0.0183,-0.0785 0.0473,-0.17877 0.0682,-0.21942 0.0211,-0.0406 0.0446,-0.13541 0.0524,-0.20855 0.011,-0.0731 0.0394,-0.17605 0.063,-0.22753 0.0262,-0.0514 0.055,-0.14352 0.0656,-0.20315 0.011,-0.0596 0.0263,-0.12194 0.0394,-0.13542 0.011,-0.0163 0.0288,-0.0758 0.0392,-0.13542 0.011,-0.0596 0.042,-0.15981 0.0681,-0.22482 0.0288,-0.0623 0.063,-0.16523 0.0735,-0.23023 0.0123,-0.0623 0.0472,-0.20045 0.076,-0.30339 0.11005,-0.38463 0.15733,-0.57152 0.17043,-0.67175 0.0123,-0.0922 0.007,-0.10557 -0.055,-0.13002 -0.0893,-0.0379 -0.51396,-0.0135 -0.62935,0.0325 -0.0446,0.0217 -0.0917,0.0596 -0.0996,0.0921 -0.0156,0.0487 -0.10757,0.19774 -0.14157,0.23026 -0.007,0.008 -0.0498,0.0731 -0.0918,0.14889 -0.0419,0.0731 -0.0893,0.14621 -0.10497,0.16252 -0.0184,0.0135 -0.0866,0.10558 -0.15208,0.20315 -0.0657,0.0975 -0.19667,0.26002 -0.29107,0.36297 -0.0943,0.10295 -0.17306,0.19501 -0.17306,0.20586 0,0.0271 -0.5481,0.59589 -0.62411,0.64466 -0.0392,0.0245 -0.11279,0.0839 -0.16258,0.13272 -0.19668,0.18691 -0.31468,0.27901 -0.64247,0.5011 -0.4615,0.31421 -0.70799,0.44153 -1.30851,0.67447 -0.1547,0.0596 -0.29107,0.046 -0.41692,-0.0406 -0.13378,-0.0922 -0.16785,-0.17877 -0.12857,-0.31962 0.21505,-0.7476 0.25177,-0.97784 0.22815,-1.51957 -0.0124,-0.30608 -0.0288,-0.41984 -0.11553,-0.76384 -0.0184,-0.0758 -0.063,-0.17606 -0.26226,-0.61216 -0.0314,-0.0677 -0.0917,-0.15981 -0.13364,-0.20044 -0.0446,-0.0432 -0.0786,-0.0894 -0.0786,-0.10295 0,-0.0758 -0.35399,-0.41443 -0.57166,-0.54716 -0.0262,-0.0164 -0.0995,-0.0596 -0.16257,-0.0975 -0.13901,-0.0839 -0.51397,-0.22211 -0.55855,-0.20585 -0.0182,0.005 -0.0736,-0.005 -0.12335,-0.0271 -0.12596,-0.054 -0.49035,-0.0651 -0.77354,-0.0245 z"
       id="path1-38"
       style="fill:#000000;stroke:none;stroke-width:0.00266513" /><rect
       style="fill:#000000;stroke:#000000;stroke-width:0.189691"
       id="rect1"
       width="2.0453689"
       height="73.862511"
       x="10.724745"
       y="165.95184" /></g><g
     inkscape:groupmode="layer"
     id="layer9"
     inkscape:label="semínima" /><g
     inkscape:groupmode="layer"
     id="layer7"
     inkscape:label="Mínima" /><g
     inkscape:groupmode="layer"
     id="layer8"
     inkscape:label="pausa_minima" /><g
     inkscape:groupmode="layer"
     id="layer6"
     inkscape:label="pausa_semibreve" /><g
     inkscape:groupmode="layer"
     id="layer4"
     inkscape:label="clave de do" /><g
     inkscape:groupmode="layer"
     id="layer5"
     inkscape:label="semibreve" /><g
     inkscape:groupmode="layer"
     id="layer3"
     inkscape:label="Clave de fa" /><g
     inkscape:groupmode="layer"
     id="layer2"
     inkscape:label="Clave de sol" /><g
     inkscape:groupmode="layer"
     id="g3"
     inkscape:label="semínima"
     transform="translate(-58.955143,70.094133)"><path
       d="m 273.78006,31.477465 c 0,10.656741 -0.021,19.38542 -0.0524,19.38542 -0.0315,0 -0.27245,-0.136222 -0.54489,-0.30388 -1.98046,-1.215519 -5.24977,-1.34126 -8.18379,-0.314359 -4.16001,1.467006 -7.20927,4.6525 -7.61794,7.953262 -0.24101,1.990934 0.92212,3.960912 2.92353,4.924945 1.19455,0.576321 2.11667,0.764936 3.78277,0.764936 4.58964,0 9.22118,-2.734916 10.96063,-6.454821 0.66014,-1.435567 0.61824,0.220052 0.59728,-23.597816 l -0.0314,-21.690714 -0.91164,-0.03143 -0.92211,-0.03143 z"
       id="path3"
       style="fill:#000000;stroke:none;stroke-width:0.0104786"
       sodipodi:insensitive="true" /></g><g
     inkscape:groupmode="layer"
     id="layer10"
     inkscape:label="semínima pausa" /><g
     inkscape:groupmode="layer"
     id="g5"
     inkscape:label="semínima pausa" /><g
     inkscape:groupmode="layer"
     id="layer12"
     inkscape:label="colcheia" /><g
     inkscape:groupmode="layer"
     id="layer13"
     inkscape:label="colcheia pausa" /><g
     inkscape:groupmode="layer"
     id="layer14"
     inkscape:label="semi colcheia" /><g
     inkscape:groupmode="layer"
     id="layer15"
     inkscape:label="semi colcheia pausa" /></svg>
