<?xml version="1.0" encoding="UTF-8" standalone="no"?>
<!-- Created with Inkscape (http://www.inkscape.org/) -->

<svg
   width="600mm"
   height="400mm"
   viewBox="0 0 600 400"
   version="1.1"
   id="svg1"
   xml:space="preserve"
   inkscape:version="1.4 (86a8ad7, 2024-10-11)"
   sodipodi:docname="projeto_musica.svg"
   xmlns:inkscape="http://www.inkscape.org/namespaces/inkscape"
   xmlns:sodipodi="http://sodipodi.sourceforge.net/DTD/sodipodi-0.dtd"
   xmlns:xlink="http://www.w3.org/1999/xlink"
   xmlns="http://www.w3.org/2000/svg"
   xmlns:svg="http://www.w3.org/2000/svg"><sodipodi:namedview
     id="namedview1"
     pagecolor="#ffffff"
     bordercolor="#000000"
     borderopacity="0.25"
     inkscape:showpageshadow="2"
     inkscape:pageopacity="0.0"
     inkscape:pagecheckerboard="0"
     inkscape:deskcolor="#d1d1d1"
     inkscape:document-units="mm"
     inkscape:zoom="0.34431467"
     inkscape:cx="991.8253"
     inkscape:cy="811.75745"
     inkscape:window-width="1920"
     inkscape:window-height="991"
     inkscape:window-x="-9"
     inkscape:window-y="-9"
     inkscape:window-maximized="1"
     inkscape:current-layer="layer15" /><defs
     id="defs1"><linearGradient
       id="linearGradient830"><stop
         id="stop831"
         offset="0"
         style="stop-color:#000;stop-opacity:1;" /><stop
         id="stop832"
         offset="1"
         style="stop-color:#fff;stop-opacity:1;" /></linearGradient><radialGradient
       id="radialGradient833"
       xlink:href="#linearGradient830" /><linearGradient
       id="linearGradient834"
       x1="-1.0164395e-18"
       x2="1"
       xlink:href="#linearGradient830"
       y1="0.5"
       y2="0.5" /></defs><g
     inkscape:label="Pentagrama"
     inkscape:groupmode="layer"
     id="layer1"><path
       d="m 156.39137,274.50441 v 0.43709 h 2.148 2.148 v 1.46863 c 0,1.61516 -0.002,1.5394 0.0508,1.6518 0.0532,0.11073 0.16401,0.19148 0.28723,0.2098 0.0799,0.0108 9.30216,0.0108 9.38208,0 0.15319,-0.0225 0.26725,-0.12655 0.31887,-0.29223 0.0125,-0.0408 0.0142,-0.1715 0.0158,-1.54189 l 0.002,-1.49611 h 2.14799 2.14799 v -0.43709 -0.43709 h -9.32463 -9.32463 z"
       id="path1-6"
       style="fill:#000000;stroke:none;stroke-width:0.000832559" /><path
       d="m 189.10775,283.37435 v -0.43709 h -2.14799 -2.14801 v -1.46863 c 0,-1.61516 0.002,-1.5394 -0.0508,-1.65179 -0.0532,-0.11073 -0.16402,-0.19149 -0.28724,-0.20981 -0.0799,-0.0108 -9.30215,-0.0108 -9.38207,0 -0.15319,0.0225 -0.26725,0.12655 -0.31887,0.29223 -0.0125,0.0408 -0.0142,0.17151 -0.0158,1.5419 l -0.002,1.4961 h -2.14799 -2.14799 v 0.43709 0.43709 h 9.32464 9.32463 z"
       id="path16"
       style="fill:#000000;stroke:none;stroke-width:0.000832559" /><rect
       style="fill:#ffff00;fill-rule:evenodd;stroke:none;stroke-width:0.174759"
       id="rect1-5"
       width="308.87799"
       height="2"
       x="32.705563"
       y="237.145" /><rect
       style="fill:#ffff00;fill-rule:evenodd;stroke:none;stroke-width:0.174759"
       id="rect4-6"
       width="308.87799"
       height="2"
       x="32.705563"
       y="248.68105" /><rect
       style="fill:#ffff00;fill-rule:evenodd;stroke:none;stroke-width:0.174759"
       id="rect5-1"
       width="308.87799"
       height="2"
       x="32.705563"
       y="260.53458" /><rect
       style="fill:#ffff00;fill-rule:evenodd;stroke:none;stroke-width:0.174759"
       id="rect6-8"
       width="308.87799"
       height="2"
       x="32.705563"
       y="272.2294" /><rect
       style="fill:#ffff00;fill-rule:evenodd;stroke:none;stroke-width:0.174759"
       id="rect7-9"
       width="308.87799"
       height="2"
       x="32.705563"
       y="283.87109" /><path
       d="m 282.36289,239.22683 c -0.62817,0.19872 -1.12519,0.52737 -1.6222,1.07768 -0.51082,0.56559 -0.84906,1.20761 -1.00093,1.91842 -0.44868,2.13243 0.62818,4.26486 2.48507,4.90689 0.89738,0.31336 2.61622,0.18343 4.00371,-0.29809 0.89048,-0.30572 2.05708,-1.00889 2.75427,-1.65091 0.23471,-0.21401 0.26232,-0.22165 0.2209,-0.0841 -0.0276,0.0917 -0.20018,0.7796 -0.38657,1.52862 -1.62219,6.55016 -1.71193,6.88646 -1.99495,7.5132 -0.51082,1.13118 -0.98712,1.69677 -1.75334,2.056 -0.26922,0.12993 -1.02165,0.32865 -1.06306,0.29044 -0.007,-0.008 0.0483,-0.20637 0.11735,-0.43566 0.31753,-1.02418 0.2416,-2.10186 -0.21399,-3.11075 -1.05616,-2.34644 -3.67237,-3.03432 -5.54307,-1.46749 -0.97332,0.81018 -1.45653,1.91843 -1.44962,3.31712 0.007,0.90953 0.19328,1.58213 0.64888,2.33115 0.74552,1.21526 1.99494,1.82671 3.55501,1.72735 1.78097,-0.11465 3.36174,-0.71081 4.6802,-1.75792 0.34516,-0.27515 0.52463,-0.38216 0.50392,-0.29808 -0.0207,0.0764 -0.11044,0.4433 -0.20709,0.82546 -0.0897,0.37451 -0.41417,1.68148 -0.71791,2.90438 -0.30372,1.21526 -0.7179,2.8891 -0.91118,3.70692 -0.52463,2.22415 -0.57295,2.36172 -0.95261,2.76681 -0.49011,0.51973 -0.98713,0.78724 -1.71884,0.93246 -0.2623,0.0459 -0.2623,0.0306 -0.11735,-0.42037 0.15187,-0.48152 0.20019,-1.49041 0.10355,-2.07129 -0.32444,-1.81142 -1.73264,-3.18718 -3.42387,-3.32476 -1.06305,-0.0841 -2.01566,0.32866 -2.8371,1.23819 -0.75243,0.84074 -1.06306,1.67384 -1.06306,2.86617 0,1.18468 0.27611,1.97193 1.00783,2.82796 0.34515,0.39744 0.59365,0.61145 1.00092,0.8331 0.73172,0.40508 1.15971,0.4968 2.20205,0.4433 1.422,-0.0611 2.86473,-0.53502 4.09344,-1.33755 0.33135,-0.21401 0.60056,-0.35158 0.60056,-0.30572 0,0.0459 -0.14496,0.65731 -0.31753,1.35283 -0.17257,0.69552 -0.40728,1.64327 -0.51773,2.10186 -0.11044,0.45859 -0.18637,0.8866 -0.17257,0.9401 0.0207,0.0611 0.0138,0.0917 -0.0207,0.0688 -0.0276,-0.0229 -0.11044,0.17579 -0.16567,0.43566 -0.58675,2.46873 -0.81454,3.42412 -1.23563,5.17439 -0.80074,3.35532 -1.29775,5.57183 -1.29775,5.77054 0,0.19109 0,0.19109 0.69029,0.19109 0.49702,0 0.7041,-0.0306 0.71791,-0.0993 0.0138,-0.0458 0.28992,-1.27641 0.62126,-2.7286 0.53153,-2.35408 0.98712,-4.28777 1.636,-6.91701 0.32444,-1.32226 0.4556,-1.84963 0.66959,-2.75152 0.35205,-1.45984 0.96641,-3.98971 1.38749,-5.69413 0.55224,-2.23943 1.60839,-6.54251 2.36081,-9.59212 0.34515,-1.39105 0.6972,-2.82795 0.79384,-3.19482 0.0966,-0.37452 0.16567,-0.74139 0.14497,-0.82546 -0.0207,-0.0764 -0.0138,-0.12994 0.0207,-0.107 0.0483,0.0306 0.51772,-1.75792 1.23563,-4.70053 0.31753,-1.31461 0.98022,-3.98206 1.59458,-6.42022 0.13806,-0.56559 0.24851,-1.03946 0.2416,-1.04711 -0.0138,-0.0306 -1.20111,-0.40508 -1.27704,-0.40508 -0.0345,0 -0.0967,0.14522 -0.14496,0.32101 -0.11736,0.48916 -0.72481,2.01778 -1.02854,2.59102 -0.31063,0.57323 -0.88358,1.19997 -1.33918,1.4369 -0.26921,0.15287 -1.14588,0.39745 -1.20111,0.35159 -0.0138,-0.0153 0.0345,-0.19108 0.0966,-0.39744 0.16568,-0.49681 0.20019,-1.81907 0.0553,-2.41523 -0.2347,-0.99361 -1.05615,-2.1095 -1.89831,-2.57574 -0.82836,-0.46622 -1.81548,-0.58087 -2.65073,-0.31336 z m 0.98022,34.8985 c 0,0.0611 -0.0276,0.0917 -0.0621,0.0688 -0.0345,-0.0229 -0.0414,-0.0764 -0.0207,-0.11465 0.0621,-0.0994 0.0828,-0.0841 0.0828,0.0459 z"
       id="path1-9"
       style="fill:#000000;stroke:none;stroke-width:0.00726363" /><path
       d="m 303.57628,240.97141 v 21.78398 l -0.59294,-0.18046 c -2.11394,-0.72184 -5.74891,0.3867 -7.99175,2.44908 -3.81542,3.50604 -2.32018,8.12062 2.50064,7.70813 2.65533,-0.23202 5.95515,-2.37173 7.19258,-4.71768 0.54138,-0.97963 0.56716,-1.39211 0.6445,-9.74477 0.0773,-6.88322 0.15468,-8.68781 0.41248,-8.68781 1.00541,0 4.79505,2.62955 6.16138,4.25368 1.95927,2.37175 2.34597,5.38799 1.13431,8.84249 -0.64449,1.83036 -0.56715,2.50064 0.20624,1.85614 0.20624,-0.18045 0.69606,-1.2632 1.05698,-2.4233 0.67027,-2.03661 0.95385,-5.25909 0.92807,-10.28616 0,-1.80459 0,-4.27945 0,-6.44496 0,-0.87652 0.0258,-2.42331 0.0258,-3.40294 0,-1.00542 0,-2.68111 0,-3.73808 0,-2.81 -0.6445,-4.2279 -3.42872,-7.63084 -1.28899,-1.54679 -2.75845,-3.42872 -3.24826,-4.17633 -1.18588,-1.75303 -3.19671,-6.00671 -3.19671,-6.72854 0,-0.43826 -0.15468,-0.54138 -0.90229,-0.54138 h -0.90229 z m 4.09899,-11.39469 c 1.9335,1.46945 4.84661,4.56303 5.5169,5.95515 0.64449,1.31477 1.18586,4.02165 0.77339,3.97009 -0.3867,-0.0258 -4.04744,-4.33101 -5.41377,-6.36762 -1.26321,-1.85615 -2.5522,-4.43414 -2.21707,-4.43414 0.0773,0 0.67028,0.3867 1.34055,0.87652 z m 0.59294,7.32148 c 2.44909,1.95927 4.27946,3.99587 5.00129,5.59423 0.59294,1.36633 1.05698,3.76385 0.69606,3.71229 -0.41248,-0.0258 -5.02707,-5.28487 -5.98092,-6.80588 -1.1601,-1.83037 -2.13973,-3.99587 -1.83038,-3.99587 0.1289,0 1.08276,0.67027 2.11395,1.49523 z m -0.1289,7.01212 c 1.70148,0.97963 4.20212,3.42872 4.79506,4.69193 0.51559,1.08275 1.10853,3.76386 0.87651,3.9701 -0.18046,0.18046 -3.86698,-3.66074 -5.18175,-5.41377 -0.87651,-1.16009 -2.21707,-3.50606 -2.21707,-3.89276 0,-0.2578 0.41248,-0.10312 1.72725,0.6445 z"
       id="path1-13"
       style="fill:#000000;stroke:none;stroke-width:0.0257799" /><path
       d="m 340.65179,241.02074 c -0.0233,0.0368 -0.34274,0.79488 -0.70885,1.70016 -0.7244,1.78112 -0.98145,2.22272 -1.58123,2.74528 -0.43622,0.39008 -0.69326,0.52992 -1.18399,0.65504 -0.33495,0.081 -1.15284,0.11776 -1.23072,0.0515 -0.0155,-0.0221 0.0233,-0.22816 0.10129,-0.46368 0.28821,-0.94944 0.007,-1.99456 -0.75558,-2.78208 -1.44103,-1.48672 -3.809,-1.49408 -5.27341,-0.0147 -0.63873,0.64768 -0.82567,1.104 -0.83346,2.03872 0,0.6624 0.0155,0.72864 0.296,1.25856 0.48294,0.92736 1.37093,1.5824 2.4225,1.78112 0.89577,0.17664 3.06901,0.007 4.21406,-0.3312 0.59199,-0.16928 1.50335,-0.57408 1.81492,-0.8096 0.10906,-0.0736 0.21032,-0.13248 0.22589,-0.11776 0.007,0.0147 -0.6621,1.4352 -1.49556,3.15008 -0.84126,1.71488 -1.57346,3.21632 -1.63577,3.34144 -1.08272,2.23008 -1.12946,2.31839 -1.47219,2.67167 -0.17136,0.17664 -0.47516,0.39744 -0.66989,0.49312 -0.54526,0.2576 -1.60462,0.41952 -1.84609,0.27232 -0.0779,-0.0442 -0.0701,-0.13984 0.0234,-0.41952 0.0779,-0.25024 0.10906,-0.55936 0.0935,-0.9568 -0.0389,-0.78752 -0.33494,-1.39839 -0.95809,-1.97248 -1.4644,-1.36895 -3.69995,-1.33215 -5.15657,0.081 -1.51115,1.46464 -0.98925,3.89344 1.03599,4.82816 0.592,0.27232 1.04377,0.34592 2.0486,0.3312 1.93956,-0.0294 3.59869,-0.41952 4.65805,-1.09664 0.19473,-0.12512 0.3661,-0.21344 0.38168,-0.20608 0.0233,0.0221 -0.30378,0.72128 -0.95808,2.04608 -0.17137,0.34592 -0.95032,1.95776 -1.72925,3.58431 -0.78673,1.63392 -1.52672,3.11328 -1.64356,3.28992 -0.25705,0.37536 -0.80231,0.75808 -1.31641,0.90528 -0.35052,0.10304 -1.38651,0.19136 -1.49556,0.12512 -0.0312,-0.0147 -0.007,-0.184 0.0545,-0.37536 0.15578,-0.50048 0.1402,-1.31008 -0.0467,-1.83263 -0.42841,-1.19968 -1.9006,-2.16384 -3.30269,-2.16384 -0.61536,0 -1.29304,0.16928 -1.79935,0.4416 -0.54526,0.2944 -1.2463,1.00832 -1.50335,1.52352 -0.17916,0.37535 -0.21032,0.51519 -0.20253,1.12608 0,0.97151 0.19473,1.42047 0.8802,2.06815 0.87242,0.82432 1.67472,1.11136 3.0846,1.08928 1.93955,-0.0221 3.58312,-0.41952 4.68142,-1.11872 0.16357,-0.1104 0.30379,-0.184 0.31937,-0.16928 0.0233,0.0221 -0.33495,0.79488 -1.12168,2.39936 -0.14799,0.30176 -0.52968,1.08192 -0.84125,1.7296 -1.40209,2.9072 -2.15766,4.43073 -2.33681,4.71777 -0.25706,0.41952 -0.75558,0.8096 -1.25409,0.97889 -0.41285,0.1472 -1.43325,0.25024 -1.58904,0.15456 -0.0545,-0.0369 -0.0467,-0.16192 0.0312,-0.44897 0.148,-0.53728 0.10905,-1.32481 -0.10906,-1.85473 -0.2103,-0.52256 -0.97366,-1.3248 -1.5345,-1.61184 -0.91135,-0.47104 -2.14208,-0.552 -3.06123,-0.2208 -0.86462,0.32384 -1.71366,1.11872 -2.02525,1.90624 -0.2103,0.52992 -0.22589,1.43521 -0.0389,1.93569 0.38947,1.03041 1.40989,1.86945 2.60166,2.13441 0.41284,0.0883 2.09534,0.0662 2.81196,-0.0369 1.38651,-0.20608 2.78081,-0.6992 3.3728,-1.19969 0.0701,-0.0589 0.13243,-0.0883 0.13243,-0.0515 0,0.0295 -0.79452,1.91361 -1.7604,4.18785 -3.63765,8.5155 -4.08164,9.56799 -4.08164,9.62687 0,0.0295 0.25705,0.0589 0.56863,0.0589 h 0.5764 l 1.79157,-3.95967 c 0.98925,-2.1712 3.05343,-6.70495 4.58016,-10.06111 1.5345,-3.36354 3.19364,-7.02146 3.69995,-8.13282 0.50631,-1.11136 2.11872,-4.65888 3.58312,-7.8752 1.4644,-3.21632 3.0768,-6.76383 3.58312,-7.87519 0.50631,-1.11136 2.05639,-4.53376 3.45848,-7.60288 1.3943,-3.06911 2.53934,-5.61567 2.53934,-5.65247 0,-0.081 -1.06715,-0.0883 -1.11389,-0.0147 z"
       id="path1-4"
       style="fill:#000000;stroke:none;stroke-width:0.00757163" /><path
       d="m 188.82174,243.91598 v 18.45953 l -0.22801,-0.1795 c -0.79078,-0.61855 -1.78531,-0.98968 -3.08305,-1.15706 -0.36629,-0.0461 -0.49243,-0.051 -1.14009,-0.0388 -0.46816,0.007 -0.83687,0.0242 -1.03091,0.051 -2.42085,0.31777 -4.66946,1.30988 -6.62215,2.92539 -0.64524,0.53123 -1.5015,1.45299 -1.96967,2.1152 -0.4075,0.5749 -0.81017,1.32201 -1.02849,1.90903 -0.43177,1.17161 -0.49969,2.31896 -0.1892,3.28197 0.25712,0.79805 0.75682,1.56699 1.34384,2.06911 0.90963,0.77864 2.15158,1.2177 3.75982,1.32201 0.97029,0.0631 2.32381,-0.10674 3.45904,-0.4342 3.24315,-0.93633 6.11031,-3.18494 7.43475,-5.82895 0.36628,-0.73013 0.57731,-1.3875 0.70588,-2.1904 0.0242,-0.15524 0.0316,-4.24982 0.0364,-20.48014 l 0.007,-20.28365 h -0.72772 -0.7277 z m -1.89204,19.25274 c 0.62098,0.12855 1.08428,0.56275 1.35354,1.27833 0.0728,0.18679 0.0873,0.25956 0.097,0.48272 0.0218,0.48514 -0.11886,0.93146 -0.44632,1.42631 -0.13341,0.20376 -0.6792,0.77379 -1.04063,1.08671 -1.7853,1.55487 -5.07455,3.5027 -7.67732,4.5506 -1.02607,0.41237 -1.30744,0.48272 -1.9163,0.48513 -0.34444,0 -0.42934,-0.007 -0.60399,-0.0558 -0.89508,-0.245 -1.44086,-0.89023 -1.47482,-1.75134 -0.01,-0.22802 -0.003,-0.31778 0.0388,-0.49485 0.16494,-0.69375 0.71556,-1.37779 1.8702,-2.32139 1.84594,-1.5112 4.58456,-3.12672 6.91323,-4.07759 0.41964,-0.17222 1.3026,-0.47059 1.45542,-0.49484 0.0607,-0.007 0.21103,-0.0412 0.33474,-0.0752 0.37841,-0.0994 0.74225,-0.11401 1.09641,-0.0388 z"
       id="path1-3"
       style="fill:#000000;stroke:none;stroke-width:0.00242569"
       inkscape:label="path1-3" /><path
       d="m 147.81041,279.72241 c -1.97661,0.0606 -3.52893,0.52782 -4.64352,1.39659 -0.22309,0.17426 -0.50762,0.44785 -0.6844,0.65915 -0.55814,0.66841 -0.88645,1.45131 -0.98242,2.34533 -0.0177,0.16584 -0.0244,0.5817 -0.0126,0.75765 0.0421,0.60191 0.18267,1.13141 0.43943,1.64998 0.67094,1.3604 2.02292,2.28641 3.92629,2.6888 0.94789,0.20035 2.11214,0.27191 3.23683,0.19867 2.22916,-0.14564 3.89934,-0.86203 4.88849,-2.09783 0.49836,-0.62296 0.81573,-1.38986 0.90749,-2.19549 0.0303,-0.26854 0.0387,-0.61959 0.0211,-0.86709 -0.064,-0.8797 -0.36452,-1.68533 -0.87888,-2.3529 -0.17678,-0.22982 -0.44784,-0.51184 -0.67009,-0.69872 -1.18529,-0.99167 -2.95819,-1.50098 -5.18566,-1.48835 -0.15994,9.3e-4 -0.32242,0.003 -0.36199,0.004 z m 0.76186,1.123 c 0.49836,0.0589 0.9016,0.29885 1.22654,0.72902 0.25087,0.33336 0.45038,0.75427 0.65915,1.3907 0.0673,0.20709 0.32074,1.05144 0.3923,1.3082 0.15574,0.55897 0.25422,1.06155 0.3039,1.54644 0.0176,0.17005 0.0143,0.69198 -0.005,0.83341 -0.0623,0.46048 -0.18351,0.75427 -0.40913,0.99504 -0.26265,0.28032 -0.67346,0.46048 -1.2299,0.54129 -0.17342,0.0253 -0.44112,0.0522 -0.62295,0.0623 -0.0766,0.005 -0.18774,0.0151 -0.24834,0.0236 -0.27107,0.0362 -0.72819,8.5e-4 -1.00178,-0.0774 -0.48742,-0.13974 -0.84267,-0.41755 -1.14152,-0.89234 -0.0816,-0.13048 -0.22982,-0.42933 -0.30222,-0.60948 -0.0934,-0.23319 -0.2837,-0.82078 -0.42512,-1.31409 -0.11954,-0.41502 -0.21298,-0.79805 -0.31989,-1.30399 -0.0892,-0.42681 -0.24666,-1.2055 -0.25171,-1.2518 -0.011,-0.0909 -0.006,-0.40156 0.007,-0.49921 0.0253,-0.18099 0.0791,-0.35188 0.15995,-0.51435 0.0454,-0.0909 0.096,-0.15911 0.18772,-0.25508 0.25844,-0.2677 0.59433,-0.43859 1.06912,-0.54466 0.4487,-0.10018 0.58423,-0.12543 0.793,-0.14648 0.33673,-0.0345 0.95043,-0.0455 1.15752,-0.021 z"
       id="path1-1"
       style="fill:#000000;stroke:none;stroke-width:0.000841829" /><g
       transform="matrix(0.05434076,0,0,-0.05434076,-26.341996,371.66966)"
       fill="#000000"
       stroke="none"
       id="g2"><path
         id="path1-5"
         d="m 2409.8673,2519.9229 v -490.0063 -489.9968 h 54.9946 55.0041 v 471.8808 h 60.0347 c 0.072,-408.8338 2.1969,-471.8808 14.9683,-471.8808 13,0 14.9968,34.0028 14.9968,242.0028 v 240.9948 l 25.9995,-23.9929 c 26,-24 83.9992,-132.0067 83.9992,-156.0067 0,-25 16.0046,-11.9945 29.0046,22.0055 34,95 144.9939,99.9991 170.9939,6.9991 13,-50 13.003,-166.0063 -1.997,-214.0063 -15,-50 -58.9996,-87.9932 -102.9996,-87.9932 -48,0 -62.0037,21.9981 -36.0037,58.9981 26,36 25.9985,56.0037 0.9985,81.0037 -39,39 -109.9987,10.9906 -109.9987,-45.0094 0,-69 57.0001,-115 154.0001,-122 50,-4 70.001,-0.9937 102.001,15.0063 111,57 154.004,182.9975 100.004,296.9975 -42,91 -103.9976,123.9972 -206.9976,110.9972 -49,-7 -49.0068,-5.9954 -66.0068,29.0046 -15,32 -14.9985,37.9958 -0.9985,66.9958 l 14.9968,32.9987 h 80.0051 c 68,0 84.9993,4.001 115.9993,25.001 98,66 116.0037,233.0035 36.0037,325.0035 -64,73 -171.0011,94.9961 -256.0011,53.9961 -69.0001,-33 -94.0071,-102.9915 -53.0071,-146.9915 26,-27 63.9998,-28.0065 89.9998,-2.0065 25,25 25,48.0051 0,80.0051 -24,30 -24.9941,45.9961 -3.9941,53.9961 48,18 107.9962,-3.9955 130.9962,-47.9955 36,-69 27.9987,-252.0048 -12.0013,-292.0048 -48,-48 -117.9965,-21.0004 -149.9965,57.9996 l -15.9953,42.0044 -24.0025,-57.9997 c -27,-66 -70.9977,-136.0077 -84.9977,-136.0077 -6,0 -10.0042,87.0037 -10.0042,235.0037 0,202 -1.9968,235.0037 -14.9968,235.0037 -12.3453,0 -14.6887,-65.1887 -14.9017,-438.1214 h -60.1013 v 438.1214 h -55.0041 z" /></g><g
       id="g869"
       transform="matrix(0.84538653,0,0,0.85691932,-0.56161622,-42.21107)"><path
         id="path861"
         style="fill:#000000;fill-opacity:1;fill-rule:evenodd;stroke:#000000;stroke-width:0.455743;stroke-miterlimit:4;stroke-dasharray:none;stroke-opacity:1"
         d="m 94.57377,338.62101 c -8.784842,0.20794 -15.514784,6.36207 -13.333759,15.78722 0.0026,0.0111 0.0133,0.0209 0.01589,0.032 0.256047,3.25054 2.960621,5.8146 6.27658,5.8146 3.484883,0 6.308366,-2.82362 6.308366,-6.3085 0,-3.07137 -2.190946,-5.63232 -5.09804,-6.19693 -1.15848,-0.40989 -2.895446,-1.34179 -2.819204,-2.83553 0.03514,-0.74343 0.902532,-2.09217 2.293507,-2.77222 1.690551,-0.79335 3.433799,-1.22236 5.193399,-0.85995 2.667328,0.48694 9.488921,5.38493 10.020651,13.87556 0.30521,6.44653 -3.31569,15.15004 -6.849964,19.27585 -5.697612,6.50335 -14.850793,10.54319 -13.955426,11.26315 0.803631,0.71997 11.609841,-4.21952 17.236755,-10.41888 4.528705,-4.90385 7.538645,-9.27094 8.977195,-13.83756 h 2.7648 a 4.9816136,4.6702625 0 0 0 4.94461,4.193 4.9816136,4.6702625 0 0 0 4.9819,-4.67001 4.9816136,4.6702625 0 0 0 -4.9819,-4.67062 4.9816136,4.6702625 0 0 0 -4.85719,3.69006 h -2.44755 c 0.45271,-1.89535 0.64684,-3.83609 0.5587,-5.87671 -0.0433,-1.66755 -0.36335,-3.36515 -0.93402,-4.99626 h 2.87177 a 4.9816136,4.6702625 0 0 0 4.80829,3.47838 4.9816136,4.6702625 0 0 0 4.9819,-4.67001 4.9816136,4.6702625 0 0 0 -4.9819,-4.67061 4.9816136,4.6702625 0 0 0 -4.96111,4.40527 h -3.30578 c -2.31819,-5.09058 -7.1601,-9.18407 -13.708473,-9.03126 z" /></g><rect
       style="fill:none;fill-rule:evenodd;stroke:#000000;stroke-width:0.247448"
       id="rect3-7"
       width="318.09116"
       height="60.975128"
       x="27.080194"
       y="230.96861" /><path
       d="m 52.441544,216.87285 c -3.71821,2.08612 -6.5662,10.26373 -6.19702,17.8294 0.13185,2.86494 0.94933,8.48357 1.31852,9.12332 0.0791,0.11126 -1.71408,2.2252 -3.95555,4.6451 -2.26785,2.4199 -4.69392,5.22922 -5.40592,6.23056 -1.63496,2.25301 -3.53362,6.25837 -4.0874,8.62264 -0.63288,2.64243 -0.39555,7.25972 0.50104,9.90214 2.79525,8.34451 10.75909,13.85187 18.301,12.68365 1.13392,-0.19471 2.29422,-0.3616 2.55792,-0.41723 0.4483,-0.0557 0.63289,0.47285 1.52948,4.67292 1.63496,7.62131 1.34489,10.79222 -1.18667,13.07304 -2.45243,2.22521 -6.88265,2.69806 -8.99227,0.94572 -0.92296,-0.75101 -0.87022,-1.08479 0.18459,-1.08479 3.90281,-0.0278 5.72236,-4.97889 3.00622,-8.26106 -1.89867,-2.28082 -4.90488,-2.39208 -6.98814,-0.27814 -2.55792,2.55897 -2.55792,6.67559 -0.0527,9.34583 5.03673,5.28485 14.58279,3.3378 16.48145,-3.36561 0.63289,-2.30865 0.50104,-4.6451 -0.65926,-10.23591 -0.58015,-2.80932 -1.05481,-5.25704 -1.05481,-5.42393 0,-0.13907 0.92296,-0.83445 2.00414,-1.52982 2.42607,-1.50201 4.14014,-3.42125 5.22133,-5.84116 1.02844,-2.33646 1.26577,-6.00804 0.55377,-8.78954 -1.42399,-5.50737 -6.61895,-9.51273 -11.60294,-8.9008 l -1.31851,0.16689 -0.84385,-4.36695 -0.84385,-4.33914 1.42399,-1.64108 c 5.2477,-5.98022 7.85836,-13.65716 6.98814,-20.55527 -0.68563,-5.42393 -3.87644,-12.7949 -5.5114,-12.76708 -0.23733,0.0278 -0.84385,0.25033 -1.37125,0.5563 z m 3.87644,8.1776 c 0.87022,0.9179 0.89659,1.02916 0.89659,3.00402 0,1.14042 -0.18459,2.75368 -0.42192,3.58813 -0.84385,3.08747 -3.32266,7.00938 -6.19703,9.84651 -1.60859,1.58545 -1.55585,1.64108 -2.08325,-2.19739 -0.9757,-7.20408 2.24147,-15.10353 6.17065,-15.18698 0.50104,0 1.02844,0.30597 1.63496,0.94571 z m -6.90902,28.17658 c 0.23733,0.80664 1.47674,7.14846 1.39762,7.17627 -0.0264,0.0278 -0.68562,0.41723 -1.45036,0.86226 -1.76681,0.97353 -3.74459,3.22654 -4.72029,5.34048 -0.63289,1.39075 -0.73837,1.89142 -0.73837,4.08881 0,3.00402 0.52741,4.42258 2.37333,6.5087 1.21303,1.36295 3.48088,2.80933 4.40384,2.80933 0.89659,0 0.52741,-1.00134 -0.55377,-1.52983 -2.90074,-1.36294 -4.11377,-4.2557 -3.05896,-7.34316 0.73837,-2.19739 2.97985,-4.4504 4.53569,-4.56166 l 0.68563,-0.0556 1.63496,8.48357 c 0.92296,4.67293 1.63496,8.5114 1.60859,8.53921 -0.0264,0.0556 -0.68563,0.19471 -1.47674,0.3616 -6.14428,1.22385 -12.76323,-1.86361 -15.32115,-7.12065 -0.84385,-1.75235 -0.89659,-2.08613 -0.9757,-4.95107 -0.0791,-2.69805 0,-3.3378 0.55377,-5.11796 1.18667,-3.67158 2.53155,-5.67426 6.67169,-10.01339 2.10963,-2.16957 3.92918,-3.94973 4.06103,-3.94973 0.13185,0 0.29008,0.22252 0.36919,0.47285 z m 7.64739,13.32338 c 1.6877,0.61193 3.87644,2.7815 4.66755,4.61729 0.44829,1.1126 0.60651,2.00268 0.60651,3.6994 0.0264,1.97486 -0.0527,2.39208 -0.76474,3.6994 -0.79111,1.55764 -3.32266,4.22788 -3.98191,4.22788 -0.1846,0 -0.42193,-0.27815 -0.50104,-0.63975 -0.0527,-0.33378 -0.79111,-3.92191 -1.58222,-7.98291 -0.81748,-4.06099 -1.52948,-7.53786 -1.58222,-7.73257 -0.15822,-0.50067 1.60859,-0.44504 3.13807,0.11126 z"
       id="path1"
       style="fill:#000000;stroke:none;stroke-width:0.027083" /></g><g
     inkscape:groupmode="layer"
     id="layer9"
     inkscape:label="semínima"><path
       d="m 204.40651,258.13458 c 0,8.99598 -0.0177,16.36437 -0.0442,16.36437 -0.0266,0 -0.22999,-0.115 -0.45997,-0.25653 -1.67182,-1.02609 -4.43164,-1.13223 -6.90842,-0.26537 -3.5117,1.23839 -6.08576,3.92746 -6.43074,6.71384 -0.20345,1.68068 0.77841,3.34365 2.46792,4.15745 1.00839,0.48651 1.7868,0.64572 3.19326,0.64572 3.87438,0 7.78413,-2.30869 9.2525,-5.4489 0.55727,-1.21186 0.5219,0.18575 0.5042,-19.92032 l -0.0265,-18.31039 -0.76957,-0.0265 -0.77841,-0.0265 z"
       id="path1-8"
       style="fill:#000000;stroke:none;stroke-width:0.0088456" /></g><g
     inkscape:groupmode="layer"
     id="layer7"
     inkscape:label="Mínima" /><g
     inkscape:groupmode="layer"
     id="layer8"
     inkscape:label="pausa_minima" /><g
     inkscape:groupmode="layer"
     id="layer6"
     inkscape:label="pausa_semibreve" /><g
     inkscape:groupmode="layer"
     id="layer4"
     inkscape:label="clave de do" /><g
     inkscape:groupmode="layer"
     id="layer5"
     inkscape:label="semibreve" /><g
     inkscape:groupmode="layer"
     id="layer3"
     inkscape:label="Clave de fa" /><g
     inkscape:groupmode="layer"
     id="layer2"
     inkscape:label="Clave de sol" /><g
     inkscape:groupmode="layer"
     id="g3"
     inkscape:label="semínima"
     transform="translate(-58.955143,70.094133)"><path
       d="m 273.78006,31.477465 c 0,10.656741 -0.021,19.38542 -0.0524,19.38542 -0.0315,0 -0.27245,-0.136222 -0.54489,-0.30388 -1.98046,-1.215519 -5.24977,-1.34126 -8.18379,-0.314359 -4.16001,1.467006 -7.20927,4.6525 -7.61794,7.953262 -0.24101,1.990934 0.92212,3.960912 2.92353,4.924945 1.19455,0.576321 2.11667,0.764936 3.78277,0.764936 4.58964,0 9.22118,-2.734916 10.96063,-6.454821 0.66014,-1.435567 0.61824,0.220052 0.59728,-23.597816 l -0.0314,-21.690714 -0.91164,-0.03143 -0.92211,-0.03143 z"
       id="path3"
       style="fill:#000000;stroke:none;stroke-width:0.0104786"
       sodipodi:insensitive="true" /></g><g
     inkscape:groupmode="layer"
     id="layer10"
     inkscape:label="semínima pausa" /><g
     inkscape:groupmode="layer"
     id="g5"
     inkscape:label="semínima pausa"><g
       transform="matrix(0.03527778,0,0,-0.03527778,149.85848,461.21165)"
       fill="#000000"
       stroke="none"
       id="g4"><path
         d="m 1783.2264,5785.655 c -8.8746,-5.0289 -5.0289,-16.5657 11.241,-34.9064 3.5498,-3.8457 8.2828,-10.3537 10.6494,-14.7909 2.0708,-4.1414 4.4373,-8.2828 5.3247,-9.1703 2.9582,-2.9582 16.5658,-25.4403 22.1862,-36.9772 3.2541,-6.5079 6.8039,-12.1284 8.283,-12.7202 1.1833,-0.5915 2.0707,-3.5498 2.0707,-6.8037 0,-2.9582 1.4791,-5.6206 2.9582,-5.6206 1.7748,0 2.9581,-2.3665 2.9581,-5.3246 0,-2.9582 1.4791,-6.8038 3.55,-8.8746 6.2121,-6.2121 6.8036,-54.4303 0.5915,-77.5041 -2.9582,-11.5368 -6.2122,-20.7072 -7.6913,-20.7072 -1.1833,0 -2.3665,-1.7749 -2.3665,-3.5498 0,-5.3247 -15.3825,-35.2022 -21.2989,-42.0059 -2.958,-3.2541 -5.3246,-6.8039 -5.3246,-7.6913 0,-1.1833 -3.254,-5.9164 -7.3955,-10.6494 -4.1413,-4.7332 -7.3954,-9.4662 -7.3954,-10.6494 0,-2.0708 -13.9035,-16.8616 -43.781,-47.3308 -5.9163,-6.2121 -11.8326,-11.241 -13.0158,-11.241 -3.5498,0 -2.6624,-7.9872 1.4791,-12.4243 1.7748,-2.0708 7.3954,-9.1704 12.4243,-15.6784 4.733,-6.508 11.5367,-14.495 14.7908,-18.0448 8.8746,-9.1704 22.1863,-26.0319 21.5946,-27.8068 -0.2957,-0.8875 6.8038,-8.8746 15.6784,-17.7491 8.8745,-8.8745 20.1155,-21.5946 24.8486,-28.1026 4.733,-6.5079 11.8328,-14.7908 15.3825,-18.3407 3.8457,-3.5498 6.8037,-7.6912 6.8037,-8.8745 0,-1.1832 4.7331,-7.3954 10.3537,-13.3118 5.6205,-5.9163 10.3536,-12.1284 10.3536,-13.9034 0,-1.7749 0.8874,-3.2539 2.3665,-3.2539 1.1833,0 5.3248,-5.0289 9.4661,-10.9453 4.1415,-5.9164 8.8745,-12.1285 10.3537,-13.9033 6.2121,-6.508 13.6075,-20.1156 12.1284,-21.5947 -0.8874,-0.8874 -5.0289,0.5916 -8.8745,3.254 -4.1413,2.6623 -10.0578,4.733 -13.3117,4.733 -3.2539,0 -6.2122,1.7749 -6.8038,3.5499 -1.7749,4.733 -69.5171,5.3247 -72.771,0.8874 -1.1832,-1.7749 -7.0997,-5.6205 -13.6075,-8.8746 -11.537,-5.9162 -37.2732,-29.2858 -37.2732,-34.0189 0,-1.4791 -1.7748,-4.4372 -3.5497,-6.508 -7.987,-8.2829 -20.1156,-38.4562 -20.1156,-49.9931 0,-4.4373 -1.4789,-9.1703 -2.9581,-10.0578 -3.8456,-2.3665 -3.8456,-36.9771 0,-36.9771 1.7748,0 2.9581,-2.9582 2.9581,-6.8037 0,-7.6913 13.016,-36.0898 19.524,-42.5977 2.3665,-2.3665 5.6205,-7.0997 7.3954,-10.3537 4.4372,-8.2828 10.3536,-15.0867 31.6524,-36.6813 10.0578,-10.3535 18.3407,-19.8198 18.3407,-21.5946 0,-1.4791 3.2539,-3.5498 7.3955,-4.4373 4.1415,-1.1833 7.3954,-2.9582 7.3954,-4.4372 0,-1.1833 6.508,-6.8039 14.7908,-12.4243 7.9871,-5.6206 14.7908,-10.9453 14.7908,-12.1286 0,-1.4791 2.6624,-2.3666 5.9165,-2.3666 3.2539,0 5.9163,-0.8874 5.9163,-2.0706 0,-1.4791 6.2121,-4.7331 13.6076,-7.9871 11.5369,-4.7331 14.1993,-5.0289 17.749,-1.4791 3.5498,3.5499 1.1833,7.0997 -15.0867,24.8487 -10.6495,11.2411 -20.1155,22.7779 -21.0029,25.736 -0.8876,2.9583 -2.9583,5.3248 -4.4374,5.3248 -1.4791,0 -2.6624,2.6624 -2.6624,5.9163 0,3.254 -1.1832,5.9164 -2.3665,5.9164 -2.958,0 -12.4243,19.2281 -12.4243,25.1444 0,2.3665 -1.1833,4.4373 -2.9582,4.4373 -1.479,0 -2.9581,4.1414 -2.9581,9.1703 0,5.0288 -1.4791,11.8327 -3.254,15.0866 -4.4373,8.5788 2.0707,44.3727 9.762,52.3597 2.9581,3.254 5.3246,7.3954 5.3246,8.8745 0,4.1415 15.3825,18.0449 19.8198,18.0449 2.0708,0 3.8456,1.1833 3.8456,2.3665 0,7.3954 36.3855,16.27 65.0797,16.27 26.9195,-0.2959 73.3628,-9.4662 81.3498,-16.27 1.4791,-1.1832 5.0289,-2.3665 7.9871,-2.3665 4.733,0 5.0289,0.8874 1.7749,6.5079 -2.0708,3.5499 -6.8038,9.4662 -10.3536,13.3118 -3.8456,3.8457 -6.8039,7.9871 -6.8039,9.4662 0,1.1832 -2.3665,4.733 -5.0289,7.987 -2.958,3.254 -10.0577,11.8327 -15.6782,18.9324 -13.016,16.8615 -17.1574,21.8903 -27.511,33.7231 -13.016,14.7908 -13.9034,16.27 -13.9034,19.5239 0,1.4791 -0.8874,2.9582 -2.0706,2.9582 -1.4792,0 -5.6207,5.0289 -9.7622,10.9452 -4.1413,5.9164 -8.5786,12.4243 -10.3534,14.1993 -4.7332,5.3246 -10.3537,14.4949 -12.1287,20.1155 -1.1832,2.6624 -2.6623,5.0289 -3.8455,5.0289 -1.1834,0 -4.4373,5.0289 -7.3955,11.241 -2.9581,5.9164 -6.5078,13.3118 -8.2828,16.27 -4.7331,9.1703 -3.5498,43.7809 2.0706,62.4174 5.3248,17.749 9.4663,26.6235 23.3697,48.8098 4.4372,6.508 7.6912,13.0159 7.6912,13.9034 0,1.1833 3.254,6.508 7.3955,11.8327 4.1413,5.3248 7.3954,10.9452 7.3954,12.7202 0,1.7749 1.1833,3.2539 2.3665,3.2539 1.1833,0 4.4372,3.5499 7.0996,8.2829 2.6624,4.4373 8.8745,12.4243 13.9034,17.7491 5.0289,5.0288 9.1704,10.3535 9.1704,11.8327 0,2.0706 6.8037,11.241 18.3406,24.8486 5.3248,6.2121 5.0289,6.508 -5.6206,18.6364 -2.0707,2.0708 -3.8456,5.3248 -3.8456,7.0997 0,1.7749 -1.1832,3.254 -2.3666,3.254 -1.1832,0 -4.733,4.4372 -7.9869,9.7619 -2.9583,5.0289 -6.2122,10.0578 -7.3954,10.9452 -0.8876,0.8875 -6.8039,8.8745 -13.3119,17.7491 -15.6782,21.8905 -16.8615,23.0737 -24.2569,31.3566 -3.5498,3.8457 -7.0997,9.1703 -7.9872,12.1285 -0.8874,2.9582 -5.6204,10.0577 -10.6493,15.6784 -4.7331,5.6204 -8.8745,11.2409 -8.8745,12.4243 0,1.1832 -1.775,3.8455 -3.8457,5.9163 -2.0707,2.0707 -8.8745,11.241 -15.3825,20.1156 -6.508,8.8745 -13.3117,18.0448 -15.3825,20.1155 -2.0707,2.0707 -3.8455,4.7331 -3.8455,5.9163 0,1.1833 -4.1415,6.8038 -8.8745,12.4243 -4.7332,5.6206 -8.8746,11.2411 -8.8746,12.1286 0,1.1832 -3.8456,6.5079 -8.8745,11.8327 -4.733,5.6205 -10.3537,13.3117 -12.4243,17.4532 -2.0708,4.1414 -6.8039,10.3535 -10.3537,14.1992 -3.8456,3.8456 -6.8036,7.987 -6.8036,9.762 0,3.5498 -13.6077,17.4532 -16.8617,17.4532 -1.1833,0 -4.7331,-1.4791 -7.3954,-3.254 z"
         id="path4"
         style="stroke-width:0.295816" /></g></g><g
     inkscape:groupmode="layer"
     id="layer12"
     inkscape:label="colcheia"><g
       transform="matrix(0.04091521,0,0,-0.04091521,142.9676,316.44882)"
       fill="#000000"
       stroke="none"
       id="g34"><path
         d="m 421.64162,2231.5344 c -4,-4 -7,-209 -7,-456 v -448 l -27,17 c -35,23 -124,21 -184,-5 -92,-40 -158.999998,-123 -158.999998,-198 0,-47 49,-98 102.999998,-108 91,-17 212,38 272,123 l 30,43 5,355 5,355 60,-44 c 101,-75 188,-207 205,-314 9,-56 -1,-200 -22,-292 -8,-38 -8,-56 0,-64 14,-14 35,36 56,134 25,123 29,197 12,278 -21,99 -58,171 -161,310 -89,122 -139,212 -153,275 -7,38 -21,52 -35,39 z"
         id="path33" /></g></g><g
     inkscape:groupmode="layer"
     id="layer13"
     inkscape:label="colcheia pausa"><path
       d="m 228.4825,240.82954 c -0.18655,0.43562 -0.45789,1.23716 -0.61053,1.77733 -0.33918,1.20231 -1.06841,1.96899 -2.62865,2.77053 -0.59356,0.31365 -1.10234,0.52274 -1.13626,0.48789 -0.0339,-0.0349 0.0508,-0.24394 0.20351,-0.47046 0.15263,-0.2091 0.27135,-0.73184 0.27135,-1.15004 0,-2.09096 -2.62866,-3.18872 -4.83333,-2.02127 -1.25497,0.66214 -1.69591,1.32428 -1.69591,2.50917 0,0.81896 0.0848,1.09775 0.47486,1.6205 0.7462,1.01063 1.32281,1.23715 3.08654,1.23715 1.23802,0 1.76374,-0.0871 2.76433,-0.47047 0.6614,-0.26137 1.4076,-0.59244 1.64502,-0.74926 0.23743,-0.15682 0.47486,-0.24394 0.52574,-0.2091 0.0678,0.0871 -1.08538,3.8683 -1.45848,4.75696 -0.0848,0.19167 -0.27135,0.78411 -0.42398,1.30685 -0.15263,0.52274 -0.35614,1.11518 -0.44093,1.30686 -0.0848,0.19167 -0.45789,1.28943 -0.81404,2.43946 -0.37309,1.15003 -0.79707,2.38719 -0.93275,2.73568 -0.30525,0.71442 -0.35613,1.53338 -0.11871,1.53338 0.0848,0 0.27135,0.0523 0.40702,0.10455 0.30526,0.12197 0.62748,-0.54017 1.06842,-2.1084 0.15263,-0.57501 0.33918,-1.16745 0.42397,-1.30685 0.0678,-0.1394 0.25439,-0.69699 0.40702,-1.21973 0.15263,-0.52274 0.33918,-1.11519 0.42398,-1.30686 0.18655,-0.43562 1.62806,-4.77437 1.95029,-5.83728 0.28831,-0.99321 1.06842,-3.29328 1.27193,-3.74632 0.0848,-0.19167 0.30525,-0.85381 0.49181,-1.4811 0.18655,-0.62729 0.4579,-1.49853 0.62748,-1.95157 0.32223,-0.94094 0.23743,-1.35913 -0.27133,-1.35913 -0.2544,0 -0.44094,0.2091 -0.67837,0.80153 z"
       id="path1-54"
       style="fill:#000000;stroke:none;stroke-width:0.0171904" /><path
       d="m 256.33022,228.21164 c -0.0768,0.13436 -0.11515,8.21501 -0.0768,17.94635 l 0.0576,17.69683 -1.03648,-0.55662 c -3.66603,-1.99618 -9.27067,-1.42036 -11.80428,1.19003 -0.9213,0.95969 -1.47793,2.34165 -1.32438,3.35893 0.40308,3.01346 3.64686,5.04801 8.04227,5.04801 3.55088,0 6.58353,-1.40116 7.60081,-3.53169 0.38388,-0.78695 0.40307,-1.09405 0.40307,-11.03652 v -10.23038 l 0.88293,0.78695 c 0.47984,0.42227 1.91939,1.49713 3.20538,2.36086 4.62575,3.18619 5.33593,3.97315 5.47028,6.00771 0.0768,1.07486 0.0192,1.34357 -0.49904,2.28408 -0.51823,0.97889 -0.53743,1.05567 -0.15355,0.86373 0.88292,-0.47985 1.66987,-1.19003 2.01536,-1.86182 0.80616,-1.63148 0.67179,-2.95587 -0.46065,-4.64493 -0.36468,-0.55663 -0.67179,-1.03648 -0.67179,-1.09406 0,-0.0576 0.28791,-0.44146 0.6526,-0.84454 1.38196,-1.63148 1.32437,-3.66604 -0.19194,-5.66221 -0.24952,-0.3263 -0.46066,-0.6334 -0.46066,-0.69098 0,-0.0768 0.30711,-0.47985 0.67179,-0.92131 1.22842,-1.47794 1.32438,-3.10943 0.28791,-4.93285 -0.65259,-1.15164 -1.80423,-2.11134 -4.06913,-3.45491 -2.99424,-1.76585 -5.29752,-4.37623 -6.33399,-7.21693 l -0.40308,-1.09406 h -0.82534 c -0.44147,0 -0.88292,0.11516 -0.9789,0.23033 z m 5.91175,8.48373 c 1.30518,0.9405 2.8407,2.05375 3.39732,2.47602 1.07487,0.82534 1.9002,2.01536 2.14973,3.10942 0.15355,0.69098 -0.0768,2.16892 -0.38388,2.47602 -0.21114,0.21114 -2.38005,-0.9597 -4.04993,-2.2073 -3.12861,-2.30328 -5.16317,-5.48948 -5.16317,-8.06147 v -0.97889 l 0.84453,0.74857 c 0.46067,0.40307 1.9002,1.49712 3.2054,2.43763 z m -2.57199,5.41269 c 0.80614,0.71018 2.57199,1.99618 3.91556,2.8791 3.32056,2.18811 4.22268,3.30136 4.26107,5.18237 0,0.80614 -0.36469,1.99617 -0.63341,1.99617 -0.24952,0 -3.30136,-1.9002 -4.33783,-2.70635 -1.86182,-1.43955 -3.41652,-3.41652 -4.20348,-5.35511 -0.3071,-0.76776 -0.71018,-3.26298 -0.51824,-3.26298 0.0385,0 0.72937,0.57582 1.51633,1.2668 z"
       id="path1-7"
       style="fill:#000000;stroke:none;stroke-width:0.019194" /></g><g
     inkscape:groupmode="layer"
     id="layer14"
     inkscape:label="semi colcheia"><path
       d="m 240.25557,228.54829 c -0.0723,0.0723 -0.12658,5.58744 -0.12658,12.24174 v 12.09709 l -0.39782,-0.12658 c -2.76659,-0.84987 -6.2384,0.74138 -7.48608,3.39948 -0.75947,1.6455 -0.48822,2.96551 0.77753,3.83346 0.54248,0.36165 0.90412,0.45206 1.80824,0.45206 1.41043,0 2.98359,-0.32548 2.89318,-0.59672 -0.0362,-0.10849 0.3074,-0.5063 0.77754,-0.86795 2.31454,-1.82632 2.3507,-1.97098 2.3507,-10.41543 v -6.74471 h 0.43398 c 1.24769,0 3.83346,1.53699 5.33429,3.18249 1.21151,1.32001 1.537,2.42303 1.42851,4.611 -0.0723,1.17535 -0.217,1.82631 -0.57864,2.60385 -0.54247,1.17535 -0.57864,1.46467 -0.21698,1.59125 0.32547,0.12657 1.08493,-1.39234 1.48274,-2.94742 0.217,-0.83179 0.27124,-1.60933 0.19891,-2.62194 -0.16274,-2.58578 -0.95836,-4.01428 -4.03237,-7.32335 -2.5496,-2.7666 -3.38139,-3.9962 -3.76111,-5.67786 -0.12659,-0.5063 -0.10851,-0.52439 0.45205,-0.39781 1.1211,0.21699 2.44112,0.95837 3.56221,2.00714 1.84441,1.69974 2.73044,3.54414 2.91127,6.05759 0.0904,1.26576 0.16274,1.537 0.43398,1.59124 0.27123,0.0543 0.30739,-0.0904 0.30739,-1.17535 0,-1.89865 -0.59671,-4.44826 -1.44658,-6.148 -0.63289,-1.28384 -1.12111,-1.89864 -3.34524,-4.1951 -2.18797,-2.27837 -2.64002,-2.83893 -2.85701,-3.5803 -0.23507,-0.81371 -0.59671,-1.13919 -0.90411,-0.84987 z"
       id="path1-33"
       style="fill:#000000;stroke:none;stroke-width:0.0180823" /></g><g
     inkscape:groupmode="layer"
     id="layer15"
     inkscape:label="semi colcheia pausa"><path
       d="m 230.09922,266.9544 c -0.16245,0.0217 -0.41855,0.0886 -0.45867,0.12295 -0.009,0.007 -0.0287,0.0145 -0.0401,0.0145 -0.10121,0 -0.58289,0.29112 -0.76063,0.46109 -0.21024,0.19889 -0.46633,0.56234 -0.5313,0.75943 -0.0802,0.23867 -0.0974,0.34717 -0.0993,0.65998 -7.9e-4,0.37429 0.0229,0.49182 0.18157,0.82814 0.11849,0.24953 0.55422,0.69796 0.8256,0.84623 0.0822,0.0452 0.18921,0.0976 0.2389,0.11753 0.0496,0.0199 0.11467,0.0542 0.14717,0.0777 0.0765,0.0542 0.17963,0.0922 0.36312,0.13923 0.34782,0.0868 0.3612,0.0886 0.89441,0.0922 0.4854,0.004 0.52938,0.002 0.66697,-0.0361 0.0822,-0.0217 0.17011,-0.0398 0.19686,-0.0398 0.0286,0 0.065,-0.007 0.0842,-0.0181 0.0191,-0.009 0.12041,-0.038 0.22362,-0.0633 0.10318,-0.0253 0.20639,-0.0561 0.22741,-0.0705 0.021,-0.0127 0.0649,-0.0289 0.0975,-0.0343 0.0325,-0.005 0.14143,-0.047 0.24271,-0.0922 0.10131,-0.0452 0.23889,-0.10307 0.30579,-0.12658 0.11848,-0.0416 0.3115,-0.13561 0.45675,-0.22059 0.0383,-0.0235 0.12423,-0.0597 0.19113,-0.0814 0.0649,-0.0199 0.1357,-0.0452 0.15478,-0.056 0.0879,-0.0434 0.0842,0.0452 -0.009,0.29292 -0.021,0.0542 -0.0517,0.1555 -0.0668,0.22602 -0.0154,0.0687 -0.0363,0.13381 -0.044,0.14466 -0.009,0.009 -0.021,0.0578 -0.0287,0.10849 -0.008,0.0488 -0.0268,0.1121 -0.0401,0.13742 -0.0134,0.0253 -0.0306,0.0904 -0.0383,0.14465 -0.005,0.0542 -0.0248,0.11572 -0.0382,0.13742 -0.0154,0.0217 -0.0268,0.0542 -0.0268,0.0705 0,0.0325 -0.009,0.0615 -0.0765,0.25314 -0.021,0.0597 -0.0383,0.12296 -0.0383,0.14104 0,0.0289 -0.0573,0.21879 -0.0975,0.32728 -0.021,0.0506 -0.0592,0.20252 -0.0918,0.36163 -0.009,0.0398 -0.0363,0.13381 -0.063,0.20795 -0.0745,0.20974 -0.0993,0.29653 -0.0936,0.32185 8e-4,0.0145 -0.004,0.0343 -0.0133,0.0452 -0.009,0.0127 -0.0247,0.0561 -0.0325,0.0995 -0.008,0.0416 -0.0248,0.0994 -0.0382,0.12657 -0.0154,0.0271 -0.0306,0.0778 -0.0383,0.11211 -0.005,0.0343 -0.0154,0.0958 -0.021,0.13561 -0.008,0.0398 -0.0248,0.0886 -0.0382,0.10849 -0.0134,0.0199 -0.0306,0.0741 -0.0363,0.12295 -0.008,0.047 -0.021,0.0905 -0.0306,0.0958 -0.009,0.005 -0.0172,0.0271 -0.0172,0.047 0,0.0416 -0.009,0.0759 -0.0745,0.26761 -0.0229,0.0651 -0.0401,0.13561 -0.0401,0.15731 0,0.0217 -0.0114,0.0615 -0.0268,0.0904 -0.0154,0.0271 -0.0419,0.10306 -0.0573,0.16816 -0.0172,0.0651 -0.0478,0.17901 -0.0708,0.25314 -0.021,0.0741 -0.0536,0.18805 -0.0688,0.25315 -0.0401,0.15188 -0.0918,0.21516 -0.25609,0.31642 -0.0726,0.0452 -0.13568,0.0814 -0.13951,0.0814 -0.004,0 -0.11849,0.0705 -0.25228,0.15731 -0.13569,0.085 -0.30197,0.18443 -0.37076,0.21878 -0.21213,0.10848 -0.3784,0.18444 -0.39751,0.18444 -0.0114,0 -0.0668,0.0235 -0.12423,0.0525 -0.2427,0.12114 -0.63258,0.14645 -0.76636,0.049 -0.0668,-0.0469 -0.12615,-0.14464 -0.12615,-0.20793 0,-0.0199 0.0822,-0.14104 0.18347,-0.26761 0.10132,-0.12657 0.19686,-0.26037 0.21407,-0.29472 0.0592,-0.12839 0.0344,-0.65456 -0.0363,-0.80464 -0.009,-0.0198 -0.025,-0.0723 -0.0363,-0.11753 -0.009,-0.0452 -0.0229,-0.10668 -0.0306,-0.13561 -0.008,-0.0307 -0.0305,-0.0796 -0.0536,-0.10849 -0.0229,-0.0307 -0.0631,-0.094 -0.0879,-0.14104 -0.0268,-0.047 -0.0918,-0.14103 -0.14715,-0.20793 -0.0554,-0.0669 -0.1185,-0.14285 -0.13953,-0.17178 -0.0229,-0.0271 -0.0515,-0.0488 -0.0649,-0.0488 -0.0133,0 -0.0401,-0.0145 -0.0611,-0.0326 -0.0612,-0.0542 -0.25801,-0.17901 -0.34211,-0.21879 -0.23889,-0.1121 -0.46058,-0.16273 -0.77401,-0.17901 -0.67079,-0.0343 -1.20593,0.20975 -1.64357,0.75401 -0.1529,0.18805 -0.28667,0.40322 -0.28667,0.45927 0,0.0127 -0.0172,0.0578 -0.0383,0.0994 -0.021,0.0398 -0.0382,0.094 -0.0382,0.11754 0,0.0217 -0.008,0.0489 -0.0154,0.0578 -0.063,0.0669 -0.0842,0.68348 -0.0325,0.91311 0.0421,0.19348 0.0687,0.27846 0.0879,0.29836 0.009,0.009 0.0172,0.0325 0.0172,0.0524 0,0.0218 0.0286,0.0779 0.065,0.1284 0.13378,0.18805 0.20259,0.29291 0.20259,0.30738 0,0.0361 0.46439,0.45926 0.50452,0.46108 0.008,0 0.0728,0.0361 0.14333,0.0797 0.0687,0.0433 0.2045,0.11391 0.29815,0.15369 0.0955,0.0416 0.18537,0.0832 0.20068,0.0904 0.0172,0.009 0.0592,0.0218 0.0955,0.0271 0.0363,0.007 0.10509,0.0236 0.15291,0.038 0.22169,0.0632 0.45103,0.0904 0.73578,0.0869 0.15863,0 0.3268,-0.0108 0.37268,-0.0235 0.0955,-0.0252 0.0955,-0.0235 0.26755,-0.0542 0.0688,-0.0108 0.18538,-0.0361 0.25802,-0.056 0.0745,-0.0199 0.16818,-0.0453 0.21022,-0.0559 0.0687,-0.0164 0.26755,-0.085 0.65934,-0.22421 0.0687,-0.0235 0.13377,-0.0433 0.14716,-0.0433 0.0114,0 0.0306,-0.0108 0.0419,-0.0252 0.0114,-0.0127 0.0631,-0.0344 0.11275,-0.049 0.0899,-0.0236 0.34209,-0.13743 0.50071,-0.22963 0.0975,-0.056 0.25993,-0.11392 0.27522,-0.0995 0.0191,0.0182 -0.0479,0.26761 -0.13762,0.5117 -0.0154,0.0453 -0.0401,0.12659 -0.0536,0.18082 -0.0133,0.0542 -0.0345,0.13018 -0.044,0.16635 -0.0229,0.0722 -0.0325,0.10487 -0.0993,0.32186 -0.023,0.0742 -0.0688,0.23325 -0.10318,0.35258 -0.0344,0.11935 -0.10703,0.35441 -0.16053,0.52257 -0.0536,0.16816 -0.0976,0.32365 -0.0976,0.34717 0,0.0217 -0.008,0.0452 -0.0154,0.0507 -0.009,0.004 -0.0268,0.0559 -0.0401,0.11394 -0.0134,0.0578 -0.0325,0.12114 -0.0401,0.14101 -0.009,0.0199 -0.0229,0.0633 -0.0286,0.0958 -0.008,0.0344 -0.0345,0.11933 -0.0592,0.18986 -0.0554,0.1555 -0.12231,0.38694 -0.12231,0.42672 0,0.0164 -0.0114,0.0507 -0.0268,0.076 -0.0134,0.0252 -0.0306,0.0779 -0.0382,0.11393 -0.008,0.038 -0.0247,0.0939 -0.0401,0.12657 -0.0133,0.0307 -0.0344,0.0922 -0.0478,0.13743 -0.0114,0.0453 -0.0345,0.11751 -0.0478,0.16273 -0.0154,0.0453 -0.0401,0.13018 -0.0554,0.19166 -0.0133,0.0597 -0.0573,0.20251 -0.0935,0.31644 -0.0383,0.1139 -0.0842,0.25495 -0.10131,0.31461 -0.0172,0.0598 -0.0382,0.12838 -0.0459,0.1537 -0.008,0.0252 -0.0248,0.0814 -0.0363,0.12658 -0.0133,0.0452 -0.0363,0.11751 -0.0536,0.16273 -0.0154,0.0453 -0.0363,0.11389 -0.044,0.15369 -0.008,0.0398 -0.0287,0.11752 -0.0478,0.17177 -0.0172,0.0542 -0.0479,0.14827 -0.0668,0.20795 -0.0172,0.0598 -0.044,0.14464 -0.0592,0.18985 -0.0134,0.0433 -0.0268,0.0887 -0.0268,0.0995 -8e-4,0.009 -0.008,0.0307 -0.0133,0.0452 -0.009,0.0252 -0.17964,0.55872 -0.23507,0.74134 -0.0133,0.0453 -0.044,0.15008 -0.0668,0.23506 -0.0229,0.085 -0.0574,0.1989 -0.0765,0.25315 -0.0191,0.0542 -0.0536,0.16816 -0.0765,0.25314 -0.0229,0.085 -0.0632,0.21517 -0.0879,0.29112 -0.0248,0.076 -0.0459,0.14827 -0.0459,0.16273 0,0.0145 -0.0114,0.0469 -0.0268,0.0722 -0.0133,0.0252 -0.0306,0.085 -0.0383,0.13199 -0.008,0.0489 -0.0305,0.12477 -0.0516,0.16998 -0.0401,0.0869 -0.0708,0.19528 -0.0879,0.31463 -0.0154,0.10308 0.008,0.10847 0.51218,0.0976 0.51409,-0.009 0.49116,-7.8e-4 0.55233,-0.19889 0.023,-0.0704 0.0496,-0.15369 0.0611,-0.18262 0.0191,-0.0507 0.0554,-0.16636 0.0919,-0.2893 0.009,-0.0307 0.0344,-0.12114 0.0554,-0.20072 0.0229,-0.0814 0.0536,-0.17718 0.0687,-0.21155 0.0154,-0.0361 0.0286,-0.0869 0.0286,-0.1121 0,-0.0252 0.0114,-0.0651 0.0268,-0.0869 0.0133,-0.0217 0.0363,-0.0885 0.0496,-0.14826 0.0133,-0.0598 0.0478,-0.1736 0.0784,-0.25315 0.0287,-0.0797 0.0592,-0.18082 0.0669,-0.22602 0.008,-0.0433 0.0306,-0.12116 0.0496,-0.17179 0.021,-0.049 0.0573,-0.16453 0.0802,-0.25312 0.0229,-0.0904 0.0517,-0.17903 0.0631,-0.19891 0.0114,-0.0199 0.0248,-0.0722 0.0325,-0.11753 0.008,-0.0452 0.0517,-0.19167 0.0975,-0.32547 0.11658,-0.34536 0.16245,-0.49362 0.16245,-0.53522 0,-0.0199 0.0154,-0.0651 0.0363,-0.10131 0.0191,-0.0361 0.0401,-0.10487 0.0459,-0.1537 0.005,-0.0469 0.0247,-0.11211 0.0401,-0.14104 0.0172,-0.0307 0.0305,-0.0742 0.0305,-0.0994 0,-0.0252 0.0154,-0.0779 0.0344,-0.11753 0.0191,-0.0398 0.0459,-0.12114 0.0611,-0.18083 0.0133,-0.0597 0.0325,-0.11572 0.0421,-0.12476 0.008,-0.0107 0.0154,-0.0326 0.0154,-0.0524 0,-0.0398 0.0937,-0.35984 0.18347,-0.62746 0.0345,-0.10485 0.0899,-0.28388 0.12232,-0.39779 0.0325,-0.11391 0.0745,-0.26038 0.0955,-0.32548 0.0191,-0.0651 0.0496,-0.16996 0.0669,-0.23503 0.0191,-0.0651 0.0478,-0.15912 0.0668,-0.20795 0.0611,-0.16997 0.0765,-0.2188 0.0765,-0.25856 0,-0.0217 0.0172,-0.0742 0.0363,-0.11573 0.021,-0.0433 0.0479,-0.12658 0.0592,-0.18625 0.0114,-0.0598 0.0306,-0.12296 0.0401,-0.13924 0.009,-0.0182 0.0172,-0.0488 0.0172,-0.067 0,-0.0199 0.009,-0.0415 0.0191,-0.0471 0.0114,-0.004 0.0192,-0.0272 0.0192,-0.049 0,-0.0199 0.0114,-0.0616 0.0268,-0.0922 0.0154,-0.0326 0.0536,-0.15188 0.0861,-0.26581 0.0306,-0.11392 0.0765,-0.26942 0.0993,-0.34356 0.021,-0.0741 0.0554,-0.18804 0.0725,-0.25312 0.0191,-0.0651 0.0419,-0.13744 0.0536,-0.16275 0.0287,-0.0615 0.11466,-0.3309 0.1395,-0.43758 0.009,-0.047 0.0306,-0.11209 0.0459,-0.14466 0.0382,-0.085 0.12041,-0.35439 0.13569,-0.44299 0.008,-0.0433 0.021,-0.0815 0.0305,-0.0887 0.009,-0.004 0.0172,-0.0235 0.0172,-0.0397 0,-0.0163 0.0172,-0.0869 0.0401,-0.15729 0.021,-0.0687 0.0649,-0.20795 0.0955,-0.30739 0.0306,-0.0994 0.0649,-0.20613 0.0765,-0.23506 0.0114,-0.0307 0.0287,-0.0904 0.0401,-0.13562 0.009,-0.0452 0.0516,-0.18443 0.0936,-0.3092 0.0401,-0.12656 0.0745,-0.2459 0.0745,-0.26941 0,-0.0216 0.0114,-0.0614 0.0268,-0.0868 0.0154,-0.0271 0.0345,-0.0814 0.0459,-0.12114 0.0191,-0.0705 0.0344,-0.12658 0.0936,-0.34356 0.0172,-0.0596 0.0419,-0.1338 0.0536,-0.16273 0.0133,-0.0307 0.0345,-0.0994 0.0478,-0.1537 0.0133,-0.0542 0.0382,-0.14465 0.0573,-0.1989 0.0191,-0.0542 0.0496,-0.16092 0.0668,-0.23506 0.0191,-0.0741 0.0401,-0.14827 0.0478,-0.16273 0.008,-0.0145 0.0325,-0.0922 0.0574,-0.17178 0.0229,-0.0795 0.0573,-0.18624 0.0765,-0.23506 0.0325,-0.085 0.0859,-0.27303 0.14142,-0.49905 0.0133,-0.056 0.0306,-0.1103 0.0383,-0.12115 0.008,-0.0127 0.0268,-0.0687 0.0421,-0.12477 0.0154,-0.0579 0.0344,-0.12114 0.044,-0.14104 0.0248,-0.0524 0.0975,-0.30919 0.0975,-0.34174 0,-0.0163 0.008,-0.0434 0.0172,-0.0615 0.025,-0.0416 0.1051,-0.28388 0.1529,-0.4647 0.0496,-0.18262 0.10509,-0.36886 0.14715,-0.49725 0.0191,-0.0542 0.0345,-0.10849 0.0363,-0.11753 8e-4,-0.0109 0.0135,-0.0434 0.0268,-0.0723 0.0133,-0.0307 0.0305,-0.0868 0.0401,-0.12657 0.008,-0.0398 0.0248,-0.0976 0.0363,-0.12657 0.0114,-0.0307 0.0325,-0.0904 0.0478,-0.13561 0.0154,-0.0452 0.0363,-0.10669 0.0459,-0.13562 0.0268,-0.0759 0.0726,-0.23687 0.0993,-0.34897 0.0133,-0.0524 0.0345,-0.11934 0.0497,-0.14647 0.0154,-0.0271 0.0325,-0.0904 0.0382,-0.13922 0.008,-0.0488 0.0287,-0.11753 0.0459,-0.15189 0.0191,-0.0343 0.0401,-0.0958 0.0478,-0.13561 0.008,-0.0398 0.0192,-0.0814 0.0287,-0.0904 0.008,-0.0109 0.021,-0.0506 0.0286,-0.0904 0.008,-0.0398 0.0306,-0.10668 0.0496,-0.15008 0.021,-0.0416 0.0459,-0.1103 0.0536,-0.15369 0.009,-0.0416 0.0344,-0.13381 0.0554,-0.20252 0.0802,-0.25676 0.11466,-0.38152 0.12421,-0.44843 0.009,-0.0615 0.005,-0.0705 -0.0401,-0.0868 -0.0651,-0.0253 -0.37458,-0.009 -0.45868,0.0217 -0.0325,0.0145 -0.0668,0.0398 -0.0726,0.0615 -0.0114,0.0325 -0.0784,0.132 -0.10318,0.1537 -0.005,0.005 -0.0363,0.0488 -0.0669,0.0994 -0.0305,0.0488 -0.0651,0.0976 -0.0765,0.10849 -0.0134,0.009 -0.0631,0.0705 -0.11084,0.13561 -0.0479,0.0651 -0.14333,0.17358 -0.21213,0.2423 -0.0687,0.0687 -0.12613,0.13018 -0.12613,0.13742 0,0.0181 -0.39946,0.39779 -0.45486,0.43034 -0.0286,0.0163 -0.0822,0.056 -0.11849,0.0886 -0.14334,0.12477 -0.22934,0.18625 -0.46824,0.33451 -0.33634,0.20975 -0.51599,0.29474 -0.95365,0.45024 -0.11275,0.0398 -0.21214,0.0307 -0.30386,-0.0271 -0.0975,-0.0615 -0.12233,-0.11934 -0.0937,-0.21336 0.15673,-0.49906 0.18349,-0.65276 0.16628,-1.01439 -0.009,-0.20432 -0.021,-0.28026 -0.0842,-0.5099 -0.0134,-0.0506 -0.0459,-0.11753 -0.19114,-0.40865 -0.0229,-0.0452 -0.0668,-0.10668 -0.0974,-0.1338 -0.0325,-0.0289 -0.0573,-0.0597 -0.0573,-0.0687 0,-0.0506 -0.25799,-0.27665 -0.41663,-0.36525 -0.0191,-0.0109 -0.0725,-0.0398 -0.11848,-0.0651 -0.10131,-0.056 -0.37459,-0.14827 -0.40708,-0.13742 -0.0133,0.004 -0.0536,-0.004 -0.0899,-0.0181 -0.0918,-0.0361 -0.35737,-0.0434 -0.56376,-0.0163 z"
       id="path1-38"
       style="fill:#000000;stroke:none;stroke-width:0.00185895" /></g></svg>
